G75*
G70*
%OFA0B0*%
%FSLAX24Y24*%
%IPPOS*%
%LPD*%
%AMOC8*
5,1,8,0,0,1.08239X$1,22.5*
%
%ADD10C,0.0000*%
D10*
X021004Y000888D02*
X021004Y009156D01*
X021006Y009210D01*
X021011Y009263D01*
X021020Y009316D01*
X021033Y009368D01*
X021049Y009420D01*
X021069Y009470D01*
X021092Y009518D01*
X021119Y009565D01*
X021148Y009610D01*
X021181Y009653D01*
X021216Y009693D01*
X021254Y009731D01*
X021294Y009766D01*
X021337Y009799D01*
X021382Y009828D01*
X021429Y009855D01*
X021477Y009878D01*
X021527Y009898D01*
X021579Y009914D01*
X021631Y009927D01*
X021684Y009936D01*
X021737Y009941D01*
X021791Y009943D01*
X048563Y009943D01*
X048617Y009941D01*
X048670Y009936D01*
X048723Y009927D01*
X048775Y009914D01*
X048827Y009898D01*
X048877Y009878D01*
X048925Y009855D01*
X048972Y009828D01*
X049017Y009799D01*
X049060Y009766D01*
X049100Y009731D01*
X049138Y009693D01*
X049173Y009653D01*
X049206Y009610D01*
X049235Y009565D01*
X049262Y009518D01*
X049285Y009470D01*
X049305Y009420D01*
X049321Y009368D01*
X049334Y009316D01*
X049343Y009263D01*
X049348Y009210D01*
X049350Y009156D01*
X049351Y009156D02*
X049351Y000888D01*
X049350Y000888D02*
X049348Y000834D01*
X049343Y000781D01*
X049334Y000728D01*
X049321Y000676D01*
X049305Y000624D01*
X049285Y000574D01*
X049262Y000526D01*
X049235Y000479D01*
X049206Y000434D01*
X049173Y000391D01*
X049138Y000351D01*
X049100Y000313D01*
X049060Y000278D01*
X049017Y000245D01*
X048972Y000216D01*
X048925Y000189D01*
X048877Y000166D01*
X048827Y000146D01*
X048775Y000130D01*
X048723Y000117D01*
X048670Y000108D01*
X048617Y000103D01*
X048563Y000101D01*
X021791Y000101D01*
X021737Y000103D01*
X021684Y000108D01*
X021631Y000117D01*
X021579Y000130D01*
X021527Y000146D01*
X021477Y000166D01*
X021429Y000189D01*
X021382Y000216D01*
X021337Y000245D01*
X021294Y000278D01*
X021254Y000313D01*
X021216Y000351D01*
X021181Y000391D01*
X021148Y000434D01*
X021119Y000479D01*
X021092Y000526D01*
X021069Y000574D01*
X021049Y000624D01*
X021033Y000676D01*
X021020Y000728D01*
X021011Y000781D01*
X021006Y000834D01*
X021004Y000888D01*
X031830Y007975D02*
X031832Y008023D01*
X031838Y008071D01*
X031848Y008118D01*
X031861Y008164D01*
X031879Y008209D01*
X031899Y008253D01*
X031924Y008295D01*
X031952Y008334D01*
X031982Y008371D01*
X032016Y008405D01*
X032053Y008437D01*
X032091Y008466D01*
X032132Y008491D01*
X032175Y008513D01*
X032220Y008531D01*
X032266Y008545D01*
X032313Y008556D01*
X032361Y008563D01*
X032409Y008566D01*
X032457Y008565D01*
X032505Y008560D01*
X032553Y008551D01*
X032599Y008539D01*
X032644Y008522D01*
X032688Y008502D01*
X032730Y008479D01*
X032770Y008452D01*
X032808Y008422D01*
X032843Y008389D01*
X032875Y008353D01*
X032905Y008315D01*
X032931Y008274D01*
X032953Y008231D01*
X032973Y008187D01*
X032988Y008142D01*
X033000Y008095D01*
X033008Y008047D01*
X033012Y007999D01*
X033012Y007951D01*
X033008Y007903D01*
X033000Y007855D01*
X032988Y007808D01*
X032973Y007763D01*
X032953Y007719D01*
X032931Y007676D01*
X032905Y007635D01*
X032875Y007597D01*
X032843Y007561D01*
X032808Y007528D01*
X032770Y007498D01*
X032730Y007471D01*
X032688Y007448D01*
X032644Y007428D01*
X032599Y007411D01*
X032553Y007399D01*
X032505Y007390D01*
X032457Y007385D01*
X032409Y007384D01*
X032361Y007387D01*
X032313Y007394D01*
X032266Y007405D01*
X032220Y007419D01*
X032175Y007437D01*
X032132Y007459D01*
X032091Y007484D01*
X032053Y007513D01*
X032016Y007545D01*
X031982Y007579D01*
X031952Y007616D01*
X031924Y007655D01*
X031899Y007697D01*
X031879Y007741D01*
X031861Y007786D01*
X031848Y007832D01*
X031838Y007879D01*
X031832Y007927D01*
X031830Y007975D01*
X036555Y007975D02*
X036557Y008023D01*
X036563Y008071D01*
X036573Y008118D01*
X036586Y008164D01*
X036604Y008209D01*
X036624Y008253D01*
X036649Y008295D01*
X036677Y008334D01*
X036707Y008371D01*
X036741Y008405D01*
X036778Y008437D01*
X036816Y008466D01*
X036857Y008491D01*
X036900Y008513D01*
X036945Y008531D01*
X036991Y008545D01*
X037038Y008556D01*
X037086Y008563D01*
X037134Y008566D01*
X037182Y008565D01*
X037230Y008560D01*
X037278Y008551D01*
X037324Y008539D01*
X037369Y008522D01*
X037413Y008502D01*
X037455Y008479D01*
X037495Y008452D01*
X037533Y008422D01*
X037568Y008389D01*
X037600Y008353D01*
X037630Y008315D01*
X037656Y008274D01*
X037678Y008231D01*
X037698Y008187D01*
X037713Y008142D01*
X037725Y008095D01*
X037733Y008047D01*
X037737Y007999D01*
X037737Y007951D01*
X037733Y007903D01*
X037725Y007855D01*
X037713Y007808D01*
X037698Y007763D01*
X037678Y007719D01*
X037656Y007676D01*
X037630Y007635D01*
X037600Y007597D01*
X037568Y007561D01*
X037533Y007528D01*
X037495Y007498D01*
X037455Y007471D01*
X037413Y007448D01*
X037369Y007428D01*
X037324Y007411D01*
X037278Y007399D01*
X037230Y007390D01*
X037182Y007385D01*
X037134Y007384D01*
X037086Y007387D01*
X037038Y007394D01*
X036991Y007405D01*
X036945Y007419D01*
X036900Y007437D01*
X036857Y007459D01*
X036816Y007484D01*
X036778Y007513D01*
X036741Y007545D01*
X036707Y007579D01*
X036677Y007616D01*
X036649Y007655D01*
X036624Y007697D01*
X036604Y007741D01*
X036586Y007786D01*
X036573Y007832D01*
X036563Y007879D01*
X036557Y007927D01*
X036555Y007975D01*
M02*
