G75*
G70*
%OFA0B0*%
%FSLAX24Y24*%
%IPPOS*%
%LPD*%
%AMOC8*
5,1,8,0,0,1.08239X$1,22.5*
%
%ADD10C,0.0000*%
D10*
X021004Y000101D02*
X021004Y009943D01*
X049351Y009943D01*
X049351Y000101D01*
X021004Y000101D01*
X024210Y007975D02*
X024212Y008018D01*
X024218Y008061D01*
X024228Y008103D01*
X024241Y008144D01*
X024258Y008184D01*
X024279Y008222D01*
X024303Y008258D01*
X024331Y008291D01*
X024361Y008322D01*
X024394Y008350D01*
X024429Y008375D01*
X024466Y008397D01*
X024506Y008415D01*
X024546Y008429D01*
X024588Y008440D01*
X024631Y008447D01*
X024674Y008450D01*
X024717Y008449D01*
X024760Y008444D01*
X024803Y008435D01*
X024844Y008423D01*
X024884Y008406D01*
X024922Y008386D01*
X024959Y008363D01*
X024993Y008337D01*
X025025Y008307D01*
X025053Y008275D01*
X025079Y008240D01*
X025102Y008203D01*
X025121Y008164D01*
X025136Y008124D01*
X025148Y008082D01*
X025156Y008040D01*
X025160Y007997D01*
X025160Y007953D01*
X025156Y007910D01*
X025148Y007868D01*
X025136Y007826D01*
X025121Y007786D01*
X025102Y007747D01*
X025079Y007710D01*
X025053Y007675D01*
X025025Y007643D01*
X024993Y007613D01*
X024959Y007587D01*
X024923Y007564D01*
X024884Y007544D01*
X024844Y007527D01*
X024803Y007515D01*
X024760Y007506D01*
X024717Y007501D01*
X024674Y007500D01*
X024631Y007503D01*
X024588Y007510D01*
X024546Y007521D01*
X024506Y007535D01*
X024466Y007553D01*
X024429Y007575D01*
X024394Y007600D01*
X024361Y007628D01*
X024331Y007659D01*
X024303Y007692D01*
X024279Y007728D01*
X024258Y007766D01*
X024241Y007806D01*
X024228Y007847D01*
X024218Y007889D01*
X024212Y007932D01*
X024210Y007975D01*
X027084Y007975D02*
X027086Y008018D01*
X027092Y008061D01*
X027102Y008103D01*
X027115Y008144D01*
X027132Y008184D01*
X027153Y008222D01*
X027177Y008258D01*
X027205Y008291D01*
X027235Y008322D01*
X027268Y008350D01*
X027303Y008375D01*
X027340Y008397D01*
X027380Y008415D01*
X027420Y008429D01*
X027462Y008440D01*
X027505Y008447D01*
X027548Y008450D01*
X027591Y008449D01*
X027634Y008444D01*
X027677Y008435D01*
X027718Y008423D01*
X027758Y008406D01*
X027796Y008386D01*
X027833Y008363D01*
X027867Y008337D01*
X027899Y008307D01*
X027927Y008275D01*
X027953Y008240D01*
X027976Y008203D01*
X027995Y008164D01*
X028010Y008124D01*
X028022Y008082D01*
X028030Y008040D01*
X028034Y007997D01*
X028034Y007953D01*
X028030Y007910D01*
X028022Y007868D01*
X028010Y007826D01*
X027995Y007786D01*
X027976Y007747D01*
X027953Y007710D01*
X027927Y007675D01*
X027899Y007643D01*
X027867Y007613D01*
X027833Y007587D01*
X027797Y007564D01*
X027758Y007544D01*
X027718Y007527D01*
X027677Y007515D01*
X027634Y007506D01*
X027591Y007501D01*
X027548Y007500D01*
X027505Y007503D01*
X027462Y007510D01*
X027420Y007521D01*
X027380Y007535D01*
X027340Y007553D01*
X027303Y007575D01*
X027268Y007600D01*
X027235Y007628D01*
X027205Y007659D01*
X027177Y007692D01*
X027153Y007728D01*
X027132Y007766D01*
X027115Y007806D01*
X027102Y007847D01*
X027092Y007889D01*
X027086Y007932D01*
X027084Y007975D01*
X041533Y007975D02*
X041535Y008018D01*
X041541Y008061D01*
X041551Y008103D01*
X041564Y008144D01*
X041581Y008184D01*
X041602Y008222D01*
X041626Y008258D01*
X041654Y008291D01*
X041684Y008322D01*
X041717Y008350D01*
X041752Y008375D01*
X041789Y008397D01*
X041829Y008415D01*
X041869Y008429D01*
X041911Y008440D01*
X041954Y008447D01*
X041997Y008450D01*
X042040Y008449D01*
X042083Y008444D01*
X042126Y008435D01*
X042167Y008423D01*
X042207Y008406D01*
X042245Y008386D01*
X042282Y008363D01*
X042316Y008337D01*
X042348Y008307D01*
X042376Y008275D01*
X042402Y008240D01*
X042425Y008203D01*
X042444Y008164D01*
X042459Y008124D01*
X042471Y008082D01*
X042479Y008040D01*
X042483Y007997D01*
X042483Y007953D01*
X042479Y007910D01*
X042471Y007868D01*
X042459Y007826D01*
X042444Y007786D01*
X042425Y007747D01*
X042402Y007710D01*
X042376Y007675D01*
X042348Y007643D01*
X042316Y007613D01*
X042282Y007587D01*
X042246Y007564D01*
X042207Y007544D01*
X042167Y007527D01*
X042126Y007515D01*
X042083Y007506D01*
X042040Y007501D01*
X041997Y007500D01*
X041954Y007503D01*
X041911Y007510D01*
X041869Y007521D01*
X041829Y007535D01*
X041789Y007553D01*
X041752Y007575D01*
X041717Y007600D01*
X041684Y007628D01*
X041654Y007659D01*
X041626Y007692D01*
X041602Y007728D01*
X041581Y007766D01*
X041564Y007806D01*
X041551Y007847D01*
X041541Y007889D01*
X041535Y007932D01*
X041533Y007975D01*
X044407Y007975D02*
X044409Y008018D01*
X044415Y008061D01*
X044425Y008103D01*
X044438Y008144D01*
X044455Y008184D01*
X044476Y008222D01*
X044500Y008258D01*
X044528Y008291D01*
X044558Y008322D01*
X044591Y008350D01*
X044626Y008375D01*
X044663Y008397D01*
X044703Y008415D01*
X044743Y008429D01*
X044785Y008440D01*
X044828Y008447D01*
X044871Y008450D01*
X044914Y008449D01*
X044957Y008444D01*
X045000Y008435D01*
X045041Y008423D01*
X045081Y008406D01*
X045119Y008386D01*
X045156Y008363D01*
X045190Y008337D01*
X045222Y008307D01*
X045250Y008275D01*
X045276Y008240D01*
X045299Y008203D01*
X045318Y008164D01*
X045333Y008124D01*
X045345Y008082D01*
X045353Y008040D01*
X045357Y007997D01*
X045357Y007953D01*
X045353Y007910D01*
X045345Y007868D01*
X045333Y007826D01*
X045318Y007786D01*
X045299Y007747D01*
X045276Y007710D01*
X045250Y007675D01*
X045222Y007643D01*
X045190Y007613D01*
X045156Y007587D01*
X045120Y007564D01*
X045081Y007544D01*
X045041Y007527D01*
X045000Y007515D01*
X044957Y007506D01*
X044914Y007501D01*
X044871Y007500D01*
X044828Y007503D01*
X044785Y007510D01*
X044743Y007521D01*
X044703Y007535D01*
X044663Y007553D01*
X044626Y007575D01*
X044591Y007600D01*
X044558Y007628D01*
X044528Y007659D01*
X044500Y007692D01*
X044476Y007728D01*
X044455Y007766D01*
X044438Y007806D01*
X044425Y007847D01*
X044415Y007889D01*
X044409Y007932D01*
X044407Y007975D01*
M02*
