G75*
G70*
%OFA0B0*%
%FSLAX24Y24*%
%IPPOS*%
%LPD*%
%AMOC8*
5,1,8,0,0,1.08239X$1,22.5*
%
%ADD10C,0.0000*%
D10*
X021004Y000888D02*
X021004Y009156D01*
X021006Y009210D01*
X021011Y009263D01*
X021020Y009316D01*
X021033Y009368D01*
X021049Y009420D01*
X021069Y009470D01*
X021092Y009518D01*
X021119Y009565D01*
X021148Y009610D01*
X021181Y009653D01*
X021216Y009693D01*
X021254Y009731D01*
X021294Y009766D01*
X021337Y009799D01*
X021382Y009828D01*
X021429Y009855D01*
X021477Y009878D01*
X021527Y009898D01*
X021579Y009914D01*
X021631Y009927D01*
X021684Y009936D01*
X021737Y009941D01*
X021791Y009943D01*
X048563Y009943D01*
X048617Y009941D01*
X048670Y009936D01*
X048723Y009927D01*
X048775Y009914D01*
X048827Y009898D01*
X048877Y009878D01*
X048925Y009855D01*
X048972Y009828D01*
X049017Y009799D01*
X049060Y009766D01*
X049100Y009731D01*
X049138Y009693D01*
X049173Y009653D01*
X049206Y009610D01*
X049235Y009565D01*
X049262Y009518D01*
X049285Y009470D01*
X049305Y009420D01*
X049321Y009368D01*
X049334Y009316D01*
X049343Y009263D01*
X049348Y009210D01*
X049350Y009156D01*
X049351Y009156D02*
X049351Y000888D01*
X049350Y000888D02*
X049348Y000834D01*
X049343Y000781D01*
X049334Y000728D01*
X049321Y000676D01*
X049305Y000624D01*
X049285Y000574D01*
X049262Y000526D01*
X049235Y000479D01*
X049206Y000434D01*
X049173Y000391D01*
X049138Y000351D01*
X049100Y000313D01*
X049060Y000278D01*
X049017Y000245D01*
X048972Y000216D01*
X048925Y000189D01*
X048877Y000166D01*
X048827Y000146D01*
X048775Y000130D01*
X048723Y000117D01*
X048670Y000108D01*
X048617Y000103D01*
X048563Y000101D01*
X021791Y000101D01*
X021737Y000103D01*
X021684Y000108D01*
X021631Y000117D01*
X021579Y000130D01*
X021527Y000146D01*
X021477Y000166D01*
X021429Y000189D01*
X021382Y000216D01*
X021337Y000245D01*
X021294Y000278D01*
X021254Y000313D01*
X021216Y000351D01*
X021181Y000391D01*
X021148Y000434D01*
X021119Y000479D01*
X021092Y000526D01*
X021069Y000574D01*
X021049Y000624D01*
X021033Y000676D01*
X021020Y000728D01*
X021011Y000781D01*
X021006Y000834D01*
X021004Y000888D01*
X024210Y007975D02*
X024212Y008018D01*
X024218Y008061D01*
X024228Y008103D01*
X024241Y008144D01*
X024258Y008184D01*
X024279Y008222D01*
X024303Y008258D01*
X024331Y008291D01*
X024361Y008322D01*
X024394Y008350D01*
X024429Y008375D01*
X024466Y008397D01*
X024506Y008415D01*
X024546Y008429D01*
X024588Y008440D01*
X024631Y008447D01*
X024674Y008450D01*
X024717Y008449D01*
X024760Y008444D01*
X024803Y008435D01*
X024844Y008423D01*
X024884Y008406D01*
X024922Y008386D01*
X024959Y008363D01*
X024993Y008337D01*
X025025Y008307D01*
X025053Y008275D01*
X025079Y008240D01*
X025102Y008203D01*
X025121Y008164D01*
X025136Y008124D01*
X025148Y008082D01*
X025156Y008040D01*
X025160Y007997D01*
X025160Y007953D01*
X025156Y007910D01*
X025148Y007868D01*
X025136Y007826D01*
X025121Y007786D01*
X025102Y007747D01*
X025079Y007710D01*
X025053Y007675D01*
X025025Y007643D01*
X024993Y007613D01*
X024959Y007587D01*
X024923Y007564D01*
X024884Y007544D01*
X024844Y007527D01*
X024803Y007515D01*
X024760Y007506D01*
X024717Y007501D01*
X024674Y007500D01*
X024631Y007503D01*
X024588Y007510D01*
X024546Y007521D01*
X024506Y007535D01*
X024466Y007553D01*
X024429Y007575D01*
X024394Y007600D01*
X024361Y007628D01*
X024331Y007659D01*
X024303Y007692D01*
X024279Y007728D01*
X024258Y007766D01*
X024241Y007806D01*
X024228Y007847D01*
X024218Y007889D01*
X024212Y007932D01*
X024210Y007975D01*
X027084Y007975D02*
X027086Y008018D01*
X027092Y008061D01*
X027102Y008103D01*
X027115Y008144D01*
X027132Y008184D01*
X027153Y008222D01*
X027177Y008258D01*
X027205Y008291D01*
X027235Y008322D01*
X027268Y008350D01*
X027303Y008375D01*
X027340Y008397D01*
X027380Y008415D01*
X027420Y008429D01*
X027462Y008440D01*
X027505Y008447D01*
X027548Y008450D01*
X027591Y008449D01*
X027634Y008444D01*
X027677Y008435D01*
X027718Y008423D01*
X027758Y008406D01*
X027796Y008386D01*
X027833Y008363D01*
X027867Y008337D01*
X027899Y008307D01*
X027927Y008275D01*
X027953Y008240D01*
X027976Y008203D01*
X027995Y008164D01*
X028010Y008124D01*
X028022Y008082D01*
X028030Y008040D01*
X028034Y007997D01*
X028034Y007953D01*
X028030Y007910D01*
X028022Y007868D01*
X028010Y007826D01*
X027995Y007786D01*
X027976Y007747D01*
X027953Y007710D01*
X027927Y007675D01*
X027899Y007643D01*
X027867Y007613D01*
X027833Y007587D01*
X027797Y007564D01*
X027758Y007544D01*
X027718Y007527D01*
X027677Y007515D01*
X027634Y007506D01*
X027591Y007501D01*
X027548Y007500D01*
X027505Y007503D01*
X027462Y007510D01*
X027420Y007521D01*
X027380Y007535D01*
X027340Y007553D01*
X027303Y007575D01*
X027268Y007600D01*
X027235Y007628D01*
X027205Y007659D01*
X027177Y007692D01*
X027153Y007728D01*
X027132Y007766D01*
X027115Y007806D01*
X027102Y007847D01*
X027092Y007889D01*
X027086Y007932D01*
X027084Y007975D01*
X031830Y007975D02*
X031832Y008023D01*
X031838Y008071D01*
X031848Y008118D01*
X031861Y008164D01*
X031879Y008209D01*
X031899Y008253D01*
X031924Y008295D01*
X031952Y008334D01*
X031982Y008371D01*
X032016Y008405D01*
X032053Y008437D01*
X032091Y008466D01*
X032132Y008491D01*
X032175Y008513D01*
X032220Y008531D01*
X032266Y008545D01*
X032313Y008556D01*
X032361Y008563D01*
X032409Y008566D01*
X032457Y008565D01*
X032505Y008560D01*
X032553Y008551D01*
X032599Y008539D01*
X032644Y008522D01*
X032688Y008502D01*
X032730Y008479D01*
X032770Y008452D01*
X032808Y008422D01*
X032843Y008389D01*
X032875Y008353D01*
X032905Y008315D01*
X032931Y008274D01*
X032953Y008231D01*
X032973Y008187D01*
X032988Y008142D01*
X033000Y008095D01*
X033008Y008047D01*
X033012Y007999D01*
X033012Y007951D01*
X033008Y007903D01*
X033000Y007855D01*
X032988Y007808D01*
X032973Y007763D01*
X032953Y007719D01*
X032931Y007676D01*
X032905Y007635D01*
X032875Y007597D01*
X032843Y007561D01*
X032808Y007528D01*
X032770Y007498D01*
X032730Y007471D01*
X032688Y007448D01*
X032644Y007428D01*
X032599Y007411D01*
X032553Y007399D01*
X032505Y007390D01*
X032457Y007385D01*
X032409Y007384D01*
X032361Y007387D01*
X032313Y007394D01*
X032266Y007405D01*
X032220Y007419D01*
X032175Y007437D01*
X032132Y007459D01*
X032091Y007484D01*
X032053Y007513D01*
X032016Y007545D01*
X031982Y007579D01*
X031952Y007616D01*
X031924Y007655D01*
X031899Y007697D01*
X031879Y007741D01*
X031861Y007786D01*
X031848Y007832D01*
X031838Y007879D01*
X031832Y007927D01*
X031830Y007975D01*
X036555Y007975D02*
X036557Y008023D01*
X036563Y008071D01*
X036573Y008118D01*
X036586Y008164D01*
X036604Y008209D01*
X036624Y008253D01*
X036649Y008295D01*
X036677Y008334D01*
X036707Y008371D01*
X036741Y008405D01*
X036778Y008437D01*
X036816Y008466D01*
X036857Y008491D01*
X036900Y008513D01*
X036945Y008531D01*
X036991Y008545D01*
X037038Y008556D01*
X037086Y008563D01*
X037134Y008566D01*
X037182Y008565D01*
X037230Y008560D01*
X037278Y008551D01*
X037324Y008539D01*
X037369Y008522D01*
X037413Y008502D01*
X037455Y008479D01*
X037495Y008452D01*
X037533Y008422D01*
X037568Y008389D01*
X037600Y008353D01*
X037630Y008315D01*
X037656Y008274D01*
X037678Y008231D01*
X037698Y008187D01*
X037713Y008142D01*
X037725Y008095D01*
X037733Y008047D01*
X037737Y007999D01*
X037737Y007951D01*
X037733Y007903D01*
X037725Y007855D01*
X037713Y007808D01*
X037698Y007763D01*
X037678Y007719D01*
X037656Y007676D01*
X037630Y007635D01*
X037600Y007597D01*
X037568Y007561D01*
X037533Y007528D01*
X037495Y007498D01*
X037455Y007471D01*
X037413Y007448D01*
X037369Y007428D01*
X037324Y007411D01*
X037278Y007399D01*
X037230Y007390D01*
X037182Y007385D01*
X037134Y007384D01*
X037086Y007387D01*
X037038Y007394D01*
X036991Y007405D01*
X036945Y007419D01*
X036900Y007437D01*
X036857Y007459D01*
X036816Y007484D01*
X036778Y007513D01*
X036741Y007545D01*
X036707Y007579D01*
X036677Y007616D01*
X036649Y007655D01*
X036624Y007697D01*
X036604Y007741D01*
X036586Y007786D01*
X036573Y007832D01*
X036563Y007879D01*
X036557Y007927D01*
X036555Y007975D01*
X041533Y007975D02*
X041535Y008018D01*
X041541Y008061D01*
X041551Y008103D01*
X041564Y008144D01*
X041581Y008184D01*
X041602Y008222D01*
X041626Y008258D01*
X041654Y008291D01*
X041684Y008322D01*
X041717Y008350D01*
X041752Y008375D01*
X041789Y008397D01*
X041829Y008415D01*
X041869Y008429D01*
X041911Y008440D01*
X041954Y008447D01*
X041997Y008450D01*
X042040Y008449D01*
X042083Y008444D01*
X042126Y008435D01*
X042167Y008423D01*
X042207Y008406D01*
X042245Y008386D01*
X042282Y008363D01*
X042316Y008337D01*
X042348Y008307D01*
X042376Y008275D01*
X042402Y008240D01*
X042425Y008203D01*
X042444Y008164D01*
X042459Y008124D01*
X042471Y008082D01*
X042479Y008040D01*
X042483Y007997D01*
X042483Y007953D01*
X042479Y007910D01*
X042471Y007868D01*
X042459Y007826D01*
X042444Y007786D01*
X042425Y007747D01*
X042402Y007710D01*
X042376Y007675D01*
X042348Y007643D01*
X042316Y007613D01*
X042282Y007587D01*
X042246Y007564D01*
X042207Y007544D01*
X042167Y007527D01*
X042126Y007515D01*
X042083Y007506D01*
X042040Y007501D01*
X041997Y007500D01*
X041954Y007503D01*
X041911Y007510D01*
X041869Y007521D01*
X041829Y007535D01*
X041789Y007553D01*
X041752Y007575D01*
X041717Y007600D01*
X041684Y007628D01*
X041654Y007659D01*
X041626Y007692D01*
X041602Y007728D01*
X041581Y007766D01*
X041564Y007806D01*
X041551Y007847D01*
X041541Y007889D01*
X041535Y007932D01*
X041533Y007975D01*
X044407Y007975D02*
X044409Y008018D01*
X044415Y008061D01*
X044425Y008103D01*
X044438Y008144D01*
X044455Y008184D01*
X044476Y008222D01*
X044500Y008258D01*
X044528Y008291D01*
X044558Y008322D01*
X044591Y008350D01*
X044626Y008375D01*
X044663Y008397D01*
X044703Y008415D01*
X044743Y008429D01*
X044785Y008440D01*
X044828Y008447D01*
X044871Y008450D01*
X044914Y008449D01*
X044957Y008444D01*
X045000Y008435D01*
X045041Y008423D01*
X045081Y008406D01*
X045119Y008386D01*
X045156Y008363D01*
X045190Y008337D01*
X045222Y008307D01*
X045250Y008275D01*
X045276Y008240D01*
X045299Y008203D01*
X045318Y008164D01*
X045333Y008124D01*
X045345Y008082D01*
X045353Y008040D01*
X045357Y007997D01*
X045357Y007953D01*
X045353Y007910D01*
X045345Y007868D01*
X045333Y007826D01*
X045318Y007786D01*
X045299Y007747D01*
X045276Y007710D01*
X045250Y007675D01*
X045222Y007643D01*
X045190Y007613D01*
X045156Y007587D01*
X045120Y007564D01*
X045081Y007544D01*
X045041Y007527D01*
X045000Y007515D01*
X044957Y007506D01*
X044914Y007501D01*
X044871Y007500D01*
X044828Y007503D01*
X044785Y007510D01*
X044743Y007521D01*
X044703Y007535D01*
X044663Y007553D01*
X044626Y007575D01*
X044591Y007600D01*
X044558Y007628D01*
X044528Y007659D01*
X044500Y007692D01*
X044476Y007728D01*
X044455Y007766D01*
X044438Y007806D01*
X044425Y007847D01*
X044415Y007889D01*
X044409Y007932D01*
X044407Y007975D01*
M02*
