G75*
G70*
%OFA0B0*%
%FSLAX24Y24*%
%IPPOS*%
%LPD*%
%AMOC8*
5,1,8,0,0,1.08239X$1,22.5*
%
%ADD10C,0.0552*%
%ADD11R,0.0580X0.1230*%
%ADD12C,0.1030*%
%ADD13C,0.0671*%
%ADD14C,0.0456*%
D10*
X023681Y002286D03*
X024291Y002128D03*
X024803Y002502D03*
X024154Y002857D03*
X023425Y002857D03*
X023681Y003428D03*
X024291Y003585D03*
X024803Y003211D03*
X030512Y002857D03*
X030768Y003428D03*
X031378Y003585D03*
X031890Y003211D03*
X031240Y002857D03*
X031890Y002502D03*
X031378Y002128D03*
X030768Y002286D03*
X031240Y005022D03*
X032028Y005022D03*
X032815Y005022D03*
X033603Y005022D03*
X034390Y005022D03*
X035177Y005022D03*
X035965Y005022D03*
X036752Y005022D03*
X037540Y005022D03*
X038327Y005022D03*
X038327Y006006D03*
X037540Y006006D03*
X036752Y006006D03*
X035965Y006006D03*
X035177Y006006D03*
X034390Y006006D03*
X033603Y006006D03*
X032815Y006006D03*
X032028Y006006D03*
X031240Y006006D03*
X037599Y002857D03*
X038327Y002857D03*
X038977Y003211D03*
X038465Y003585D03*
X037854Y003428D03*
X038977Y002502D03*
X038465Y002128D03*
X037854Y002286D03*
X044685Y002857D03*
X045414Y002857D03*
X046063Y003211D03*
X045551Y003585D03*
X044941Y003428D03*
X046063Y002502D03*
X045551Y002128D03*
X044941Y002286D03*
D11*
X044036Y003998D03*
X042854Y003998D03*
X042854Y005821D03*
X044036Y005821D03*
X026713Y005821D03*
X025532Y005821D03*
X025532Y003998D03*
X026713Y003998D03*
D12*
X027559Y007975D03*
X024685Y007975D03*
X042008Y007975D03*
X044882Y007975D03*
D13*
X022185Y007581D03*
X027303Y002857D03*
X034390Y002857D03*
X041477Y002857D03*
X048563Y002857D03*
D14*
X046595Y005613D03*
X042264Y004825D03*
X041477Y004825D03*
X039508Y005613D03*
X039902Y007581D03*
X036752Y008762D03*
X034390Y008762D03*
X028563Y006557D03*
M02*
