G75*
G70*
%OFA0B0*%
%FSLAX24Y24*%
%IPPOS*%
%LPD*%
%AMOC8*
5,1,8,0,0,1.08239X$1,22.5*
%
%ADD10C,0.0000*%
%ADD11C,0.0472*%
%ADD12C,0.0591*%
%ADD13R,0.0500X0.1000*%
%ADD14R,0.1350X0.0650*%
%ADD15C,0.0160*%
%ADD16C,0.0376*%
D10*
X021004Y000888D02*
X021004Y009156D01*
X021006Y009210D01*
X021011Y009263D01*
X021020Y009316D01*
X021033Y009368D01*
X021049Y009420D01*
X021069Y009470D01*
X021092Y009518D01*
X021119Y009565D01*
X021148Y009610D01*
X021181Y009653D01*
X021216Y009693D01*
X021254Y009731D01*
X021294Y009766D01*
X021337Y009799D01*
X021382Y009828D01*
X021429Y009855D01*
X021477Y009878D01*
X021527Y009898D01*
X021579Y009914D01*
X021631Y009927D01*
X021684Y009936D01*
X021737Y009941D01*
X021791Y009943D01*
X048563Y009943D01*
X048617Y009941D01*
X048670Y009936D01*
X048723Y009927D01*
X048775Y009914D01*
X048827Y009898D01*
X048877Y009878D01*
X048925Y009855D01*
X048972Y009828D01*
X049017Y009799D01*
X049060Y009766D01*
X049100Y009731D01*
X049138Y009693D01*
X049173Y009653D01*
X049206Y009610D01*
X049235Y009565D01*
X049262Y009518D01*
X049285Y009470D01*
X049305Y009420D01*
X049321Y009368D01*
X049334Y009316D01*
X049343Y009263D01*
X049348Y009210D01*
X049350Y009156D01*
X049351Y009156D02*
X049351Y000888D01*
X049350Y000888D02*
X049348Y000834D01*
X049343Y000781D01*
X049334Y000728D01*
X049321Y000676D01*
X049305Y000624D01*
X049285Y000574D01*
X049262Y000526D01*
X049235Y000479D01*
X049206Y000434D01*
X049173Y000391D01*
X049138Y000351D01*
X049100Y000313D01*
X049060Y000278D01*
X049017Y000245D01*
X048972Y000216D01*
X048925Y000189D01*
X048877Y000166D01*
X048827Y000146D01*
X048775Y000130D01*
X048723Y000117D01*
X048670Y000108D01*
X048617Y000103D01*
X048563Y000101D01*
X021791Y000101D01*
X021737Y000103D01*
X021684Y000108D01*
X021631Y000117D01*
X021579Y000130D01*
X021527Y000146D01*
X021477Y000166D01*
X021429Y000189D01*
X021382Y000216D01*
X021337Y000245D01*
X021294Y000278D01*
X021254Y000313D01*
X021216Y000351D01*
X021181Y000391D01*
X021148Y000434D01*
X021119Y000479D01*
X021092Y000526D01*
X021069Y000574D01*
X021049Y000624D01*
X021033Y000676D01*
X021020Y000728D01*
X021011Y000781D01*
X021006Y000834D01*
X021004Y000888D01*
X031830Y007975D02*
X031832Y008023D01*
X031838Y008071D01*
X031848Y008118D01*
X031861Y008164D01*
X031879Y008209D01*
X031899Y008253D01*
X031924Y008295D01*
X031952Y008334D01*
X031982Y008371D01*
X032016Y008405D01*
X032053Y008437D01*
X032091Y008466D01*
X032132Y008491D01*
X032175Y008513D01*
X032220Y008531D01*
X032266Y008545D01*
X032313Y008556D01*
X032361Y008563D01*
X032409Y008566D01*
X032457Y008565D01*
X032505Y008560D01*
X032553Y008551D01*
X032599Y008539D01*
X032644Y008522D01*
X032688Y008502D01*
X032730Y008479D01*
X032770Y008452D01*
X032808Y008422D01*
X032843Y008389D01*
X032875Y008353D01*
X032905Y008315D01*
X032931Y008274D01*
X032953Y008231D01*
X032973Y008187D01*
X032988Y008142D01*
X033000Y008095D01*
X033008Y008047D01*
X033012Y007999D01*
X033012Y007951D01*
X033008Y007903D01*
X033000Y007855D01*
X032988Y007808D01*
X032973Y007763D01*
X032953Y007719D01*
X032931Y007676D01*
X032905Y007635D01*
X032875Y007597D01*
X032843Y007561D01*
X032808Y007528D01*
X032770Y007498D01*
X032730Y007471D01*
X032688Y007448D01*
X032644Y007428D01*
X032599Y007411D01*
X032553Y007399D01*
X032505Y007390D01*
X032457Y007385D01*
X032409Y007384D01*
X032361Y007387D01*
X032313Y007394D01*
X032266Y007405D01*
X032220Y007419D01*
X032175Y007437D01*
X032132Y007459D01*
X032091Y007484D01*
X032053Y007513D01*
X032016Y007545D01*
X031982Y007579D01*
X031952Y007616D01*
X031924Y007655D01*
X031899Y007697D01*
X031879Y007741D01*
X031861Y007786D01*
X031848Y007832D01*
X031838Y007879D01*
X031832Y007927D01*
X031830Y007975D01*
X036555Y007975D02*
X036557Y008023D01*
X036563Y008071D01*
X036573Y008118D01*
X036586Y008164D01*
X036604Y008209D01*
X036624Y008253D01*
X036649Y008295D01*
X036677Y008334D01*
X036707Y008371D01*
X036741Y008405D01*
X036778Y008437D01*
X036816Y008466D01*
X036857Y008491D01*
X036900Y008513D01*
X036945Y008531D01*
X036991Y008545D01*
X037038Y008556D01*
X037086Y008563D01*
X037134Y008566D01*
X037182Y008565D01*
X037230Y008560D01*
X037278Y008551D01*
X037324Y008539D01*
X037369Y008522D01*
X037413Y008502D01*
X037455Y008479D01*
X037495Y008452D01*
X037533Y008422D01*
X037568Y008389D01*
X037600Y008353D01*
X037630Y008315D01*
X037656Y008274D01*
X037678Y008231D01*
X037698Y008187D01*
X037713Y008142D01*
X037725Y008095D01*
X037733Y008047D01*
X037737Y007999D01*
X037737Y007951D01*
X037733Y007903D01*
X037725Y007855D01*
X037713Y007808D01*
X037698Y007763D01*
X037678Y007719D01*
X037656Y007676D01*
X037630Y007635D01*
X037600Y007597D01*
X037568Y007561D01*
X037533Y007528D01*
X037495Y007498D01*
X037455Y007471D01*
X037413Y007448D01*
X037369Y007428D01*
X037324Y007411D01*
X037278Y007399D01*
X037230Y007390D01*
X037182Y007385D01*
X037134Y007384D01*
X037086Y007387D01*
X037038Y007394D01*
X036991Y007405D01*
X036945Y007419D01*
X036900Y007437D01*
X036857Y007459D01*
X036816Y007484D01*
X036778Y007513D01*
X036741Y007545D01*
X036707Y007579D01*
X036677Y007616D01*
X036649Y007655D01*
X036624Y007697D01*
X036604Y007741D01*
X036586Y007786D01*
X036573Y007832D01*
X036563Y007879D01*
X036557Y007927D01*
X036555Y007975D01*
D11*
X036752Y006006D03*
X037540Y006006D03*
X038327Y006006D03*
X038327Y005022D03*
X037540Y005022D03*
X036752Y005022D03*
X035965Y005022D03*
X035177Y005022D03*
X034390Y005022D03*
X033603Y005022D03*
X032815Y005022D03*
X032028Y005022D03*
X031240Y005022D03*
X031240Y006006D03*
X032028Y006006D03*
X032815Y006006D03*
X033603Y006006D03*
X034390Y006006D03*
X035177Y006006D03*
X035965Y006006D03*
X038465Y003585D03*
X037854Y003428D03*
X037599Y002857D03*
X038327Y002857D03*
X038977Y003211D03*
X038977Y002502D03*
X038465Y002128D03*
X037854Y002286D03*
X031890Y002502D03*
X031378Y002128D03*
X030768Y002286D03*
X030512Y002857D03*
X030768Y003428D03*
X031378Y003585D03*
X031890Y003211D03*
X031240Y002857D03*
X024803Y002502D03*
X024291Y002128D03*
X023681Y002286D03*
X023425Y002857D03*
X024154Y002857D03*
X024803Y003211D03*
X024291Y003585D03*
X023681Y003428D03*
X044685Y002857D03*
X045414Y002857D03*
X046063Y003211D03*
X045551Y003585D03*
X044941Y003428D03*
X046063Y002502D03*
X045551Y002128D03*
X044941Y002286D03*
D12*
X041477Y002857D03*
X034390Y002857D03*
X027303Y002857D03*
X022185Y007581D03*
X048563Y002857D03*
D13*
X045217Y004550D03*
X044036Y004550D03*
X044036Y008250D03*
X045217Y008250D03*
X026319Y008250D03*
X025138Y008250D03*
X025138Y004550D03*
X026319Y004550D03*
D14*
X028149Y006400D03*
X023309Y006400D03*
X042206Y006400D03*
X047046Y006400D03*
D15*
X047961Y006443D02*
X048957Y006443D01*
X048957Y006601D02*
X047961Y006601D01*
X047961Y006760D02*
X048957Y006760D01*
X048957Y006918D02*
X047867Y006918D01*
X047857Y006928D02*
X047769Y006965D01*
X046323Y006965D01*
X046235Y006928D01*
X046167Y006861D01*
X046131Y006773D01*
X046131Y006027D01*
X046167Y005939D01*
X046235Y005872D01*
X046244Y005868D01*
X046232Y005855D01*
X046167Y005698D01*
X046167Y005637D01*
X045683Y005154D01*
X045670Y005186D01*
X045603Y005253D01*
X045514Y005290D01*
X044919Y005290D01*
X044831Y005253D01*
X044763Y005186D01*
X044727Y005098D01*
X044727Y004591D01*
X044466Y004330D01*
X044466Y004505D01*
X044081Y004505D01*
X044081Y004595D01*
X044466Y004595D01*
X044466Y005074D01*
X044453Y005119D01*
X044430Y005161D01*
X044396Y005194D01*
X044355Y005218D01*
X044309Y005230D01*
X044081Y005230D01*
X044081Y004595D01*
X043991Y004595D01*
X043991Y005230D01*
X043762Y005230D01*
X043716Y005218D01*
X043675Y005194D01*
X043642Y005161D01*
X043618Y005119D01*
X043606Y005074D01*
X043606Y004595D01*
X043990Y004595D01*
X043990Y004505D01*
X043606Y004505D01*
X043606Y004026D01*
X043618Y003981D01*
X043627Y003964D01*
X042790Y003964D01*
X042355Y004399D01*
X042506Y004462D01*
X042627Y004583D01*
X042692Y004740D01*
X042692Y004801D01*
X045398Y007507D01*
X045401Y007510D01*
X045514Y007510D01*
X045603Y007547D01*
X045670Y007614D01*
X045707Y007702D01*
X045707Y008798D01*
X045670Y008886D01*
X045603Y008953D01*
X045514Y008990D01*
X044919Y008990D01*
X044831Y008953D01*
X044763Y008886D01*
X044727Y008798D01*
X044727Y007740D01*
X043121Y006135D01*
X043121Y006773D01*
X043085Y006861D01*
X043017Y006928D01*
X042929Y006965D01*
X042100Y006965D01*
X043065Y007930D01*
X043546Y007930D01*
X043546Y007702D01*
X043582Y007614D01*
X043650Y007547D01*
X043738Y007510D01*
X044333Y007510D01*
X044422Y007547D01*
X044489Y007614D01*
X044526Y007702D01*
X044526Y008798D01*
X044489Y008886D01*
X044422Y008953D01*
X044333Y008990D01*
X043738Y008990D01*
X043650Y008953D01*
X043582Y008886D01*
X043546Y008798D01*
X043546Y008570D01*
X042996Y008570D01*
X042869Y008570D01*
X042752Y008521D01*
X041509Y007278D01*
X041446Y007430D01*
X041325Y007550D01*
X041168Y007615D01*
X040998Y007615D01*
X040840Y007550D01*
X040797Y007507D01*
X037870Y007507D01*
X037841Y007496D01*
X037850Y007504D01*
X037976Y007810D01*
X037976Y008140D01*
X037850Y008445D01*
X037616Y008679D01*
X037311Y008805D01*
X036981Y008805D01*
X036675Y008679D01*
X036442Y008445D01*
X036315Y008140D01*
X036315Y007810D01*
X036442Y007504D01*
X036675Y007271D01*
X036981Y007144D01*
X037311Y007144D01*
X037527Y007234D01*
X037407Y007114D01*
X034375Y007114D01*
X034571Y007310D01*
X034661Y007400D01*
X034710Y007517D01*
X034710Y008477D01*
X034753Y008520D01*
X034818Y008677D01*
X034818Y008847D01*
X034753Y009005D01*
X034632Y009125D01*
X034475Y009190D01*
X034305Y009190D01*
X034147Y009125D01*
X034027Y009005D01*
X033962Y008847D01*
X033962Y008677D01*
X034027Y008520D01*
X034070Y008477D01*
X034070Y007714D01*
X032938Y006581D01*
X032897Y006482D01*
X032791Y006482D01*
X032040Y007234D01*
X032256Y007144D01*
X032587Y007144D01*
X032892Y007271D01*
X033125Y007504D01*
X033252Y007810D01*
X033252Y008140D01*
X033125Y008445D01*
X032892Y008679D01*
X032587Y008805D01*
X032256Y008805D01*
X031951Y008679D01*
X031717Y008445D01*
X031591Y008140D01*
X031591Y007810D01*
X031717Y007504D01*
X031726Y007496D01*
X031698Y007507D01*
X031570Y007507D01*
X027209Y007507D01*
X027082Y007507D01*
X026965Y007459D01*
X024867Y005361D01*
X024837Y005289D01*
X024752Y005253D01*
X024684Y005186D01*
X024648Y005098D01*
X024648Y004002D01*
X024684Y003914D01*
X024752Y003847D01*
X024840Y003810D01*
X025436Y003810D01*
X025524Y003847D01*
X025591Y003914D01*
X025628Y004002D01*
X025628Y005098D01*
X025593Y005182D01*
X027269Y006858D01*
X027233Y006773D01*
X027233Y006027D01*
X027270Y005939D01*
X027337Y005872D01*
X027426Y005835D01*
X028871Y005835D01*
X028960Y005872D01*
X029027Y005939D01*
X029064Y006027D01*
X029064Y006773D01*
X029027Y006861D01*
X029020Y006867D01*
X031501Y006867D01*
X031900Y006469D01*
X031758Y006410D01*
X031634Y006286D01*
X031510Y006410D01*
X031335Y006482D01*
X031146Y006482D01*
X030971Y006410D01*
X030837Y006276D01*
X030764Y006101D01*
X030764Y005912D01*
X030837Y005737D01*
X030971Y005603D01*
X031146Y005530D01*
X031335Y005530D01*
X031510Y005603D01*
X031634Y005727D01*
X031758Y005603D01*
X031933Y005530D01*
X032122Y005530D01*
X032297Y005603D01*
X032421Y005727D01*
X032545Y005603D01*
X032720Y005530D01*
X032889Y005530D01*
X032889Y005498D01*
X032720Y005498D01*
X032545Y005426D01*
X032421Y005302D01*
X032297Y005426D01*
X032122Y005498D01*
X031933Y005498D01*
X031758Y005426D01*
X031634Y005302D01*
X031510Y005426D01*
X031335Y005498D01*
X031146Y005498D01*
X030971Y005426D01*
X030837Y005292D01*
X030764Y005117D01*
X030764Y004927D01*
X030837Y004752D01*
X030837Y004751D01*
X030783Y004751D01*
X030665Y004703D01*
X030575Y004613D01*
X028352Y002389D01*
X027573Y002389D01*
X027606Y002403D01*
X027757Y002553D01*
X027839Y002750D01*
X027839Y002963D01*
X027757Y003160D01*
X027606Y003310D01*
X027410Y003392D01*
X027197Y003392D01*
X027000Y003310D01*
X026850Y003160D01*
X026768Y002963D01*
X026768Y002750D01*
X026829Y002602D01*
X025949Y003482D01*
X025832Y003531D01*
X025704Y003531D01*
X025157Y003531D01*
X025073Y003615D01*
X024898Y003687D01*
X024765Y003687D01*
X024695Y003855D01*
X024561Y003989D01*
X024386Y004061D01*
X024197Y004061D01*
X024022Y003989D01*
X023890Y003857D01*
X023776Y003904D01*
X023586Y003904D01*
X023411Y003831D01*
X023278Y003697D01*
X023205Y003522D01*
X023205Y003333D01*
X023223Y003288D01*
X023156Y003260D01*
X023022Y003126D01*
X022949Y002951D01*
X022949Y002762D01*
X023022Y002587D01*
X023156Y002453D01*
X023223Y002425D01*
X023205Y002381D01*
X023205Y002191D01*
X023278Y002016D01*
X023411Y001882D01*
X023586Y001810D01*
X023776Y001810D01*
X023890Y001857D01*
X024022Y001725D01*
X024197Y001652D01*
X024386Y001652D01*
X024561Y001725D01*
X024695Y001859D01*
X024768Y002034D01*
X024768Y002087D01*
X024771Y002086D01*
X024803Y002086D01*
X024803Y002502D01*
X024803Y002502D01*
X024803Y002086D01*
X024836Y002086D01*
X024901Y002096D01*
X024963Y002117D01*
X025021Y002146D01*
X025074Y002185D01*
X025121Y002231D01*
X025159Y002284D01*
X025189Y002343D01*
X025209Y002405D01*
X025219Y002470D01*
X025219Y002502D01*
X024804Y002502D01*
X024804Y002503D01*
X025219Y002503D01*
X025219Y002535D01*
X025209Y002600D01*
X025189Y002662D01*
X025159Y002720D01*
X025121Y002774D01*
X025080Y002814D01*
X025157Y002891D01*
X025635Y002891D01*
X026638Y001888D01*
X026728Y001798D01*
X026846Y001749D01*
X028421Y001749D01*
X028548Y001749D01*
X028666Y001798D01*
X030292Y003424D01*
X030292Y003333D01*
X030310Y003288D01*
X030242Y003260D01*
X030108Y003126D01*
X030036Y002951D01*
X030036Y002762D01*
X030108Y002587D01*
X030242Y002453D01*
X030310Y002425D01*
X030292Y002381D01*
X030292Y002191D01*
X030364Y002016D01*
X030498Y001882D01*
X030673Y001810D01*
X030863Y001810D01*
X030976Y001857D01*
X031108Y001725D01*
X031283Y001652D01*
X031473Y001652D01*
X031648Y001725D01*
X031782Y001859D01*
X031854Y002034D01*
X031854Y002087D01*
X031857Y002086D01*
X031890Y002086D01*
X031923Y002086D01*
X031987Y002096D01*
X032050Y002117D01*
X032108Y002146D01*
X032161Y002185D01*
X032207Y002231D01*
X032246Y002284D01*
X032276Y002343D01*
X032296Y002405D01*
X032306Y002470D01*
X032306Y002502D01*
X031890Y002502D01*
X031890Y002086D01*
X031890Y002502D01*
X031890Y002502D01*
X031890Y002503D01*
X032306Y002503D01*
X032306Y002535D01*
X032296Y002600D01*
X032276Y002662D01*
X032246Y002720D01*
X032207Y002774D01*
X032167Y002814D01*
X032243Y002891D01*
X032328Y002891D01*
X034209Y001011D01*
X034326Y000962D01*
X034454Y000962D01*
X039178Y000962D01*
X039296Y001011D01*
X039386Y001101D01*
X039508Y001223D01*
X039720Y001011D01*
X039838Y000962D01*
X039965Y000962D01*
X045871Y000962D01*
X045989Y001011D01*
X046079Y001101D01*
X046776Y001798D01*
X046866Y001888D01*
X046915Y002006D01*
X046915Y002743D01*
X046866Y002861D01*
X046776Y002951D01*
X046539Y003187D01*
X046539Y003306D01*
X046467Y003481D01*
X046333Y003615D01*
X046158Y003687D01*
X045968Y003687D01*
X045957Y003683D01*
X045937Y003745D01*
X045907Y003803D01*
X045869Y003856D01*
X045822Y003902D01*
X045769Y003941D01*
X045711Y003971D01*
X045696Y003976D01*
X045707Y004002D01*
X045707Y004276D01*
X045713Y004279D01*
X046619Y005184D01*
X046680Y005184D01*
X046837Y005250D01*
X046958Y005370D01*
X047023Y005527D01*
X047023Y005698D01*
X046966Y005835D01*
X047769Y005835D01*
X047857Y005872D01*
X047925Y005939D01*
X047961Y006027D01*
X047961Y006773D01*
X047925Y006861D01*
X047857Y006928D01*
X048957Y007077D02*
X044968Y007077D01*
X045127Y007235D02*
X048957Y007235D01*
X048957Y007394D02*
X045285Y007394D01*
X045608Y007552D02*
X048957Y007552D01*
X048957Y007711D02*
X045707Y007711D01*
X045707Y007869D02*
X048957Y007869D01*
X048957Y008028D02*
X045707Y008028D01*
X045707Y008186D02*
X048957Y008186D01*
X048957Y008345D02*
X045707Y008345D01*
X045707Y008504D02*
X048957Y008504D01*
X048957Y008662D02*
X045707Y008662D01*
X045697Y008821D02*
X048957Y008821D01*
X048957Y008979D02*
X045540Y008979D01*
X044893Y008979D02*
X044359Y008979D01*
X044516Y008821D02*
X044736Y008821D01*
X044727Y008662D02*
X044526Y008662D01*
X044526Y008504D02*
X044727Y008504D01*
X044727Y008345D02*
X044526Y008345D01*
X044526Y008186D02*
X044727Y008186D01*
X044727Y008028D02*
X044526Y008028D01*
X044526Y007869D02*
X044727Y007869D01*
X044697Y007711D02*
X044526Y007711D01*
X044539Y007552D02*
X044427Y007552D01*
X044380Y007394D02*
X042529Y007394D01*
X042688Y007552D02*
X043644Y007552D01*
X043546Y007711D02*
X042846Y007711D01*
X043005Y007869D02*
X043546Y007869D01*
X044036Y008250D02*
X042933Y008250D01*
X041477Y006794D01*
X037933Y006794D01*
X037540Y006400D01*
X035729Y006400D01*
X035571Y006243D01*
X035571Y005416D01*
X035177Y005022D01*
X035891Y005498D02*
X035891Y005597D01*
X035932Y005590D01*
X035964Y005590D01*
X035964Y006006D01*
X035965Y006006D01*
X035965Y006006D01*
X036381Y006006D01*
X036752Y006006D01*
X036752Y006006D01*
X036752Y005590D01*
X036719Y005590D01*
X036655Y005600D01*
X036592Y005621D01*
X036534Y005650D01*
X036481Y005689D01*
X036435Y005735D01*
X036396Y005788D01*
X036366Y005846D01*
X036358Y005871D01*
X036350Y005846D01*
X036321Y005788D01*
X036282Y005735D01*
X036236Y005689D01*
X036183Y005650D01*
X036124Y005621D01*
X036062Y005600D01*
X035997Y005590D01*
X035965Y005590D01*
X035965Y006006D01*
X036381Y006006D01*
X036752Y006006D01*
X036752Y005590D01*
X036785Y005590D01*
X036850Y005600D01*
X036912Y005621D01*
X036970Y005650D01*
X037023Y005689D01*
X037070Y005735D01*
X037108Y005788D01*
X037112Y005795D01*
X037136Y005737D01*
X037270Y005603D01*
X037445Y005530D01*
X037634Y005530D01*
X037809Y005603D01*
X037933Y005727D01*
X038057Y005603D01*
X038232Y005530D01*
X038422Y005530D01*
X038597Y005603D01*
X038680Y005686D01*
X039080Y005686D01*
X039080Y005527D01*
X039145Y005370D01*
X039188Y005327D01*
X039188Y004958D01*
X038982Y004751D01*
X038730Y004751D01*
X038731Y004752D01*
X038803Y004927D01*
X038803Y005117D01*
X038731Y005292D01*
X038597Y005426D01*
X038422Y005498D01*
X038232Y005498D01*
X038057Y005426D01*
X037933Y005302D01*
X037809Y005426D01*
X037634Y005498D01*
X037445Y005498D01*
X037270Y005426D01*
X037146Y005302D01*
X037022Y005426D01*
X036847Y005498D01*
X036657Y005498D01*
X036482Y005426D01*
X036358Y005302D01*
X036234Y005426D01*
X036059Y005498D01*
X035891Y005498D01*
X035964Y005650D02*
X035965Y005650D01*
X035964Y005808D02*
X035965Y005808D01*
X035964Y005967D02*
X035965Y005967D01*
X036182Y005650D02*
X036535Y005650D01*
X036641Y005491D02*
X036076Y005491D01*
X036327Y005333D02*
X036389Y005333D01*
X036752Y005022D02*
X034587Y002857D01*
X034390Y002857D01*
X033057Y002162D02*
X032129Y002162D01*
X032264Y002320D02*
X032899Y002320D01*
X032740Y002479D02*
X032306Y002479D01*
X032284Y002637D02*
X032582Y002637D01*
X032423Y002796D02*
X032185Y002796D01*
X031890Y002479D02*
X031890Y002479D01*
X031890Y002320D02*
X031890Y002320D01*
X031890Y002162D02*
X031890Y002162D01*
X031842Y002003D02*
X033216Y002003D01*
X033374Y001845D02*
X031768Y001845D01*
X031555Y001686D02*
X033533Y001686D01*
X033692Y001528D02*
X021398Y001528D01*
X021398Y001686D02*
X024114Y001686D01*
X023902Y001845D02*
X023861Y001845D01*
X023502Y001845D02*
X021398Y001845D01*
X021398Y002003D02*
X023290Y002003D01*
X023217Y002162D02*
X021398Y002162D01*
X021398Y002320D02*
X023205Y002320D01*
X023130Y002479D02*
X021398Y002479D01*
X021398Y002637D02*
X023001Y002637D01*
X022949Y002796D02*
X021398Y002796D01*
X021398Y002955D02*
X022950Y002955D01*
X023016Y003113D02*
X021398Y003113D01*
X021398Y003272D02*
X023183Y003272D01*
X023205Y003430D02*
X021398Y003430D01*
X021398Y003589D02*
X023233Y003589D01*
X023328Y003747D02*
X021398Y003747D01*
X021398Y003906D02*
X023939Y003906D01*
X024644Y003906D02*
X024693Y003906D01*
X024648Y004064D02*
X021398Y004064D01*
X021398Y004223D02*
X024648Y004223D01*
X024648Y004381D02*
X021398Y004381D01*
X021398Y004540D02*
X024648Y004540D01*
X024648Y004699D02*
X021398Y004699D01*
X021398Y004857D02*
X024648Y004857D01*
X024648Y005016D02*
X021398Y005016D01*
X021398Y005174D02*
X024680Y005174D01*
X024855Y005333D02*
X021398Y005333D01*
X021398Y005491D02*
X024997Y005491D01*
X025156Y005650D02*
X021398Y005650D01*
X021398Y005808D02*
X025314Y005808D01*
X025473Y005967D02*
X024199Y005967D01*
X024187Y005939D02*
X024224Y006027D01*
X024224Y006773D01*
X024187Y006861D01*
X024120Y006928D01*
X024031Y006965D01*
X022586Y006965D01*
X022497Y006928D01*
X022430Y006861D01*
X022393Y006773D01*
X022393Y006027D01*
X022430Y005939D01*
X022497Y005872D01*
X022586Y005835D01*
X024031Y005835D01*
X024120Y005872D01*
X024187Y005939D01*
X024224Y006125D02*
X025631Y006125D01*
X025790Y006284D02*
X024224Y006284D01*
X024224Y006443D02*
X025948Y006443D01*
X026107Y006601D02*
X024224Y006601D01*
X024224Y006760D02*
X026265Y006760D01*
X026424Y006918D02*
X024130Y006918D01*
X024777Y007606D02*
X024818Y007582D01*
X024864Y007570D01*
X025093Y007570D01*
X025093Y008205D01*
X025183Y008205D01*
X025183Y008295D01*
X025568Y008295D01*
X025568Y008774D01*
X025556Y008819D01*
X025532Y008861D01*
X025498Y008894D01*
X025457Y008918D01*
X025412Y008930D01*
X025183Y008930D01*
X025183Y008295D01*
X025093Y008295D01*
X025093Y008930D01*
X024864Y008930D01*
X024818Y008918D01*
X024777Y008894D01*
X024744Y008861D01*
X024720Y008819D01*
X024708Y008774D01*
X024708Y008295D01*
X025093Y008295D01*
X025093Y008205D01*
X024708Y008205D01*
X024708Y007726D01*
X024720Y007681D01*
X024744Y007639D01*
X024777Y007606D01*
X024712Y007711D02*
X021398Y007711D01*
X021398Y007869D02*
X024708Y007869D01*
X024708Y008028D02*
X021398Y008028D01*
X021398Y008186D02*
X024708Y008186D01*
X024708Y008345D02*
X021398Y008345D01*
X021398Y008504D02*
X024708Y008504D01*
X024708Y008662D02*
X021398Y008662D01*
X021398Y008821D02*
X024721Y008821D01*
X025093Y008821D02*
X025183Y008821D01*
X025183Y008662D02*
X025093Y008662D01*
X025093Y008504D02*
X025183Y008504D01*
X025183Y008345D02*
X025093Y008345D01*
X025093Y008186D02*
X025183Y008186D01*
X025183Y008205D02*
X025183Y007570D01*
X025412Y007570D01*
X025457Y007582D01*
X025498Y007606D01*
X025532Y007639D01*
X025556Y007681D01*
X025568Y007726D01*
X025568Y008205D01*
X025183Y008205D01*
X025183Y008028D02*
X025093Y008028D01*
X025093Y007869D02*
X025183Y007869D01*
X025183Y007711D02*
X025093Y007711D01*
X025564Y007711D02*
X025829Y007711D01*
X025829Y007702D02*
X025866Y007614D01*
X025933Y007547D01*
X026021Y007510D01*
X026617Y007510D01*
X026705Y007547D01*
X026772Y007614D01*
X026809Y007702D01*
X026809Y008603D01*
X027436Y009230D01*
X037407Y009230D01*
X037899Y008738D01*
X037899Y008677D01*
X037964Y008520D01*
X038084Y008399D01*
X038242Y008334D01*
X038412Y008334D01*
X038569Y008399D01*
X038690Y008520D01*
X038755Y008677D01*
X038755Y008847D01*
X038690Y009005D01*
X038569Y009125D01*
X038412Y009190D01*
X038351Y009190D01*
X037992Y009550D01*
X048941Y009550D01*
X048950Y009543D01*
X048957Y009534D01*
X048957Y003220D01*
X048866Y003310D01*
X048670Y003392D01*
X048457Y003392D01*
X048260Y003310D01*
X048109Y003160D01*
X048028Y002963D01*
X048028Y002750D01*
X048109Y002553D01*
X048260Y002403D01*
X048457Y002321D01*
X048670Y002321D01*
X048866Y002403D01*
X048957Y002493D01*
X048957Y000510D01*
X048950Y000501D01*
X048941Y000494D01*
X021414Y000494D01*
X021404Y000501D01*
X021398Y000510D01*
X021398Y009534D01*
X021404Y009543D01*
X021414Y009550D01*
X026851Y009550D01*
X026291Y008990D01*
X026021Y008990D01*
X025933Y008953D01*
X025866Y008886D01*
X025829Y008798D01*
X025829Y007702D01*
X025829Y007869D02*
X025568Y007869D01*
X025568Y008028D02*
X025829Y008028D01*
X025829Y008186D02*
X025568Y008186D01*
X025568Y008345D02*
X025829Y008345D01*
X025829Y008504D02*
X025568Y008504D01*
X025568Y008662D02*
X025829Y008662D01*
X025839Y008821D02*
X025555Y008821D01*
X025995Y008979D02*
X021398Y008979D01*
X021398Y009138D02*
X026439Y009138D01*
X026597Y009296D02*
X021398Y009296D01*
X021398Y009455D02*
X026756Y009455D01*
X027303Y009550D02*
X026319Y008565D01*
X026319Y008250D01*
X026809Y008186D02*
X031610Y008186D01*
X031591Y008028D02*
X026809Y008028D01*
X026809Y007869D02*
X031591Y007869D01*
X031632Y007711D02*
X026809Y007711D01*
X026711Y007552D02*
X031697Y007552D01*
X031634Y007187D02*
X032815Y006006D01*
X032498Y005650D02*
X032345Y005650D01*
X032139Y005491D02*
X032704Y005491D01*
X032452Y005333D02*
X032390Y005333D01*
X031916Y005491D02*
X031352Y005491D01*
X031129Y005491D02*
X025902Y005491D01*
X025744Y005333D02*
X030878Y005333D01*
X030788Y005174D02*
X026699Y005174D01*
X026713Y005161D02*
X026680Y005194D01*
X026639Y005218D01*
X026593Y005230D01*
X026364Y005230D01*
X026364Y004595D01*
X026274Y004595D01*
X026274Y004505D01*
X025889Y004505D01*
X025889Y004026D01*
X025901Y003981D01*
X025925Y003939D01*
X025959Y003906D01*
X025583Y003906D01*
X025628Y004064D02*
X025889Y004064D01*
X025889Y004223D02*
X025628Y004223D01*
X025628Y004381D02*
X025889Y004381D01*
X025889Y004595D02*
X026274Y004595D01*
X026274Y005230D01*
X026045Y005230D01*
X026000Y005218D01*
X025959Y005194D01*
X025925Y005161D01*
X025901Y005119D01*
X025889Y005074D01*
X025889Y004595D01*
X025889Y004699D02*
X025628Y004699D01*
X025628Y004857D02*
X025889Y004857D01*
X025889Y005016D02*
X025628Y005016D01*
X025596Y005174D02*
X025939Y005174D01*
X026274Y005174D02*
X026364Y005174D01*
X026364Y005016D02*
X026274Y005016D01*
X026274Y004857D02*
X026364Y004857D01*
X026364Y004699D02*
X026274Y004699D01*
X026364Y004595D02*
X026749Y004595D01*
X026749Y005074D01*
X026737Y005119D01*
X026713Y005161D01*
X026749Y005016D02*
X030764Y005016D01*
X030793Y004857D02*
X026749Y004857D01*
X026749Y004699D02*
X030661Y004699D01*
X030503Y004540D02*
X026364Y004540D01*
X026364Y004505D02*
X026364Y004595D01*
X026319Y004550D02*
X026319Y005416D01*
X027697Y006794D01*
X027233Y006760D02*
X027171Y006760D01*
X027233Y006601D02*
X027012Y006601D01*
X026854Y006443D02*
X027233Y006443D01*
X027233Y006284D02*
X026695Y006284D01*
X026536Y006125D02*
X027233Y006125D01*
X027258Y005967D02*
X026378Y005967D01*
X026219Y005808D02*
X030807Y005808D01*
X030764Y005967D02*
X029039Y005967D01*
X029064Y006125D02*
X030774Y006125D01*
X030845Y006284D02*
X029064Y006284D01*
X029064Y006443D02*
X031049Y006443D01*
X031432Y006443D02*
X031836Y006443D01*
X031768Y006601D02*
X029064Y006601D01*
X029064Y006760D02*
X031609Y006760D01*
X031634Y007187D02*
X027146Y007187D01*
X025138Y005180D01*
X025138Y004550D01*
X025628Y004540D02*
X026274Y004540D01*
X026274Y004505D02*
X026364Y004505D01*
X026749Y004505D01*
X026749Y004026D01*
X026737Y003981D01*
X026713Y003939D01*
X026680Y003906D01*
X026639Y003882D01*
X026593Y003870D01*
X026364Y003870D01*
X026364Y004505D01*
X026274Y004505D02*
X026274Y003870D01*
X026045Y003870D01*
X026000Y003882D01*
X025959Y003906D01*
X026274Y003906D02*
X026364Y003906D01*
X026364Y004064D02*
X026274Y004064D01*
X026274Y004223D02*
X026364Y004223D01*
X026364Y004381D02*
X026274Y004381D01*
X026749Y004381D02*
X030344Y004381D01*
X030185Y004223D02*
X026749Y004223D01*
X026749Y004064D02*
X030027Y004064D01*
X029868Y003906D02*
X026679Y003906D01*
X026001Y003430D02*
X029393Y003430D01*
X029551Y003589D02*
X025099Y003589D01*
X024740Y003747D02*
X029710Y003747D01*
X030139Y003272D02*
X030269Y003272D01*
X030103Y003113D02*
X029981Y003113D01*
X030037Y002955D02*
X029822Y002955D01*
X029664Y002796D02*
X030036Y002796D01*
X030087Y002637D02*
X029505Y002637D01*
X029347Y002479D02*
X030216Y002479D01*
X030292Y002320D02*
X029188Y002320D01*
X029029Y002162D02*
X030304Y002162D01*
X030377Y002003D02*
X028871Y002003D01*
X028712Y001845D02*
X030588Y001845D01*
X030947Y001845D02*
X030988Y001845D01*
X031201Y001686D02*
X024469Y001686D01*
X024681Y001845D02*
X026682Y001845D01*
X026523Y002003D02*
X024755Y002003D01*
X024803Y002162D02*
X024803Y002162D01*
X024803Y002320D02*
X024803Y002320D01*
X024803Y002479D02*
X024803Y002479D01*
X025043Y002162D02*
X026364Y002162D01*
X026206Y002320D02*
X025178Y002320D01*
X025219Y002479D02*
X026047Y002479D01*
X025889Y002637D02*
X025197Y002637D01*
X025098Y002796D02*
X025730Y002796D01*
X026477Y002955D02*
X026768Y002955D01*
X026768Y002796D02*
X026635Y002796D01*
X026794Y002637D02*
X026815Y002637D01*
X027683Y002479D02*
X028441Y002479D01*
X028600Y002637D02*
X027792Y002637D01*
X027839Y002796D02*
X028759Y002796D01*
X028917Y002955D02*
X027839Y002955D01*
X027776Y003113D02*
X029076Y003113D01*
X029234Y003272D02*
X027645Y003272D01*
X026961Y003272D02*
X026160Y003272D01*
X026318Y003113D02*
X026830Y003113D01*
X026910Y002069D02*
X025768Y003211D01*
X024803Y003211D01*
X026910Y002069D02*
X028484Y002069D01*
X030847Y004431D01*
X031634Y004431D01*
X031890Y004176D01*
X031890Y003211D01*
X032461Y003211D01*
X034390Y001282D01*
X039114Y001282D01*
X039508Y001676D01*
X039902Y001282D01*
X045807Y001282D01*
X046595Y002069D01*
X046595Y002680D01*
X046063Y003211D01*
X046488Y003430D02*
X048957Y003430D01*
X048957Y003272D02*
X048905Y003272D01*
X048221Y003272D02*
X046539Y003272D01*
X046614Y003113D02*
X048090Y003113D01*
X048028Y002955D02*
X046772Y002955D01*
X046893Y002796D02*
X048028Y002796D01*
X048075Y002637D02*
X046915Y002637D01*
X046915Y002479D02*
X048184Y002479D01*
X048942Y002479D02*
X048957Y002479D01*
X048957Y002320D02*
X046915Y002320D01*
X046915Y002162D02*
X048957Y002162D01*
X048957Y002003D02*
X046914Y002003D01*
X046823Y001845D02*
X048957Y001845D01*
X048957Y001686D02*
X046664Y001686D01*
X046776Y001798D02*
X046776Y001798D01*
X046506Y001528D02*
X048957Y001528D01*
X048957Y001369D02*
X046347Y001369D01*
X046188Y001211D02*
X048957Y001211D01*
X048957Y001052D02*
X046030Y001052D01*
X046079Y001101D02*
X046079Y001101D01*
X044941Y002286D02*
X041260Y002286D01*
X040689Y002857D01*
X040689Y005219D01*
X039902Y006006D01*
X038327Y006006D01*
X038644Y005650D02*
X039080Y005650D01*
X039095Y005491D02*
X038439Y005491D01*
X038215Y005491D02*
X037651Y005491D01*
X037428Y005491D02*
X036864Y005491D01*
X036969Y005650D02*
X037223Y005650D01*
X036752Y005650D02*
X036752Y005650D01*
X036752Y005808D02*
X036752Y005808D01*
X036752Y005967D02*
X036752Y005967D01*
X036752Y006006D02*
X036752Y006006D01*
X036386Y005808D02*
X036331Y005808D01*
X037115Y005333D02*
X037177Y005333D01*
X037902Y005333D02*
X037964Y005333D01*
X038010Y005650D02*
X037856Y005650D01*
X037540Y006006D02*
X037933Y006400D01*
X039902Y006400D01*
X041083Y005219D01*
X041083Y004431D01*
X042658Y002857D01*
X044685Y002857D01*
X044332Y003177D02*
X042790Y003177D01*
X042643Y003324D01*
X044169Y003324D01*
X044296Y003324D01*
X044414Y003373D01*
X044529Y003489D01*
X044525Y003460D01*
X044525Y003428D01*
X044941Y003428D01*
X044941Y003427D01*
X044525Y003427D01*
X044525Y003395D01*
X044535Y003330D01*
X044541Y003312D01*
X044415Y003260D01*
X044332Y003177D01*
X044443Y003272D02*
X042695Y003272D01*
X042658Y003644D02*
X044232Y003644D01*
X045138Y004550D01*
X045217Y004550D01*
X045532Y004550D01*
X046595Y005613D01*
X046977Y005808D02*
X048957Y005808D01*
X048957Y005650D02*
X047023Y005650D01*
X047008Y005491D02*
X048957Y005491D01*
X048957Y005333D02*
X046920Y005333D01*
X046609Y005174D02*
X048957Y005174D01*
X048957Y005016D02*
X046450Y005016D01*
X046292Y004857D02*
X048957Y004857D01*
X048957Y004699D02*
X046133Y004699D01*
X045975Y004540D02*
X048957Y004540D01*
X048957Y004381D02*
X045816Y004381D01*
X045707Y004223D02*
X048957Y004223D01*
X048957Y004064D02*
X045707Y004064D01*
X045818Y003906D02*
X048957Y003906D01*
X048957Y003747D02*
X045936Y003747D01*
X046359Y003589D02*
X048957Y003589D01*
X045862Y005333D02*
X043224Y005333D01*
X043383Y005491D02*
X046021Y005491D01*
X046167Y005650D02*
X043541Y005650D01*
X043700Y005808D02*
X046212Y005808D01*
X046156Y005967D02*
X043858Y005967D01*
X044017Y006125D02*
X046131Y006125D01*
X046131Y006284D02*
X044175Y006284D01*
X044334Y006443D02*
X046131Y006443D01*
X046131Y006601D02*
X044492Y006601D01*
X044651Y006760D02*
X046131Y006760D01*
X046225Y006918D02*
X044809Y006918D01*
X044221Y007235D02*
X042371Y007235D01*
X042212Y007077D02*
X044063Y007077D01*
X043904Y006918D02*
X043027Y006918D01*
X043121Y006760D02*
X043746Y006760D01*
X043587Y006601D02*
X043121Y006601D01*
X043121Y006443D02*
X043429Y006443D01*
X043270Y006284D02*
X043121Y006284D01*
X043065Y005174D02*
X043655Y005174D01*
X043606Y005016D02*
X042907Y005016D01*
X042748Y004857D02*
X043606Y004857D01*
X043606Y004699D02*
X042675Y004699D01*
X042584Y004540D02*
X043990Y004540D01*
X044081Y004540D02*
X044676Y004540D01*
X044727Y004699D02*
X044466Y004699D01*
X044466Y004857D02*
X044727Y004857D01*
X044727Y005016D02*
X044466Y005016D01*
X044416Y005174D02*
X044758Y005174D01*
X044081Y005174D02*
X043991Y005174D01*
X043991Y005016D02*
X044081Y005016D01*
X044081Y004857D02*
X043991Y004857D01*
X043991Y004699D02*
X044081Y004699D01*
X044466Y004381D02*
X044517Y004381D01*
X043606Y004381D02*
X042373Y004381D01*
X042531Y004223D02*
X043606Y004223D01*
X043606Y004064D02*
X042690Y004064D01*
X042658Y003644D02*
X041477Y004825D01*
X042264Y004825D02*
X045217Y007778D01*
X045217Y008250D01*
X043712Y008979D02*
X038700Y008979D01*
X038755Y008821D02*
X043555Y008821D01*
X043546Y008662D02*
X038749Y008662D01*
X038674Y008504D02*
X042734Y008504D01*
X042575Y008345D02*
X038439Y008345D01*
X038215Y008345D02*
X037891Y008345D01*
X037957Y008186D02*
X042417Y008186D01*
X042258Y008028D02*
X037976Y008028D01*
X037976Y007869D02*
X042100Y007869D01*
X041941Y007711D02*
X037935Y007711D01*
X037870Y007552D02*
X040845Y007552D01*
X041083Y007187D02*
X037933Y007187D01*
X037540Y006794D01*
X034390Y006794D01*
X033603Y006006D01*
X033209Y006400D02*
X034390Y007581D01*
X034390Y008762D01*
X034602Y009138D02*
X037499Y009138D01*
X037657Y008979D02*
X034763Y008979D01*
X034818Y008821D02*
X037816Y008821D01*
X037905Y008662D02*
X037633Y008662D01*
X037792Y008504D02*
X037980Y008504D01*
X038327Y008762D02*
X037540Y009550D01*
X027303Y009550D01*
X027344Y009138D02*
X034178Y009138D01*
X034016Y008979D02*
X027185Y008979D01*
X027027Y008821D02*
X033962Y008821D01*
X033968Y008662D02*
X032909Y008662D01*
X033067Y008504D02*
X034043Y008504D01*
X034070Y008345D02*
X033167Y008345D01*
X033233Y008186D02*
X034070Y008186D01*
X034070Y008028D02*
X033252Y008028D01*
X033252Y007869D02*
X034070Y007869D01*
X034067Y007711D02*
X033211Y007711D01*
X033145Y007552D02*
X033909Y007552D01*
X033750Y007394D02*
X033015Y007394D01*
X032806Y007235D02*
X033591Y007235D01*
X033433Y007077D02*
X032197Y007077D01*
X032356Y006918D02*
X033274Y006918D01*
X033116Y006760D02*
X032514Y006760D01*
X032673Y006601D02*
X032957Y006601D01*
X033209Y006400D02*
X033209Y004431D01*
X031988Y003211D01*
X031890Y003211D01*
X033850Y001369D02*
X021398Y001369D01*
X021398Y001211D02*
X034009Y001211D01*
X034167Y001052D02*
X021398Y001052D01*
X021398Y000894D02*
X048957Y000894D01*
X048957Y000735D02*
X021398Y000735D01*
X021398Y000576D02*
X048957Y000576D01*
X044525Y003430D02*
X044471Y003430D01*
X045675Y005174D02*
X045704Y005174D01*
X047936Y005967D02*
X048957Y005967D01*
X048957Y006125D02*
X047961Y006125D01*
X047961Y006284D02*
X048957Y006284D01*
X048957Y009138D02*
X038539Y009138D01*
X038245Y009296D02*
X048957Y009296D01*
X048957Y009455D02*
X038087Y009455D01*
X036659Y008662D02*
X034812Y008662D01*
X034737Y008504D02*
X036500Y008504D01*
X036400Y008345D02*
X034710Y008345D01*
X034710Y008186D02*
X036335Y008186D01*
X036315Y008028D02*
X034710Y008028D01*
X034710Y007869D02*
X036315Y007869D01*
X036356Y007711D02*
X034710Y007711D01*
X034710Y007552D02*
X036422Y007552D01*
X036552Y007394D02*
X034655Y007394D01*
X034497Y007235D02*
X036761Y007235D01*
X039508Y005613D02*
X039508Y004825D01*
X039114Y004431D01*
X037540Y004431D01*
X036752Y003644D01*
X036752Y002463D01*
X037540Y001676D01*
X038327Y001676D01*
X038465Y001813D01*
X038465Y002128D01*
X038785Y001775D02*
X038868Y001859D01*
X038941Y002034D01*
X038941Y002087D01*
X038944Y002086D01*
X038976Y002086D01*
X038976Y002502D01*
X038977Y002502D01*
X038977Y002086D01*
X039009Y002086D01*
X039074Y002096D01*
X039136Y002117D01*
X039188Y002143D01*
X039188Y001808D01*
X038982Y001602D01*
X038706Y001602D01*
X038736Y001632D01*
X038785Y001750D01*
X038785Y001775D01*
X038758Y001686D02*
X039066Y001686D01*
X039188Y001845D02*
X038855Y001845D01*
X038928Y002003D02*
X039188Y002003D01*
X038977Y002162D02*
X038976Y002162D01*
X038976Y002320D02*
X038977Y002320D01*
X038976Y002479D02*
X038977Y002479D01*
X039508Y002680D02*
X039508Y001676D01*
X039496Y001211D02*
X039520Y001211D01*
X039679Y001052D02*
X039337Y001052D01*
X039508Y002680D02*
X038977Y003211D01*
X039087Y004857D02*
X038774Y004857D01*
X038803Y005016D02*
X039188Y005016D01*
X039188Y005174D02*
X038779Y005174D01*
X038690Y005333D02*
X039182Y005333D01*
X041461Y007394D02*
X041624Y007394D01*
X041783Y007552D02*
X041320Y007552D01*
X031934Y008662D02*
X026868Y008662D01*
X026809Y008504D02*
X031776Y008504D01*
X031676Y008345D02*
X026809Y008345D01*
X025927Y007552D02*
X021398Y007552D01*
X021398Y007394D02*
X026900Y007394D01*
X026741Y007235D02*
X021398Y007235D01*
X021398Y007077D02*
X026583Y007077D01*
X026061Y005650D02*
X030923Y005650D01*
X031557Y005650D02*
X031711Y005650D01*
X031665Y005333D02*
X031603Y005333D01*
X022418Y005967D02*
X021398Y005967D01*
X021398Y006125D02*
X022393Y006125D01*
X022393Y006284D02*
X021398Y006284D01*
X021398Y006443D02*
X022393Y006443D01*
X022393Y006601D02*
X021398Y006601D01*
X021398Y006760D02*
X022393Y006760D01*
X022487Y006918D02*
X021398Y006918D01*
D16*
X027697Y006794D03*
X034390Y008762D03*
X038327Y008762D03*
X041083Y007187D03*
X039508Y005613D03*
X041477Y004825D03*
X042264Y004825D03*
X046595Y005613D03*
M02*
