G75*
G70*
%OFA0B0*%
%FSLAX24Y24*%
%IPPOS*%
%LPD*%
%AMOC8*
5,1,8,0,0,1.08239X$1,22.5*
%
%ADD10C,0.1261*%
%ADD11C,0.0552*%
%ADD12C,0.0671*%
%ADD13R,0.0580X0.1080*%
%ADD14R,0.1430X0.0730*%
%ADD15C,0.0456*%
D10*
X032421Y007975D03*
X037146Y007975D03*
D11*
X037540Y006006D03*
X036752Y006006D03*
X035965Y006006D03*
X035177Y006006D03*
X034390Y006006D03*
X033603Y006006D03*
X032815Y006006D03*
X032028Y006006D03*
X031240Y006006D03*
X031240Y005022D03*
X032028Y005022D03*
X032815Y005022D03*
X033603Y005022D03*
X034390Y005022D03*
X035177Y005022D03*
X035965Y005022D03*
X036752Y005022D03*
X037540Y005022D03*
X038327Y005022D03*
X038327Y006006D03*
X038465Y003585D03*
X037854Y003428D03*
X037599Y002857D03*
X038327Y002857D03*
X038977Y003211D03*
X038977Y002502D03*
X038465Y002128D03*
X037854Y002286D03*
X031890Y002502D03*
X031378Y002128D03*
X030768Y002286D03*
X030512Y002857D03*
X030768Y003428D03*
X031378Y003585D03*
X031890Y003211D03*
X031240Y002857D03*
X024803Y002502D03*
X024291Y002128D03*
X023681Y002286D03*
X023425Y002857D03*
X024154Y002857D03*
X024803Y003211D03*
X024291Y003585D03*
X023681Y003428D03*
X044685Y002857D03*
X045414Y002857D03*
X046063Y003211D03*
X045551Y003585D03*
X044941Y003428D03*
X046063Y002502D03*
X045551Y002128D03*
X044941Y002286D03*
D12*
X022185Y007581D03*
X027303Y002857D03*
X034390Y002857D03*
X041477Y002857D03*
X048563Y002857D03*
D13*
X045217Y004550D03*
X044036Y004550D03*
X044036Y008250D03*
X045217Y008250D03*
X026319Y008250D03*
X025138Y008250D03*
X025138Y004550D03*
X026319Y004550D03*
D14*
X028149Y006400D03*
X023309Y006400D03*
X042206Y006400D03*
X047046Y006400D03*
D15*
X046595Y005613D03*
X042264Y004825D03*
X041477Y004825D03*
X039508Y005613D03*
X041083Y007187D03*
X038327Y008762D03*
X034390Y008762D03*
X027697Y006794D03*
M02*
