%
M48
M72
T01C0.0236
T02C0.0315
T03C0.0394
T04C0.0950
T05C0.1181
%
T01
X28563Y6557
X34390Y8762
X38327Y8762
X41083Y7187
X39508Y5613
X41477Y4825
X42264Y4825
X46595Y5613
T02
X45551Y3585
X44941Y3428
X44685Y2857
X45414Y2857
X46063Y3211
X46063Y2502
X45551Y2128
X44941Y2286
X38977Y2502
X38465Y2128
X37854Y2286
X37599Y2857
X38327Y2857
X38977Y3211
X38465Y3585
X37854Y3428
X37540Y5022
X36752Y5022
X35965Y5022
X35177Y5022
X34390Y5022
X33603Y5022
X32815Y5022
X32028Y5022
X31240Y5022
X31240Y6006
X32028Y6006
X32815Y6006
X33603Y6006
X34390Y6006
X35177Y6006
X35965Y6006
X36752Y6006
X37540Y6006
X38327Y6006
X38327Y5022
X31890Y3211
X31240Y2857
X30512Y2857
X30768Y3428
X31378Y3585
X31890Y2502
X31378Y2128
X30768Y2286
X24803Y2502
X24291Y2128
X23681Y2286
X23425Y2857
X24154Y2857
X24803Y3211
X24291Y3585
X23681Y3428
T03
X22185Y7581
X27303Y2857
X34390Y2857
X41477Y2857
X48563Y2857
T04
X44882Y7975
X42008Y7975
X27559Y7975
X24685Y7975
T05
X32421Y7975
X37146Y7975
M30
