G75*
G70*
%OFA0B0*%
%FSLAX24Y24*%
%IPPOS*%
%LPD*%
%AMOC8*
5,1,8,0,0,1.08239X$1,22.5*
%
%ADD10C,0.0000*%
%ADD11C,0.0472*%
%ADD12C,0.0591*%
%ADD13R,0.0394X0.0433*%
%ADD14C,0.0160*%
%ADD15C,0.0376*%
D10*
X021004Y000101D02*
X021004Y009943D01*
X049351Y009943D01*
X049351Y000101D01*
X021004Y000101D01*
X024210Y007975D02*
X024212Y008018D01*
X024218Y008061D01*
X024228Y008103D01*
X024241Y008144D01*
X024258Y008184D01*
X024279Y008222D01*
X024303Y008258D01*
X024331Y008291D01*
X024361Y008322D01*
X024394Y008350D01*
X024429Y008375D01*
X024466Y008397D01*
X024506Y008415D01*
X024546Y008429D01*
X024588Y008440D01*
X024631Y008447D01*
X024674Y008450D01*
X024717Y008449D01*
X024760Y008444D01*
X024803Y008435D01*
X024844Y008423D01*
X024884Y008406D01*
X024922Y008386D01*
X024959Y008363D01*
X024993Y008337D01*
X025025Y008307D01*
X025053Y008275D01*
X025079Y008240D01*
X025102Y008203D01*
X025121Y008164D01*
X025136Y008124D01*
X025148Y008082D01*
X025156Y008040D01*
X025160Y007997D01*
X025160Y007953D01*
X025156Y007910D01*
X025148Y007868D01*
X025136Y007826D01*
X025121Y007786D01*
X025102Y007747D01*
X025079Y007710D01*
X025053Y007675D01*
X025025Y007643D01*
X024993Y007613D01*
X024959Y007587D01*
X024923Y007564D01*
X024884Y007544D01*
X024844Y007527D01*
X024803Y007515D01*
X024760Y007506D01*
X024717Y007501D01*
X024674Y007500D01*
X024631Y007503D01*
X024588Y007510D01*
X024546Y007521D01*
X024506Y007535D01*
X024466Y007553D01*
X024429Y007575D01*
X024394Y007600D01*
X024361Y007628D01*
X024331Y007659D01*
X024303Y007692D01*
X024279Y007728D01*
X024258Y007766D01*
X024241Y007806D01*
X024228Y007847D01*
X024218Y007889D01*
X024212Y007932D01*
X024210Y007975D01*
X027084Y007975D02*
X027086Y008018D01*
X027092Y008061D01*
X027102Y008103D01*
X027115Y008144D01*
X027132Y008184D01*
X027153Y008222D01*
X027177Y008258D01*
X027205Y008291D01*
X027235Y008322D01*
X027268Y008350D01*
X027303Y008375D01*
X027340Y008397D01*
X027380Y008415D01*
X027420Y008429D01*
X027462Y008440D01*
X027505Y008447D01*
X027548Y008450D01*
X027591Y008449D01*
X027634Y008444D01*
X027677Y008435D01*
X027718Y008423D01*
X027758Y008406D01*
X027796Y008386D01*
X027833Y008363D01*
X027867Y008337D01*
X027899Y008307D01*
X027927Y008275D01*
X027953Y008240D01*
X027976Y008203D01*
X027995Y008164D01*
X028010Y008124D01*
X028022Y008082D01*
X028030Y008040D01*
X028034Y007997D01*
X028034Y007953D01*
X028030Y007910D01*
X028022Y007868D01*
X028010Y007826D01*
X027995Y007786D01*
X027976Y007747D01*
X027953Y007710D01*
X027927Y007675D01*
X027899Y007643D01*
X027867Y007613D01*
X027833Y007587D01*
X027797Y007564D01*
X027758Y007544D01*
X027718Y007527D01*
X027677Y007515D01*
X027634Y007506D01*
X027591Y007501D01*
X027548Y007500D01*
X027505Y007503D01*
X027462Y007510D01*
X027420Y007521D01*
X027380Y007535D01*
X027340Y007553D01*
X027303Y007575D01*
X027268Y007600D01*
X027235Y007628D01*
X027205Y007659D01*
X027177Y007692D01*
X027153Y007728D01*
X027132Y007766D01*
X027115Y007806D01*
X027102Y007847D01*
X027092Y007889D01*
X027086Y007932D01*
X027084Y007975D01*
X041533Y007975D02*
X041535Y008018D01*
X041541Y008061D01*
X041551Y008103D01*
X041564Y008144D01*
X041581Y008184D01*
X041602Y008222D01*
X041626Y008258D01*
X041654Y008291D01*
X041684Y008322D01*
X041717Y008350D01*
X041752Y008375D01*
X041789Y008397D01*
X041829Y008415D01*
X041869Y008429D01*
X041911Y008440D01*
X041954Y008447D01*
X041997Y008450D01*
X042040Y008449D01*
X042083Y008444D01*
X042126Y008435D01*
X042167Y008423D01*
X042207Y008406D01*
X042245Y008386D01*
X042282Y008363D01*
X042316Y008337D01*
X042348Y008307D01*
X042376Y008275D01*
X042402Y008240D01*
X042425Y008203D01*
X042444Y008164D01*
X042459Y008124D01*
X042471Y008082D01*
X042479Y008040D01*
X042483Y007997D01*
X042483Y007953D01*
X042479Y007910D01*
X042471Y007868D01*
X042459Y007826D01*
X042444Y007786D01*
X042425Y007747D01*
X042402Y007710D01*
X042376Y007675D01*
X042348Y007643D01*
X042316Y007613D01*
X042282Y007587D01*
X042246Y007564D01*
X042207Y007544D01*
X042167Y007527D01*
X042126Y007515D01*
X042083Y007506D01*
X042040Y007501D01*
X041997Y007500D01*
X041954Y007503D01*
X041911Y007510D01*
X041869Y007521D01*
X041829Y007535D01*
X041789Y007553D01*
X041752Y007575D01*
X041717Y007600D01*
X041684Y007628D01*
X041654Y007659D01*
X041626Y007692D01*
X041602Y007728D01*
X041581Y007766D01*
X041564Y007806D01*
X041551Y007847D01*
X041541Y007889D01*
X041535Y007932D01*
X041533Y007975D01*
X044407Y007975D02*
X044409Y008018D01*
X044415Y008061D01*
X044425Y008103D01*
X044438Y008144D01*
X044455Y008184D01*
X044476Y008222D01*
X044500Y008258D01*
X044528Y008291D01*
X044558Y008322D01*
X044591Y008350D01*
X044626Y008375D01*
X044663Y008397D01*
X044703Y008415D01*
X044743Y008429D01*
X044785Y008440D01*
X044828Y008447D01*
X044871Y008450D01*
X044914Y008449D01*
X044957Y008444D01*
X045000Y008435D01*
X045041Y008423D01*
X045081Y008406D01*
X045119Y008386D01*
X045156Y008363D01*
X045190Y008337D01*
X045222Y008307D01*
X045250Y008275D01*
X045276Y008240D01*
X045299Y008203D01*
X045318Y008164D01*
X045333Y008124D01*
X045345Y008082D01*
X045353Y008040D01*
X045357Y007997D01*
X045357Y007953D01*
X045353Y007910D01*
X045345Y007868D01*
X045333Y007826D01*
X045318Y007786D01*
X045299Y007747D01*
X045276Y007710D01*
X045250Y007675D01*
X045222Y007643D01*
X045190Y007613D01*
X045156Y007587D01*
X045120Y007564D01*
X045081Y007544D01*
X045041Y007527D01*
X045000Y007515D01*
X044957Y007506D01*
X044914Y007501D01*
X044871Y007500D01*
X044828Y007503D01*
X044785Y007510D01*
X044743Y007521D01*
X044703Y007535D01*
X044663Y007553D01*
X044626Y007575D01*
X044591Y007600D01*
X044558Y007628D01*
X044528Y007659D01*
X044500Y007692D01*
X044476Y007728D01*
X044455Y007766D01*
X044438Y007806D01*
X044425Y007847D01*
X044415Y007889D01*
X044409Y007932D01*
X044407Y007975D01*
D11*
X038327Y006006D03*
X037540Y006006D03*
X036752Y006006D03*
X035965Y006006D03*
X035177Y006006D03*
X034390Y006006D03*
X033603Y006006D03*
X032815Y006006D03*
X032028Y006006D03*
X031240Y006006D03*
X031240Y005022D03*
X032028Y005022D03*
X032815Y005022D03*
X033603Y005022D03*
X034390Y005022D03*
X035177Y005022D03*
X035965Y005022D03*
X036752Y005022D03*
X037540Y005022D03*
X038327Y005022D03*
X038465Y003585D03*
X037854Y003428D03*
X037599Y002857D03*
X038327Y002857D03*
X038977Y003211D03*
X038977Y002502D03*
X038465Y002128D03*
X037854Y002286D03*
X031890Y002502D03*
X031378Y002128D03*
X030768Y002286D03*
X030512Y002857D03*
X030768Y003428D03*
X031378Y003585D03*
X031890Y003211D03*
X031240Y002857D03*
X024803Y002502D03*
X024291Y002128D03*
X023681Y002286D03*
X023425Y002857D03*
X024154Y002857D03*
X024803Y003211D03*
X024291Y003585D03*
X023681Y003428D03*
X044685Y002857D03*
X045414Y002857D03*
X046063Y003211D03*
X045551Y003585D03*
X044941Y003428D03*
X046063Y002502D03*
X045551Y002128D03*
X044941Y002286D03*
D12*
X041477Y002857D03*
X034390Y002857D03*
X027303Y002857D03*
X022185Y007581D03*
X048563Y002857D03*
D13*
X047776Y006065D03*
X046595Y006065D03*
X046595Y006735D03*
X047776Y006735D03*
X044626Y006735D03*
X044626Y006065D03*
X043445Y006065D03*
X043445Y006735D03*
X041477Y006735D03*
X040295Y006735D03*
X040295Y006065D03*
X041477Y006065D03*
X037933Y007640D03*
X036752Y007640D03*
X036752Y008309D03*
X037933Y008309D03*
X035571Y008309D03*
X034390Y008309D03*
X033209Y008309D03*
X033209Y007640D03*
X034390Y007640D03*
X035571Y007640D03*
X032028Y007640D03*
X032028Y008309D03*
X028091Y006735D03*
X026910Y006735D03*
X026910Y006065D03*
X028091Y006065D03*
X024547Y006065D03*
X023366Y006065D03*
X023366Y006735D03*
X024547Y006735D03*
D14*
X025669Y006735D01*
X026122Y007187D01*
X028484Y007187D01*
X030650Y005022D01*
X031240Y005022D01*
X030887Y005342D02*
X030782Y005342D01*
X028756Y007369D01*
X028666Y007459D01*
X028548Y007507D01*
X028103Y007507D01*
X028165Y007570D01*
X028274Y007833D01*
X028274Y008117D01*
X028165Y008380D01*
X027964Y008581D01*
X027701Y008690D01*
X027417Y008690D01*
X027154Y008581D01*
X026953Y008380D01*
X026844Y008117D01*
X026844Y007833D01*
X026953Y007570D01*
X027016Y007507D01*
X026186Y007507D01*
X026059Y007507D01*
X025941Y007459D01*
X025537Y007055D01*
X024961Y007055D01*
X024948Y007087D01*
X024880Y007155D01*
X024792Y007191D01*
X024303Y007191D01*
X024215Y007155D01*
X024147Y007087D01*
X024134Y007055D01*
X023780Y007055D01*
X023767Y007087D01*
X023699Y007155D01*
X023611Y007191D01*
X023122Y007191D01*
X023033Y007155D01*
X022966Y007087D01*
X022929Y006999D01*
X022929Y006470D01*
X022959Y006400D01*
X022929Y006330D01*
X022929Y006081D01*
X022308Y005459D01*
X022259Y005342D01*
X022259Y005214D01*
X022259Y001612D01*
X022308Y001494D01*
X022398Y001404D01*
X022791Y001011D01*
X022909Y000962D01*
X023036Y000962D01*
X023824Y000962D01*
X023941Y001011D01*
X024031Y001101D01*
X024563Y001632D01*
X024611Y001750D01*
X024611Y001775D01*
X024695Y001859D01*
X024768Y002034D01*
X024768Y002087D01*
X024771Y002086D01*
X024803Y002086D01*
X024803Y002502D01*
X024803Y002502D01*
X024803Y002086D01*
X024836Y002086D01*
X024901Y002096D01*
X024963Y002117D01*
X025021Y002146D01*
X025074Y002185D01*
X025121Y002231D01*
X025159Y002284D01*
X025189Y002343D01*
X025209Y002405D01*
X025219Y002470D01*
X025219Y002502D01*
X024804Y002502D01*
X024804Y002503D01*
X025219Y002503D01*
X025219Y002535D01*
X025209Y002600D01*
X025189Y002662D01*
X025159Y002720D01*
X025121Y002774D01*
X025080Y002814D01*
X025207Y002941D01*
X025279Y003116D01*
X025279Y003306D01*
X025207Y003481D01*
X025073Y003615D01*
X024898Y003687D01*
X024765Y003687D01*
X024695Y003855D01*
X024561Y003989D01*
X024386Y004061D01*
X024197Y004061D01*
X024022Y003989D01*
X023890Y003857D01*
X023776Y003904D01*
X023586Y003904D01*
X023411Y003831D01*
X023278Y003697D01*
X023205Y003522D01*
X023205Y003333D01*
X023223Y003288D01*
X023156Y003260D01*
X023022Y003126D01*
X022949Y002951D01*
X022949Y002762D01*
X023022Y002587D01*
X023156Y002453D01*
X023223Y002425D01*
X023205Y002381D01*
X023205Y002191D01*
X023278Y002016D01*
X023411Y001882D01*
X023586Y001810D01*
X023776Y001810D01*
X023877Y001851D01*
X023627Y001602D01*
X023105Y001602D01*
X022899Y001808D01*
X022899Y005145D01*
X023362Y005609D01*
X023611Y005609D01*
X023699Y005645D01*
X023767Y005713D01*
X023803Y005801D01*
X023803Y006330D01*
X023774Y006400D01*
X023780Y006415D01*
X024134Y006415D01*
X024147Y006382D01*
X024182Y006347D01*
X024171Y006306D01*
X024171Y006084D01*
X024529Y006084D01*
X024529Y006047D01*
X024171Y006047D01*
X024171Y005825D01*
X024183Y005779D01*
X024206Y005738D01*
X024240Y005705D01*
X024281Y005681D01*
X024327Y005669D01*
X024529Y005669D01*
X024529Y006047D01*
X024566Y006047D01*
X024566Y006084D01*
X024924Y006084D01*
X024924Y006306D01*
X024913Y006347D01*
X024948Y006382D01*
X024961Y006415D01*
X025733Y006415D01*
X025802Y006443D01*
X025802Y006336D01*
X025802Y005155D01*
X025851Y005038D01*
X025941Y004948D01*
X027558Y003330D01*
X027410Y003392D01*
X027197Y003392D01*
X027000Y003310D01*
X026850Y003160D01*
X026768Y002963D01*
X026768Y002750D01*
X026850Y002553D01*
X027000Y002403D01*
X027197Y002321D01*
X027386Y002321D01*
X029001Y000707D01*
X029091Y000617D01*
X029208Y000568D01*
X034326Y000568D01*
X034454Y000568D01*
X041413Y000568D01*
X041540Y000568D01*
X046531Y000568D01*
X046658Y000568D01*
X046776Y000617D01*
X048480Y002321D01*
X048670Y002321D01*
X048866Y002403D01*
X048957Y002493D01*
X048957Y000494D01*
X021398Y000494D01*
X021398Y009550D01*
X032815Y009550D01*
X032032Y008766D01*
X031783Y008766D01*
X031695Y008729D01*
X031627Y008662D01*
X031591Y008574D01*
X031591Y008045D01*
X031620Y007975D01*
X031591Y007904D01*
X031591Y007376D01*
X031627Y007288D01*
X031695Y007220D01*
X031783Y007184D01*
X031973Y007184D01*
X032101Y007055D01*
X032101Y006482D01*
X031933Y006482D01*
X031758Y006410D01*
X031634Y006286D01*
X031510Y006410D01*
X031335Y006482D01*
X031146Y006482D01*
X030971Y006410D01*
X030837Y006276D01*
X030764Y006101D01*
X030764Y005912D01*
X030837Y005737D01*
X030971Y005603D01*
X031146Y005530D01*
X031335Y005530D01*
X031510Y005603D01*
X031634Y005727D01*
X031758Y005603D01*
X031933Y005530D01*
X032101Y005530D01*
X032101Y005498D01*
X031933Y005498D01*
X031758Y005426D01*
X031634Y005302D01*
X031510Y005426D01*
X031335Y005498D01*
X031146Y005498D01*
X030971Y005426D01*
X030887Y005342D01*
X031129Y005491D02*
X030633Y005491D01*
X030475Y005650D02*
X030923Y005650D01*
X030807Y005808D02*
X030316Y005808D01*
X030157Y005967D02*
X030764Y005967D01*
X030774Y006125D02*
X029999Y006125D01*
X029840Y006284D02*
X030845Y006284D01*
X031049Y006443D02*
X029682Y006443D01*
X029523Y006601D02*
X032101Y006601D01*
X032101Y006760D02*
X029365Y006760D01*
X029206Y006918D02*
X032101Y006918D01*
X032080Y007077D02*
X029048Y007077D01*
X028889Y007235D02*
X031680Y007235D01*
X031591Y007394D02*
X028731Y007394D01*
X028224Y007711D02*
X031591Y007711D01*
X031591Y007869D02*
X028274Y007869D01*
X028274Y008028D02*
X031598Y008028D01*
X031591Y008186D02*
X028245Y008186D01*
X028180Y008345D02*
X031591Y008345D01*
X031591Y008504D02*
X028042Y008504D01*
X027768Y008662D02*
X031628Y008662D01*
X032086Y008821D02*
X021398Y008821D01*
X021398Y008979D02*
X032245Y008979D01*
X032403Y009138D02*
X021398Y009138D01*
X021398Y009296D02*
X032562Y009296D01*
X032721Y009455D02*
X021398Y009455D01*
X021398Y008662D02*
X024476Y008662D01*
X024543Y008690D02*
X024280Y008581D01*
X024079Y008380D01*
X023970Y008117D01*
X023970Y007833D01*
X024079Y007570D01*
X024280Y007369D01*
X024543Y007260D01*
X024827Y007260D01*
X025090Y007369D01*
X025291Y007570D01*
X025400Y007833D01*
X025400Y008117D01*
X025291Y008380D01*
X025090Y008581D01*
X024827Y008690D01*
X024543Y008690D01*
X024894Y008662D02*
X027350Y008662D01*
X027077Y008504D02*
X025168Y008504D01*
X025306Y008345D02*
X026939Y008345D01*
X026873Y008186D02*
X025371Y008186D01*
X025400Y008028D02*
X026844Y008028D01*
X026844Y007869D02*
X025400Y007869D01*
X025350Y007711D02*
X026895Y007711D01*
X026971Y007552D02*
X025274Y007552D01*
X025115Y007394D02*
X025876Y007394D01*
X025717Y007235D02*
X021398Y007235D01*
X021398Y007077D02*
X022962Y007077D01*
X022929Y006918D02*
X021398Y006918D01*
X021398Y006760D02*
X022929Y006760D01*
X022929Y006601D02*
X021398Y006601D01*
X021398Y006443D02*
X022941Y006443D01*
X022929Y006284D02*
X021398Y006284D01*
X021398Y006125D02*
X022929Y006125D01*
X022815Y005967D02*
X021398Y005967D01*
X021398Y005808D02*
X022657Y005808D01*
X022498Y005650D02*
X021398Y005650D01*
X021398Y005491D02*
X022340Y005491D01*
X022259Y005333D02*
X021398Y005333D01*
X021398Y005174D02*
X022259Y005174D01*
X022259Y005016D02*
X021398Y005016D01*
X021398Y004857D02*
X022259Y004857D01*
X022259Y004699D02*
X021398Y004699D01*
X021398Y004540D02*
X022259Y004540D01*
X022259Y004381D02*
X021398Y004381D01*
X021398Y004223D02*
X022259Y004223D01*
X022259Y004064D02*
X021398Y004064D01*
X021398Y003906D02*
X022259Y003906D01*
X022259Y003747D02*
X021398Y003747D01*
X021398Y003589D02*
X022259Y003589D01*
X022259Y003430D02*
X021398Y003430D01*
X021398Y003272D02*
X022259Y003272D01*
X022259Y003113D02*
X021398Y003113D01*
X021398Y002955D02*
X022259Y002955D01*
X022259Y002796D02*
X021398Y002796D01*
X021398Y002637D02*
X022259Y002637D01*
X022259Y002479D02*
X021398Y002479D01*
X021398Y002320D02*
X022259Y002320D01*
X022259Y002162D02*
X021398Y002162D01*
X021398Y002003D02*
X022259Y002003D01*
X022259Y001845D02*
X021398Y001845D01*
X021398Y001686D02*
X022259Y001686D01*
X022294Y001528D02*
X021398Y001528D01*
X021398Y001369D02*
X022433Y001369D01*
X022591Y001211D02*
X021398Y001211D01*
X021398Y001052D02*
X022750Y001052D01*
X022973Y001282D02*
X022579Y001676D01*
X022579Y005278D01*
X023366Y006065D01*
X023803Y006125D02*
X024171Y006125D01*
X024171Y005967D02*
X023803Y005967D01*
X023803Y005808D02*
X024175Y005808D01*
X024529Y005808D02*
X024566Y005808D01*
X024566Y005669D02*
X024768Y005669D01*
X024814Y005681D01*
X024855Y005705D01*
X024888Y005738D01*
X024912Y005779D01*
X024924Y005825D01*
X024924Y006047D01*
X024566Y006047D01*
X024566Y005669D01*
X024566Y005967D02*
X024529Y005967D01*
X024924Y005967D02*
X025802Y005967D01*
X025802Y006125D02*
X024924Y006125D01*
X024924Y006284D02*
X025802Y006284D01*
X025800Y006443D02*
X025802Y006443D01*
X026122Y006400D02*
X026457Y006735D01*
X026910Y006735D01*
X027346Y006760D02*
X027714Y006760D01*
X027714Y006753D02*
X027714Y006867D01*
X027346Y006867D01*
X027346Y006470D01*
X027317Y006400D01*
X027323Y006385D01*
X027677Y006385D01*
X027690Y006418D01*
X027725Y006453D01*
X027714Y006494D01*
X027714Y006716D01*
X028072Y006716D01*
X028072Y006753D01*
X027714Y006753D01*
X027714Y006601D02*
X027346Y006601D01*
X027335Y006443D02*
X027715Y006443D01*
X028109Y006716D02*
X028109Y006753D01*
X028466Y006753D01*
X030468Y004751D01*
X029798Y004751D01*
X028528Y006022D01*
X028528Y006330D01*
X028491Y006418D01*
X028456Y006453D01*
X028468Y006494D01*
X028468Y006716D01*
X028109Y006716D01*
X028468Y006601D02*
X028618Y006601D01*
X028466Y006443D02*
X028777Y006443D01*
X028935Y006284D02*
X028528Y006284D01*
X028528Y006125D02*
X029094Y006125D01*
X029252Y005967D02*
X028583Y005967D01*
X028741Y005808D02*
X029411Y005808D01*
X029569Y005650D02*
X028900Y005650D01*
X029058Y005491D02*
X029728Y005491D01*
X029886Y005333D02*
X029217Y005333D01*
X029375Y005174D02*
X030045Y005174D01*
X030204Y005016D02*
X029534Y005016D01*
X029692Y004857D02*
X030362Y004857D01*
X029666Y004431D02*
X028091Y006006D01*
X028091Y006065D01*
X026910Y006065D01*
X026473Y006125D02*
X026442Y006125D01*
X026442Y006267D02*
X026473Y006298D01*
X026473Y005801D01*
X026509Y005713D01*
X026577Y005645D01*
X026665Y005609D01*
X027154Y005609D01*
X027242Y005645D01*
X027310Y005713D01*
X027323Y005745D01*
X027677Y005745D01*
X027690Y005713D01*
X027758Y005645D01*
X027846Y005609D01*
X028036Y005609D01*
X029484Y004160D01*
X029602Y004111D01*
X029729Y004111D01*
X031501Y004111D01*
X031618Y004160D01*
X031708Y004250D01*
X032004Y004546D01*
X032122Y004546D01*
X032297Y004618D01*
X032421Y004742D01*
X032545Y004618D01*
X032720Y004546D01*
X032910Y004546D01*
X033085Y004618D01*
X033209Y004742D01*
X033333Y004618D01*
X033508Y004546D01*
X033697Y004546D01*
X033872Y004618D01*
X033996Y004742D01*
X034120Y004618D01*
X034295Y004546D01*
X034414Y004546D01*
X035103Y003856D01*
X035193Y003766D01*
X035310Y003718D01*
X037471Y003718D01*
X037451Y003697D01*
X037378Y003522D01*
X037378Y003333D01*
X037397Y003288D01*
X037329Y003260D01*
X037195Y003126D01*
X037122Y002951D01*
X037122Y002762D01*
X037195Y002587D01*
X037329Y002453D01*
X037397Y002425D01*
X037378Y002381D01*
X037378Y002191D01*
X037451Y002016D01*
X037585Y001882D01*
X037760Y001810D01*
X037949Y001810D01*
X038063Y001857D01*
X038195Y001725D01*
X038370Y001652D01*
X038559Y001652D01*
X038734Y001725D01*
X038868Y001859D01*
X038941Y002034D01*
X038941Y002087D01*
X038944Y002086D01*
X038976Y002086D01*
X038976Y002502D01*
X038977Y002502D01*
X038977Y002503D01*
X039393Y002503D01*
X039393Y002535D01*
X039382Y002600D01*
X039362Y002662D01*
X039332Y002720D01*
X039294Y002774D01*
X039253Y002814D01*
X039380Y002941D01*
X039453Y003116D01*
X039453Y003306D01*
X039380Y003481D01*
X039246Y003615D01*
X039071Y003687D01*
X038938Y003687D01*
X038925Y003718D01*
X041413Y003718D01*
X041540Y003718D01*
X041658Y003766D01*
X042288Y004397D01*
X042349Y004397D01*
X042506Y004462D01*
X042627Y004583D01*
X042692Y004740D01*
X042692Y004910D01*
X042627Y005068D01*
X042506Y005188D01*
X042355Y005251D01*
X043008Y005904D01*
X043008Y005801D01*
X043045Y005713D01*
X043112Y005645D01*
X043125Y005640D01*
X043125Y002527D01*
X043125Y002399D01*
X043174Y002282D01*
X044051Y001404D01*
X044169Y001356D01*
X044296Y001356D01*
X045477Y001356D01*
X045595Y001404D01*
X045685Y001494D01*
X045823Y001632D01*
X045871Y001750D01*
X045871Y001775D01*
X045955Y001859D01*
X046024Y002026D01*
X046158Y002026D01*
X046333Y002099D01*
X046417Y002182D01*
X047436Y002182D01*
X046462Y001208D01*
X041796Y001208D01*
X041796Y002420D01*
X041930Y002553D01*
X042012Y002750D01*
X042012Y002963D01*
X041930Y003160D01*
X041780Y003310D01*
X041583Y003392D01*
X041370Y003392D01*
X041173Y003310D01*
X041023Y003160D01*
X040941Y002963D01*
X040941Y002750D01*
X041023Y002553D01*
X041157Y002420D01*
X041157Y001208D01*
X034710Y001208D01*
X034710Y002420D01*
X034844Y002553D01*
X034925Y002750D01*
X034925Y002963D01*
X034844Y003160D01*
X034693Y003310D01*
X034496Y003392D01*
X034283Y003392D01*
X034087Y003310D01*
X033936Y003160D01*
X033855Y002963D01*
X033855Y002750D01*
X033936Y002553D01*
X034070Y002420D01*
X034070Y001208D01*
X031225Y001208D01*
X031649Y001632D01*
X031698Y001750D01*
X031698Y001775D01*
X031782Y001859D01*
X031854Y002034D01*
X031854Y002087D01*
X031857Y002086D01*
X031890Y002086D01*
X031923Y002086D01*
X031987Y002096D01*
X032050Y002117D01*
X032108Y002146D01*
X032161Y002185D01*
X032207Y002231D01*
X032246Y002284D01*
X032276Y002343D01*
X032296Y002405D01*
X032306Y002470D01*
X032306Y002502D01*
X031890Y002502D01*
X031890Y002086D01*
X031890Y002502D01*
X031890Y002502D01*
X031890Y002503D01*
X032306Y002503D01*
X032306Y002535D01*
X032296Y002600D01*
X032276Y002662D01*
X032246Y002720D01*
X032207Y002774D01*
X032167Y002814D01*
X032294Y002941D01*
X032366Y003116D01*
X032366Y003306D01*
X032294Y003481D01*
X032160Y003615D01*
X031985Y003687D01*
X031851Y003687D01*
X031782Y003855D01*
X031648Y003989D01*
X031473Y004061D01*
X031283Y004061D01*
X031108Y003989D01*
X030976Y003857D01*
X030863Y003904D01*
X030673Y003904D01*
X030498Y003831D01*
X030364Y003697D01*
X030292Y003522D01*
X030292Y003333D01*
X030310Y003288D01*
X030242Y003260D01*
X030108Y003126D01*
X030036Y002951D01*
X030036Y002762D01*
X030108Y002587D01*
X030242Y002453D01*
X030310Y002425D01*
X030292Y002381D01*
X030292Y002191D01*
X030364Y002016D01*
X030498Y001882D01*
X030673Y001810D01*
X030863Y001810D01*
X030964Y001851D01*
X030714Y001602D01*
X030192Y001602D01*
X026442Y005351D01*
X026442Y006267D01*
X026459Y006284D02*
X026473Y006284D01*
X026473Y005967D02*
X026442Y005967D01*
X026442Y005808D02*
X026473Y005808D01*
X026442Y005650D02*
X026572Y005650D01*
X026442Y005491D02*
X028153Y005491D01*
X028312Y005333D02*
X026461Y005333D01*
X026619Y005174D02*
X028470Y005174D01*
X028629Y005016D02*
X026778Y005016D01*
X026937Y004857D02*
X028787Y004857D01*
X028946Y004699D02*
X027095Y004699D01*
X027254Y004540D02*
X029104Y004540D01*
X029263Y004381D02*
X027412Y004381D01*
X027571Y004223D02*
X029421Y004223D01*
X029666Y004431D02*
X031437Y004431D01*
X032028Y005022D01*
X032378Y004699D02*
X032465Y004699D01*
X032815Y005022D02*
X032421Y005416D01*
X032421Y007187D01*
X032028Y007581D01*
X032028Y007640D01*
X033209Y007640D01*
X033646Y007711D02*
X033953Y007711D01*
X033953Y007597D02*
X033953Y007904D01*
X033982Y007975D01*
X033953Y008045D01*
X033953Y008574D01*
X033979Y008636D01*
X033962Y008677D01*
X033962Y008847D01*
X034027Y009005D01*
X034147Y009125D01*
X034305Y009190D01*
X034475Y009190D01*
X034632Y009125D01*
X034753Y009005D01*
X034818Y008847D01*
X034818Y008677D01*
X034801Y008636D01*
X034827Y008574D01*
X034827Y008045D01*
X034798Y007975D01*
X034804Y007960D01*
X035157Y007960D01*
X035171Y007993D01*
X035205Y008027D01*
X035194Y008069D01*
X035194Y008291D01*
X035552Y008291D01*
X035552Y008328D01*
X035194Y008328D01*
X035194Y008550D01*
X035206Y008595D01*
X035230Y008636D01*
X035264Y008670D01*
X035305Y008694D01*
X035350Y008706D01*
X035553Y008706D01*
X035553Y008328D01*
X035589Y008328D01*
X035589Y008706D01*
X035792Y008706D01*
X035837Y008694D01*
X035842Y008691D01*
X035842Y009023D01*
X035890Y009140D01*
X035980Y009230D01*
X033400Y009230D01*
X032465Y008294D01*
X032465Y008045D01*
X032435Y007975D01*
X032441Y007960D01*
X032795Y007960D01*
X032809Y007993D01*
X032843Y008027D01*
X032832Y008069D01*
X032832Y008291D01*
X033190Y008291D01*
X033190Y008328D01*
X032832Y008328D01*
X032832Y008550D01*
X032844Y008595D01*
X032868Y008636D01*
X032901Y008670D01*
X032942Y008694D01*
X032988Y008706D01*
X033190Y008706D01*
X033190Y008328D01*
X033227Y008328D01*
X033227Y008706D01*
X033429Y008706D01*
X033475Y008694D01*
X033516Y008670D01*
X033550Y008636D01*
X033573Y008595D01*
X033586Y008550D01*
X033586Y008328D01*
X033227Y008328D01*
X033227Y008291D01*
X033586Y008291D01*
X033586Y008069D01*
X033574Y008027D01*
X033609Y007993D01*
X033646Y007904D01*
X033646Y007376D01*
X033609Y007288D01*
X033542Y007220D01*
X033453Y007184D01*
X032964Y007184D01*
X032876Y007220D01*
X032809Y007288D01*
X032795Y007320D01*
X032713Y007320D01*
X032741Y007251D01*
X032741Y007124D01*
X032741Y006482D01*
X032910Y006482D01*
X033085Y006410D01*
X033209Y006286D01*
X033333Y006410D01*
X033508Y006482D01*
X033676Y006482D01*
X033676Y007124D01*
X033676Y007251D01*
X033725Y007369D01*
X033953Y007597D01*
X033909Y007552D02*
X033646Y007552D01*
X033646Y007394D02*
X033750Y007394D01*
X033676Y007235D02*
X033557Y007235D01*
X033676Y007077D02*
X032741Y007077D01*
X032741Y007235D02*
X032861Y007235D01*
X032741Y006918D02*
X033676Y006918D01*
X033676Y006760D02*
X032741Y006760D01*
X032741Y006601D02*
X033676Y006601D01*
X033411Y006443D02*
X033006Y006443D01*
X033209Y006400D02*
X033209Y004431D01*
X033165Y004699D02*
X033253Y004699D01*
X033603Y005022D02*
X033996Y005416D01*
X033996Y007187D01*
X034390Y007581D01*
X034390Y007640D01*
X035571Y007640D01*
X035827Y007640D01*
X036162Y007975D01*
X036162Y008959D01*
X036358Y009156D01*
X045807Y009156D01*
X046595Y008369D01*
X046595Y006735D01*
X047031Y006760D02*
X047399Y006760D01*
X047399Y006753D02*
X047757Y006753D01*
X047757Y006716D01*
X047399Y006716D01*
X047399Y006494D01*
X047410Y006453D01*
X047375Y006418D01*
X047362Y006385D01*
X047008Y006385D01*
X047002Y006400D01*
X047031Y006470D01*
X047031Y006999D01*
X046995Y007087D01*
X046927Y007155D01*
X046915Y007160D01*
X046915Y008305D01*
X046915Y008432D01*
X046866Y008550D01*
X046186Y009230D01*
X046462Y009230D01*
X048243Y007449D01*
X048243Y003777D01*
X047289Y002822D01*
X046417Y002822D01*
X046382Y002857D01*
X046467Y002941D01*
X046539Y003116D01*
X046539Y003306D01*
X046467Y003481D01*
X046333Y003615D01*
X046158Y003687D01*
X045968Y003687D01*
X045957Y003683D01*
X045937Y003745D01*
X045907Y003803D01*
X045869Y003856D01*
X045822Y003902D01*
X045769Y003941D01*
X045711Y003971D01*
X045649Y003991D01*
X045584Y004001D01*
X045551Y004001D01*
X045519Y004001D01*
X045454Y003991D01*
X045392Y003971D01*
X045333Y003941D01*
X045280Y003902D01*
X045234Y003856D01*
X045195Y003803D01*
X045178Y003770D01*
X045159Y003784D01*
X045101Y003813D01*
X045039Y003834D01*
X044974Y003844D01*
X044941Y003844D01*
X044908Y003844D01*
X044844Y003834D01*
X044781Y003813D01*
X044723Y003784D01*
X044670Y003745D01*
X044624Y003699D01*
X044585Y003646D01*
X044555Y003587D01*
X044535Y003525D01*
X044525Y003460D01*
X044525Y003428D01*
X044941Y003428D01*
X044941Y003844D01*
X044941Y003428D01*
X044941Y003428D01*
X044941Y003427D01*
X044525Y003427D01*
X044525Y003395D01*
X044535Y003330D01*
X044541Y003312D01*
X044415Y003260D01*
X044281Y003126D01*
X044209Y002951D01*
X044209Y002762D01*
X044281Y002587D01*
X044415Y002453D01*
X044483Y002425D01*
X044465Y002381D01*
X044465Y002191D01*
X044537Y002016D01*
X044558Y001996D01*
X044365Y001996D01*
X043765Y002596D01*
X043765Y005640D01*
X043778Y005645D01*
X043845Y005713D01*
X043882Y005801D01*
X043882Y006330D01*
X043853Y006400D01*
X043859Y006415D01*
X044212Y006415D01*
X044226Y006382D01*
X044261Y006347D01*
X044249Y006306D01*
X044249Y006084D01*
X044607Y006084D01*
X044607Y006047D01*
X044249Y006047D01*
X044249Y005825D01*
X044262Y005779D01*
X044285Y005738D01*
X044319Y005705D01*
X044360Y005681D01*
X044406Y005669D01*
X044608Y005669D01*
X044608Y006047D01*
X044645Y006047D01*
X044645Y006084D01*
X045003Y006084D01*
X045003Y006306D01*
X044992Y006347D01*
X045026Y006382D01*
X045063Y006470D01*
X045063Y006999D01*
X045026Y007087D01*
X044959Y007155D01*
X044871Y007191D01*
X044382Y007191D01*
X044293Y007155D01*
X044226Y007087D01*
X044212Y007055D01*
X043859Y007055D01*
X043845Y007087D01*
X043778Y007155D01*
X043690Y007191D01*
X043200Y007191D01*
X043112Y007155D01*
X043045Y007087D01*
X043008Y006999D01*
X043008Y006809D01*
X041738Y005539D01*
X039936Y005539D01*
X039936Y005588D01*
X039984Y005636D01*
X040051Y005609D01*
X040540Y005609D01*
X040628Y005645D01*
X040696Y005713D01*
X040732Y005801D01*
X040732Y006330D01*
X040703Y006400D01*
X040709Y006415D01*
X041063Y006415D01*
X041076Y006382D01*
X041111Y006347D01*
X041100Y006306D01*
X041100Y006084D01*
X041458Y006084D01*
X041458Y006047D01*
X041100Y006047D01*
X041100Y005825D01*
X041112Y005779D01*
X041136Y005738D01*
X041169Y005705D01*
X041210Y005681D01*
X041256Y005669D01*
X041458Y005669D01*
X041458Y006047D01*
X041495Y006047D01*
X041495Y006084D01*
X041853Y006084D01*
X041853Y006306D01*
X041842Y006347D01*
X041877Y006382D01*
X041913Y006470D01*
X041913Y006999D01*
X041877Y007087D01*
X041809Y007155D01*
X041721Y007191D01*
X041232Y007191D01*
X041144Y007155D01*
X041076Y007087D01*
X041063Y007055D01*
X040709Y007055D01*
X040696Y007087D01*
X040628Y007155D01*
X040615Y007160D01*
X040615Y007251D01*
X040567Y007369D01*
X040477Y007459D01*
X040330Y007606D01*
X040330Y007666D01*
X040265Y007824D01*
X040144Y007944D01*
X039987Y008009D01*
X039817Y008009D01*
X039659Y007944D01*
X039539Y007824D01*
X039474Y007666D01*
X039474Y007496D01*
X039539Y007339D01*
X039659Y007218D01*
X039817Y007153D01*
X039877Y007153D01*
X039919Y007111D01*
X039895Y007087D01*
X039859Y006999D01*
X039859Y006470D01*
X039888Y006400D01*
X039859Y006330D01*
X039859Y006326D01*
X039838Y006326D01*
X039720Y006278D01*
X039630Y006188D01*
X039484Y006041D01*
X039423Y006041D01*
X039266Y005976D01*
X039145Y005855D01*
X039080Y005698D01*
X039080Y005539D01*
X038460Y005539D01*
X038362Y005498D01*
X038232Y005498D01*
X038057Y005426D01*
X037933Y005302D01*
X037809Y005426D01*
X037634Y005498D01*
X037445Y005498D01*
X037270Y005426D01*
X037146Y005302D01*
X037022Y005426D01*
X036847Y005498D01*
X036657Y005498D01*
X036482Y005426D01*
X036358Y005302D01*
X036234Y005426D01*
X036059Y005498D01*
X035941Y005498D01*
X035891Y005548D01*
X035891Y005597D01*
X035932Y005590D01*
X035964Y005590D01*
X035964Y006006D01*
X035965Y006006D01*
X035965Y006006D01*
X036336Y006006D01*
X036752Y006006D01*
X036752Y006006D01*
X036752Y005590D01*
X036719Y005590D01*
X036655Y005600D01*
X036592Y005621D01*
X036534Y005650D01*
X036481Y005689D01*
X036435Y005735D01*
X036396Y005788D01*
X036366Y005846D01*
X036358Y005871D01*
X036350Y005846D01*
X036321Y005788D01*
X036282Y005735D01*
X036236Y005689D01*
X036183Y005650D01*
X036124Y005621D01*
X036062Y005600D01*
X035997Y005590D01*
X035965Y005590D01*
X035965Y006006D01*
X036336Y006006D01*
X036752Y006006D01*
X036752Y005590D01*
X036785Y005590D01*
X036850Y005600D01*
X036912Y005621D01*
X036970Y005650D01*
X037023Y005689D01*
X037070Y005735D01*
X037108Y005788D01*
X037112Y005795D01*
X037136Y005737D01*
X037270Y005603D01*
X037445Y005530D01*
X037634Y005530D01*
X037809Y005603D01*
X037933Y005727D01*
X038057Y005603D01*
X038232Y005530D01*
X038422Y005530D01*
X038597Y005603D01*
X038731Y005737D01*
X038803Y005912D01*
X038803Y006101D01*
X038731Y006276D01*
X038597Y006410D01*
X038422Y006482D01*
X038232Y006482D01*
X038057Y006410D01*
X037933Y006286D01*
X037809Y006410D01*
X037634Y006482D01*
X037445Y006482D01*
X037270Y006410D01*
X037136Y006276D01*
X037112Y006218D01*
X037108Y006224D01*
X037070Y006277D01*
X037023Y006324D01*
X036970Y006362D01*
X036912Y006392D01*
X036850Y006412D01*
X036785Y006422D01*
X036752Y006422D01*
X036719Y006422D01*
X036655Y006412D01*
X036592Y006392D01*
X036534Y006362D01*
X036481Y006324D01*
X036435Y006277D01*
X036396Y006224D01*
X036366Y006166D01*
X036358Y006141D01*
X036350Y006166D01*
X036321Y006224D01*
X036282Y006277D01*
X036236Y006324D01*
X036183Y006362D01*
X036124Y006392D01*
X036062Y006412D01*
X035997Y006422D01*
X035965Y006422D01*
X035965Y006007D01*
X035964Y006007D01*
X035964Y006422D01*
X035932Y006422D01*
X035891Y006416D01*
X035891Y006661D01*
X036441Y007211D01*
X036508Y007184D01*
X036997Y007184D01*
X037085Y007220D01*
X037152Y007288D01*
X037166Y007320D01*
X037519Y007320D01*
X037533Y007288D01*
X037600Y007220D01*
X037689Y007184D01*
X038178Y007184D01*
X038266Y007220D01*
X038334Y007288D01*
X038370Y007376D01*
X038370Y007904D01*
X038334Y007993D01*
X038299Y008027D01*
X038310Y008069D01*
X038310Y008291D01*
X037952Y008291D01*
X037952Y008328D01*
X038310Y008328D01*
X038310Y008550D01*
X038298Y008595D01*
X038274Y008636D01*
X038241Y008670D01*
X038200Y008694D01*
X038154Y008706D01*
X037952Y008706D01*
X037952Y008328D01*
X037915Y008328D01*
X037915Y008706D01*
X037713Y008706D01*
X037667Y008694D01*
X037626Y008670D01*
X037592Y008636D01*
X037569Y008595D01*
X037556Y008550D01*
X037556Y008328D01*
X037915Y008328D01*
X037915Y008291D01*
X037556Y008291D01*
X037556Y008069D01*
X037568Y008027D01*
X037533Y007993D01*
X037519Y007960D01*
X037166Y007960D01*
X037160Y007975D01*
X037189Y008045D01*
X037189Y008574D01*
X037163Y008636D01*
X037180Y008677D01*
X037180Y008836D01*
X045675Y008836D01*
X046275Y008236D01*
X046275Y007160D01*
X046262Y007155D01*
X046194Y007087D01*
X046158Y006999D01*
X046158Y006470D01*
X046187Y006400D01*
X046158Y006330D01*
X046158Y005801D01*
X046184Y005739D01*
X046167Y005698D01*
X046167Y005527D01*
X046232Y005370D01*
X046352Y005250D01*
X046509Y005184D01*
X046680Y005184D01*
X046837Y005250D01*
X046958Y005370D01*
X047023Y005527D01*
X047023Y005698D01*
X047006Y005739D01*
X047008Y005745D01*
X047362Y005745D01*
X047375Y005713D01*
X047443Y005645D01*
X047531Y005609D01*
X048020Y005609D01*
X048109Y005645D01*
X048176Y005713D01*
X048213Y005801D01*
X048213Y006330D01*
X048176Y006418D01*
X048141Y006453D01*
X048153Y006494D01*
X048153Y006716D01*
X047794Y006716D01*
X047794Y006753D01*
X047757Y006753D01*
X047757Y007131D01*
X047555Y007131D01*
X047509Y007119D01*
X047468Y007095D01*
X047435Y007062D01*
X047411Y007021D01*
X047399Y006975D01*
X047399Y006753D01*
X047399Y006601D02*
X047031Y006601D01*
X047020Y006443D02*
X047400Y006443D01*
X047757Y006760D02*
X047794Y006760D01*
X047794Y006753D02*
X047794Y007131D01*
X047996Y007131D01*
X048042Y007119D01*
X048083Y007095D01*
X048117Y007062D01*
X048140Y007021D01*
X048153Y006975D01*
X048153Y006753D01*
X047794Y006753D01*
X047794Y006918D02*
X047757Y006918D01*
X047757Y007077D02*
X047794Y007077D01*
X048102Y007077D02*
X048243Y007077D01*
X048243Y007235D02*
X046915Y007235D01*
X046915Y007394D02*
X048243Y007394D01*
X048139Y007552D02*
X046915Y007552D01*
X046915Y007711D02*
X047981Y007711D01*
X047822Y007869D02*
X046915Y007869D01*
X046915Y008028D02*
X047664Y008028D01*
X047505Y008186D02*
X046915Y008186D01*
X046915Y008345D02*
X047347Y008345D01*
X047188Y008504D02*
X046885Y008504D01*
X046754Y008662D02*
X047030Y008662D01*
X046871Y008821D02*
X046595Y008821D01*
X046712Y008979D02*
X046436Y008979D01*
X046554Y009138D02*
X046278Y009138D01*
X045690Y008821D02*
X037180Y008821D01*
X037174Y008662D02*
X037618Y008662D01*
X037556Y008504D02*
X037189Y008504D01*
X037189Y008345D02*
X037556Y008345D01*
X037556Y008186D02*
X037189Y008186D01*
X037182Y008028D02*
X037567Y008028D01*
X037915Y008345D02*
X037952Y008345D01*
X037952Y008504D02*
X037915Y008504D01*
X037915Y008662D02*
X037952Y008662D01*
X038248Y008662D02*
X041799Y008662D01*
X041866Y008690D02*
X041603Y008581D01*
X041402Y008380D01*
X041293Y008117D01*
X041293Y007833D01*
X041402Y007570D01*
X041603Y007369D01*
X041866Y007260D01*
X042150Y007260D01*
X042413Y007369D01*
X042614Y007570D01*
X042723Y007833D01*
X042723Y008117D01*
X042614Y008380D01*
X042413Y008581D01*
X042150Y008690D01*
X041866Y008690D01*
X042217Y008662D02*
X044673Y008662D01*
X044740Y008690D02*
X044477Y008581D01*
X044276Y008380D01*
X044167Y008117D01*
X044167Y007833D01*
X044276Y007570D01*
X044477Y007369D01*
X044740Y007260D01*
X045024Y007260D01*
X045287Y007369D01*
X045488Y007570D01*
X045597Y007833D01*
X045597Y008117D01*
X045488Y008380D01*
X045287Y008581D01*
X045024Y008690D01*
X044740Y008690D01*
X045091Y008662D02*
X045848Y008662D01*
X046007Y008504D02*
X045364Y008504D01*
X045503Y008345D02*
X046166Y008345D01*
X046275Y008186D02*
X045568Y008186D01*
X045597Y008028D02*
X046275Y008028D01*
X046275Y007869D02*
X045597Y007869D01*
X045547Y007711D02*
X046275Y007711D01*
X046275Y007552D02*
X045471Y007552D01*
X045312Y007394D02*
X046275Y007394D01*
X046275Y007235D02*
X040615Y007235D01*
X040542Y007394D02*
X041578Y007394D01*
X041419Y007552D02*
X040383Y007552D01*
X040477Y007459D02*
X040477Y007459D01*
X040311Y007711D02*
X041343Y007711D01*
X041293Y007869D02*
X040219Y007869D01*
X039902Y007581D02*
X040295Y007187D01*
X040295Y006735D01*
X041477Y006735D01*
X041913Y006760D02*
X042958Y006760D01*
X043008Y006918D02*
X041913Y006918D01*
X041881Y007077D02*
X043040Y007077D01*
X043386Y006735D02*
X043445Y006735D01*
X044626Y006735D01*
X045063Y006760D02*
X046158Y006760D01*
X046158Y006918D02*
X045063Y006918D01*
X045031Y007077D02*
X046190Y007077D01*
X046158Y006601D02*
X045063Y006601D01*
X045051Y006443D02*
X046169Y006443D01*
X046158Y006284D02*
X045003Y006284D01*
X045003Y006125D02*
X046158Y006125D01*
X046158Y005967D02*
X045003Y005967D01*
X045003Y006047D02*
X044645Y006047D01*
X044645Y005669D01*
X044847Y005669D01*
X044892Y005681D01*
X044934Y005705D01*
X044967Y005738D01*
X044991Y005779D01*
X045003Y005825D01*
X045003Y006047D01*
X044998Y005808D02*
X046158Y005808D01*
X046167Y005650D02*
X043782Y005650D01*
X043765Y005491D02*
X046181Y005491D01*
X046269Y005333D02*
X043765Y005333D01*
X043765Y005174D02*
X048243Y005174D01*
X048243Y005016D02*
X043765Y005016D01*
X043765Y004857D02*
X048243Y004857D01*
X048243Y004699D02*
X043765Y004699D01*
X043765Y004540D02*
X048243Y004540D01*
X048243Y004381D02*
X043765Y004381D01*
X043765Y004223D02*
X048243Y004223D01*
X048243Y004064D02*
X043765Y004064D01*
X043765Y003906D02*
X045285Y003906D01*
X045551Y003906D02*
X045551Y003906D01*
X045551Y004001D02*
X045551Y003585D01*
X045414Y003447D01*
X045020Y003447D01*
X044941Y003430D02*
X044941Y003430D01*
X044941Y003589D02*
X044941Y003589D01*
X044941Y003747D02*
X044941Y003747D01*
X044673Y003747D02*
X043765Y003747D01*
X043765Y003589D02*
X044556Y003589D01*
X044525Y003430D02*
X043765Y003430D01*
X043765Y003272D02*
X044443Y003272D01*
X044276Y003113D02*
X043765Y003113D01*
X043765Y002955D02*
X044210Y002955D01*
X044209Y002796D02*
X043765Y002796D01*
X043765Y002637D02*
X044261Y002637D01*
X044389Y002479D02*
X043882Y002479D01*
X044040Y002320D02*
X044465Y002320D01*
X044477Y002162D02*
X044199Y002162D01*
X044357Y002003D02*
X044550Y002003D01*
X044232Y001676D02*
X043445Y002463D01*
X043445Y006065D01*
X043882Y006125D02*
X044249Y006125D01*
X044249Y005967D02*
X043882Y005967D01*
X043882Y005808D02*
X044254Y005808D01*
X044608Y005808D02*
X044645Y005808D01*
X044645Y005967D02*
X044608Y005967D01*
X044249Y006284D02*
X043882Y006284D01*
X043386Y006735D02*
X041870Y005219D01*
X038524Y005219D01*
X038327Y005022D01*
X037964Y005333D02*
X037902Y005333D01*
X037651Y005491D02*
X038215Y005491D01*
X038010Y005650D02*
X037856Y005650D01*
X037428Y005491D02*
X036864Y005491D01*
X036969Y005650D02*
X037223Y005650D01*
X036752Y005650D02*
X036752Y005650D01*
X036752Y005808D02*
X036752Y005808D01*
X036752Y005967D02*
X036752Y005967D01*
X036752Y006006D02*
X036752Y006006D01*
X036752Y006007D02*
X036752Y006422D01*
X036752Y006007D01*
X036752Y006007D01*
X036752Y006125D02*
X036752Y006125D01*
X036752Y006284D02*
X036752Y006284D01*
X036441Y006284D02*
X036276Y006284D01*
X035965Y006284D02*
X035964Y006284D01*
X035964Y006125D02*
X035965Y006125D01*
X035964Y005967D02*
X035965Y005967D01*
X035964Y005808D02*
X035965Y005808D01*
X035964Y005650D02*
X035965Y005650D01*
X036076Y005491D02*
X036641Y005491D01*
X036535Y005650D02*
X036182Y005650D01*
X036331Y005808D02*
X036386Y005808D01*
X036389Y005333D02*
X036327Y005333D01*
X035965Y005022D02*
X035571Y005416D01*
X035571Y006794D01*
X036417Y007640D01*
X036752Y007640D01*
X037933Y007640D01*
X038370Y007711D02*
X039492Y007711D01*
X039474Y007552D02*
X038370Y007552D01*
X038370Y007394D02*
X039516Y007394D01*
X039642Y007235D02*
X038281Y007235D01*
X037585Y007235D02*
X037100Y007235D01*
X036307Y007077D02*
X039891Y007077D01*
X039859Y006918D02*
X036148Y006918D01*
X035989Y006760D02*
X039859Y006760D01*
X039859Y006601D02*
X035891Y006601D01*
X035891Y006443D02*
X037348Y006443D01*
X037144Y006284D02*
X037063Y006284D01*
X037731Y006443D02*
X038136Y006443D01*
X038518Y006443D02*
X039870Y006443D01*
X039736Y006284D02*
X038723Y006284D01*
X038793Y006125D02*
X039568Y006125D01*
X039257Y005967D02*
X038803Y005967D01*
X038760Y005808D02*
X039126Y005808D01*
X039080Y005650D02*
X038644Y005650D01*
X039508Y005613D02*
X039902Y006006D01*
X040236Y006006D01*
X040295Y006065D01*
X040732Y006125D02*
X041100Y006125D01*
X041100Y005967D02*
X040732Y005967D01*
X040732Y005808D02*
X041104Y005808D01*
X041458Y005808D02*
X041495Y005808D01*
X041495Y005669D02*
X041697Y005669D01*
X041743Y005681D01*
X041784Y005705D01*
X041817Y005738D01*
X041841Y005779D01*
X041853Y005825D01*
X041853Y006047D01*
X041495Y006047D01*
X041495Y005669D01*
X041495Y005967D02*
X041458Y005967D01*
X041853Y005967D02*
X042166Y005967D01*
X042324Y006125D02*
X041853Y006125D01*
X041853Y006284D02*
X042483Y006284D01*
X042641Y006443D02*
X041902Y006443D01*
X041913Y006601D02*
X042800Y006601D01*
X043850Y007077D02*
X044222Y007077D01*
X044452Y007394D02*
X042438Y007394D01*
X042597Y007552D02*
X044293Y007552D01*
X044217Y007711D02*
X042673Y007711D01*
X042723Y007869D02*
X044167Y007869D01*
X044167Y008028D02*
X042723Y008028D01*
X042694Y008186D02*
X044196Y008186D01*
X044262Y008345D02*
X042629Y008345D01*
X042490Y008504D02*
X044400Y008504D01*
X046595Y009550D02*
X048563Y007581D01*
X048563Y003644D01*
X047421Y002502D01*
X046063Y002502D01*
X046396Y002162D02*
X047416Y002162D01*
X047257Y002003D02*
X046015Y002003D01*
X045941Y001845D02*
X047099Y001845D01*
X046940Y001686D02*
X045845Y001686D01*
X045718Y001528D02*
X046782Y001528D01*
X046623Y001369D02*
X045510Y001369D01*
X045414Y001676D02*
X044232Y001676D01*
X044136Y001369D02*
X041796Y001369D01*
X041796Y001211D02*
X046465Y001211D01*
X046595Y000888D02*
X048563Y002857D01*
X048942Y002479D02*
X048957Y002479D01*
X048957Y002320D02*
X048479Y002320D01*
X048321Y002162D02*
X048957Y002162D01*
X048957Y002003D02*
X048162Y002003D01*
X048004Y001845D02*
X048957Y001845D01*
X048957Y001686D02*
X047845Y001686D01*
X047687Y001528D02*
X048957Y001528D01*
X048957Y001369D02*
X047528Y001369D01*
X047370Y001211D02*
X048957Y001211D01*
X048957Y001052D02*
X047211Y001052D01*
X047053Y000894D02*
X048957Y000894D01*
X048957Y000735D02*
X046894Y000735D01*
X046678Y000576D02*
X048957Y000576D01*
X046595Y000888D02*
X041477Y000888D01*
X041477Y002857D01*
X041965Y002637D02*
X043125Y002637D01*
X043125Y002479D02*
X041856Y002479D01*
X041796Y002320D02*
X043158Y002320D01*
X043294Y002162D02*
X041796Y002162D01*
X041796Y002003D02*
X043452Y002003D01*
X043611Y001845D02*
X041796Y001845D01*
X041796Y001686D02*
X043769Y001686D01*
X043928Y001528D02*
X041796Y001528D01*
X041157Y001528D02*
X034710Y001528D01*
X034710Y001686D02*
X038288Y001686D01*
X038075Y001845D02*
X038034Y001845D01*
X037675Y001845D02*
X034710Y001845D01*
X034710Y002003D02*
X037464Y002003D01*
X037390Y002162D02*
X034710Y002162D01*
X034710Y002320D02*
X037378Y002320D01*
X037303Y002479D02*
X034769Y002479D01*
X034878Y002637D02*
X037174Y002637D01*
X037122Y002796D02*
X034925Y002796D01*
X034925Y002955D02*
X037124Y002955D01*
X037189Y003113D02*
X034863Y003113D01*
X034732Y003272D02*
X037356Y003272D01*
X037378Y003430D02*
X032315Y003430D01*
X032366Y003272D02*
X034048Y003272D01*
X033917Y003113D02*
X032365Y003113D01*
X032299Y002955D02*
X033855Y002955D01*
X033855Y002796D02*
X032185Y002796D01*
X032284Y002637D02*
X033901Y002637D01*
X034011Y002479D02*
X032306Y002479D01*
X032264Y002320D02*
X034070Y002320D01*
X034070Y002162D02*
X032129Y002162D01*
X031890Y002162D02*
X031890Y002162D01*
X031890Y002320D02*
X031890Y002320D01*
X031890Y002479D02*
X031890Y002479D01*
X031378Y002128D02*
X031378Y001813D01*
X030847Y001282D01*
X030059Y001282D01*
X026122Y005219D01*
X026122Y006400D01*
X025802Y005808D02*
X024920Y005808D01*
X024171Y006284D02*
X023803Y006284D01*
X023366Y006735D02*
X024547Y006735D01*
X024143Y007077D02*
X023771Y007077D01*
X024255Y007394D02*
X021398Y007394D01*
X021398Y007552D02*
X024096Y007552D01*
X024021Y007711D02*
X021398Y007711D01*
X021398Y007869D02*
X023970Y007869D01*
X023970Y008028D02*
X021398Y008028D01*
X021398Y008186D02*
X023999Y008186D01*
X024065Y008345D02*
X021398Y008345D01*
X021398Y008504D02*
X024203Y008504D01*
X024952Y007077D02*
X025559Y007077D01*
X025802Y005650D02*
X023704Y005650D01*
X023245Y005491D02*
X025802Y005491D01*
X025802Y005333D02*
X023086Y005333D01*
X022928Y005174D02*
X025802Y005174D01*
X025873Y005016D02*
X022899Y005016D01*
X022899Y004857D02*
X026031Y004857D01*
X026190Y004699D02*
X022899Y004699D01*
X022899Y004540D02*
X026349Y004540D01*
X026507Y004381D02*
X022899Y004381D01*
X022899Y004223D02*
X026666Y004223D01*
X026824Y004064D02*
X022899Y004064D01*
X022899Y003906D02*
X023939Y003906D01*
X023328Y003747D02*
X022899Y003747D01*
X022899Y003589D02*
X023233Y003589D01*
X023205Y003430D02*
X022899Y003430D01*
X022899Y003272D02*
X023183Y003272D01*
X023016Y003113D02*
X022899Y003113D01*
X022899Y002955D02*
X022950Y002955D01*
X022949Y002796D02*
X022899Y002796D01*
X022899Y002637D02*
X023001Y002637D01*
X022899Y002479D02*
X023130Y002479D01*
X023205Y002320D02*
X022899Y002320D01*
X022899Y002162D02*
X023217Y002162D01*
X023290Y002003D02*
X022899Y002003D01*
X022899Y001845D02*
X023502Y001845D01*
X023712Y001686D02*
X023021Y001686D01*
X022973Y001282D02*
X023760Y001282D01*
X024291Y001813D01*
X024291Y002128D01*
X024755Y002003D02*
X027704Y002003D01*
X027863Y001845D02*
X024681Y001845D01*
X024585Y001686D02*
X028021Y001686D01*
X028180Y001528D02*
X024458Y001528D01*
X024300Y001369D02*
X028338Y001369D01*
X028497Y001211D02*
X024141Y001211D01*
X023983Y001052D02*
X028655Y001052D01*
X028814Y000894D02*
X021398Y000894D01*
X021398Y000735D02*
X028972Y000735D01*
X029188Y000576D02*
X021398Y000576D01*
X023861Y001845D02*
X023870Y001845D01*
X024803Y002162D02*
X024803Y002162D01*
X024803Y002320D02*
X024803Y002320D01*
X024803Y002479D02*
X024803Y002479D01*
X025043Y002162D02*
X027546Y002162D01*
X027387Y002320D02*
X025178Y002320D01*
X025219Y002479D02*
X026924Y002479D01*
X026815Y002637D02*
X025197Y002637D01*
X025098Y002796D02*
X026768Y002796D01*
X026768Y002955D02*
X025212Y002955D01*
X025278Y003113D02*
X026830Y003113D01*
X026961Y003272D02*
X025279Y003272D01*
X025228Y003430D02*
X027458Y003430D01*
X027300Y003589D02*
X025099Y003589D01*
X024740Y003747D02*
X027141Y003747D01*
X026983Y003906D02*
X024644Y003906D01*
X027303Y002857D02*
X029272Y000888D01*
X034390Y000888D01*
X034390Y002857D01*
X035239Y003747D02*
X031826Y003747D01*
X031731Y003906D02*
X035054Y003906D01*
X034895Y004064D02*
X027729Y004064D01*
X027888Y003906D02*
X031025Y003906D01*
X030414Y003747D02*
X028046Y003747D01*
X028205Y003589D02*
X030319Y003589D01*
X030292Y003430D02*
X028363Y003430D01*
X028522Y003272D02*
X030269Y003272D01*
X030103Y003113D02*
X028681Y003113D01*
X028839Y002955D02*
X030037Y002955D01*
X030036Y002796D02*
X028998Y002796D01*
X029156Y002637D02*
X030087Y002637D01*
X030216Y002479D02*
X029315Y002479D01*
X029473Y002320D02*
X030292Y002320D01*
X030304Y002162D02*
X029632Y002162D01*
X029790Y002003D02*
X030377Y002003D01*
X030588Y001845D02*
X029949Y001845D01*
X030107Y001686D02*
X030798Y001686D01*
X030947Y001845D02*
X030957Y001845D01*
X031386Y001369D02*
X034070Y001369D01*
X034070Y001211D02*
X031228Y001211D01*
X031545Y001528D02*
X034070Y001528D01*
X034070Y001686D02*
X031672Y001686D01*
X031768Y001845D02*
X034070Y001845D01*
X034070Y002003D02*
X031842Y002003D01*
X034390Y000888D02*
X041477Y000888D01*
X041157Y001211D02*
X034710Y001211D01*
X034710Y001369D02*
X041157Y001369D01*
X041157Y001686D02*
X038642Y001686D01*
X038855Y001845D02*
X041157Y001845D01*
X041157Y002003D02*
X038928Y002003D01*
X038977Y002086D02*
X039009Y002086D01*
X039074Y002096D01*
X039136Y002117D01*
X039195Y002146D01*
X039248Y002185D01*
X039294Y002231D01*
X039332Y002284D01*
X039362Y002343D01*
X039382Y002405D01*
X039393Y002470D01*
X039393Y002502D01*
X038977Y002502D01*
X038977Y002086D01*
X038976Y002162D02*
X038977Y002162D01*
X038976Y002320D02*
X038977Y002320D01*
X038976Y002479D02*
X038977Y002479D01*
X039216Y002162D02*
X041157Y002162D01*
X041157Y002320D02*
X039351Y002320D01*
X039393Y002479D02*
X041097Y002479D01*
X040988Y002637D02*
X039370Y002637D01*
X039271Y002796D02*
X040941Y002796D01*
X040941Y002955D02*
X039386Y002955D01*
X039451Y003113D02*
X041003Y003113D01*
X041135Y003272D02*
X039453Y003272D01*
X039401Y003430D02*
X043125Y003430D01*
X043125Y003272D02*
X041819Y003272D01*
X041950Y003113D02*
X043125Y003113D01*
X043125Y002955D02*
X042012Y002955D01*
X042012Y002796D02*
X043125Y002796D01*
X043125Y003589D02*
X039272Y003589D01*
X037933Y004431D02*
X041083Y004431D01*
X041477Y004825D01*
X041477Y004038D02*
X042264Y004825D01*
X042584Y004540D02*
X043125Y004540D01*
X043125Y004381D02*
X042273Y004381D01*
X042114Y004223D02*
X043125Y004223D01*
X043125Y004064D02*
X041956Y004064D01*
X041797Y003906D02*
X043125Y003906D01*
X043125Y003747D02*
X041611Y003747D01*
X041477Y004038D02*
X035374Y004038D01*
X034390Y005022D01*
X034040Y004699D02*
X033952Y004699D01*
X034419Y004540D02*
X031998Y004540D01*
X031840Y004381D02*
X034578Y004381D01*
X034736Y004223D02*
X031681Y004223D01*
X032186Y003589D02*
X037406Y003589D01*
X037933Y004431D02*
X037540Y004825D01*
X037540Y005022D01*
X037177Y005333D02*
X037115Y005333D01*
X040633Y005650D02*
X041849Y005650D01*
X041849Y005808D02*
X042007Y005808D01*
X042437Y005333D02*
X043125Y005333D01*
X043125Y005491D02*
X042595Y005491D01*
X042754Y005650D02*
X043108Y005650D01*
X043008Y005808D02*
X042912Y005808D01*
X043125Y005174D02*
X042520Y005174D01*
X042648Y005016D02*
X043125Y005016D01*
X043125Y004857D02*
X042692Y004857D01*
X042675Y004699D02*
X043125Y004699D01*
X045414Y003644D02*
X045414Y003447D01*
X045414Y002857D01*
X046472Y002955D02*
X047421Y002955D01*
X047580Y003113D02*
X046538Y003113D01*
X046539Y003272D02*
X047738Y003272D01*
X047897Y003430D02*
X046488Y003430D01*
X046359Y003589D02*
X048055Y003589D01*
X048214Y003747D02*
X045936Y003747D01*
X045818Y003906D02*
X048243Y003906D01*
X048243Y005333D02*
X046920Y005333D01*
X047008Y005491D02*
X048243Y005491D01*
X048243Y005650D02*
X048113Y005650D01*
X048213Y005808D02*
X048243Y005808D01*
X048243Y005967D02*
X048213Y005967D01*
X048213Y006125D02*
X048243Y006125D01*
X048243Y006284D02*
X048213Y006284D01*
X048243Y006443D02*
X048151Y006443D01*
X048153Y006601D02*
X048243Y006601D01*
X048243Y006760D02*
X048153Y006760D01*
X048153Y006918D02*
X048243Y006918D01*
X047450Y007077D02*
X046999Y007077D01*
X047031Y006918D02*
X047399Y006918D01*
X047776Y006065D02*
X046595Y006065D01*
X046595Y005613D01*
X047023Y005650D02*
X047438Y005650D01*
X045551Y004001D02*
X045551Y003585D01*
X045551Y003585D01*
X045551Y003589D02*
X045551Y003589D01*
X045551Y003747D02*
X045551Y003747D01*
X045551Y002128D02*
X045551Y001813D01*
X045414Y001676D01*
X041100Y006284D02*
X040732Y006284D01*
X040700Y007077D02*
X041072Y007077D01*
X039585Y007869D02*
X038370Y007869D01*
X038299Y008028D02*
X041293Y008028D01*
X041322Y008186D02*
X038310Y008186D01*
X038310Y008345D02*
X041388Y008345D01*
X041526Y008504D02*
X038310Y008504D01*
X036752Y008309D02*
X036752Y008762D01*
X035842Y008821D02*
X034818Y008821D01*
X034812Y008662D02*
X035256Y008662D01*
X035194Y008504D02*
X034827Y008504D01*
X034827Y008345D02*
X035194Y008345D01*
X035194Y008186D02*
X034827Y008186D01*
X034820Y008028D02*
X035205Y008028D01*
X035553Y008345D02*
X035589Y008345D01*
X035589Y008504D02*
X035553Y008504D01*
X035553Y008662D02*
X035589Y008662D01*
X035842Y008979D02*
X034763Y008979D01*
X034602Y009138D02*
X035889Y009138D01*
X034390Y008762D02*
X034390Y008309D01*
X033953Y008345D02*
X033586Y008345D01*
X033586Y008186D02*
X033953Y008186D01*
X033960Y008028D02*
X033575Y008028D01*
X033646Y007869D02*
X033953Y007869D01*
X033227Y008345D02*
X033190Y008345D01*
X033190Y008504D02*
X033227Y008504D01*
X033227Y008662D02*
X033190Y008662D01*
X032991Y008821D02*
X033962Y008821D01*
X033968Y008662D02*
X033524Y008662D01*
X033586Y008504D02*
X033953Y008504D01*
X034016Y008979D02*
X033150Y008979D01*
X033309Y009138D02*
X034178Y009138D01*
X033268Y009550D02*
X046595Y009550D01*
X033268Y009550D02*
X032028Y008309D01*
X032465Y008186D02*
X032832Y008186D01*
X032843Y008028D02*
X032457Y008028D01*
X032516Y008345D02*
X032832Y008345D01*
X032832Y008504D02*
X032674Y008504D01*
X032833Y008662D02*
X032894Y008662D01*
X031591Y007552D02*
X028148Y007552D01*
X027753Y005650D02*
X027247Y005650D01*
X031352Y005491D02*
X031916Y005491D01*
X031711Y005650D02*
X031557Y005650D01*
X031603Y005333D02*
X031665Y005333D01*
X031836Y006443D02*
X031432Y006443D01*
D15*
X034390Y008762D03*
X036752Y008762D03*
X039902Y007581D03*
X039508Y005613D03*
X041477Y004825D03*
X042264Y004825D03*
X046595Y005613D03*
M02*
