G75*
G70*
%OFA0B0*%
%FSLAX24Y24*%
%IPPOS*%
%LPD*%
%AMOC8*
5,1,8,0,0,1.08239X$1,22.5*
%
%ADD10C,0.0000*%
%ADD11C,0.0472*%
%ADD12R,0.0394X0.0433*%
%ADD13C,0.0591*%
%ADD14C,0.0160*%
%ADD15C,0.0376*%
D10*
X021004Y000888D02*
X021004Y009156D01*
X021006Y009210D01*
X021011Y009263D01*
X021020Y009316D01*
X021033Y009368D01*
X021049Y009420D01*
X021069Y009470D01*
X021092Y009518D01*
X021119Y009565D01*
X021148Y009610D01*
X021181Y009653D01*
X021216Y009693D01*
X021254Y009731D01*
X021294Y009766D01*
X021337Y009799D01*
X021382Y009828D01*
X021429Y009855D01*
X021477Y009878D01*
X021527Y009898D01*
X021579Y009914D01*
X021631Y009927D01*
X021684Y009936D01*
X021737Y009941D01*
X021791Y009943D01*
X048563Y009943D01*
X048617Y009941D01*
X048670Y009936D01*
X048723Y009927D01*
X048775Y009914D01*
X048827Y009898D01*
X048877Y009878D01*
X048925Y009855D01*
X048972Y009828D01*
X049017Y009799D01*
X049060Y009766D01*
X049100Y009731D01*
X049138Y009693D01*
X049173Y009653D01*
X049206Y009610D01*
X049235Y009565D01*
X049262Y009518D01*
X049285Y009470D01*
X049305Y009420D01*
X049321Y009368D01*
X049334Y009316D01*
X049343Y009263D01*
X049348Y009210D01*
X049350Y009156D01*
X049351Y009156D02*
X049351Y000888D01*
X049350Y000888D02*
X049348Y000834D01*
X049343Y000781D01*
X049334Y000728D01*
X049321Y000676D01*
X049305Y000624D01*
X049285Y000574D01*
X049262Y000526D01*
X049235Y000479D01*
X049206Y000434D01*
X049173Y000391D01*
X049138Y000351D01*
X049100Y000313D01*
X049060Y000278D01*
X049017Y000245D01*
X048972Y000216D01*
X048925Y000189D01*
X048877Y000166D01*
X048827Y000146D01*
X048775Y000130D01*
X048723Y000117D01*
X048670Y000108D01*
X048617Y000103D01*
X048563Y000101D01*
X021791Y000101D01*
X021737Y000103D01*
X021684Y000108D01*
X021631Y000117D01*
X021579Y000130D01*
X021527Y000146D01*
X021477Y000166D01*
X021429Y000189D01*
X021382Y000216D01*
X021337Y000245D01*
X021294Y000278D01*
X021254Y000313D01*
X021216Y000351D01*
X021181Y000391D01*
X021148Y000434D01*
X021119Y000479D01*
X021092Y000526D01*
X021069Y000574D01*
X021049Y000624D01*
X021033Y000676D01*
X021020Y000728D01*
X021011Y000781D01*
X021006Y000834D01*
X021004Y000888D01*
X031830Y007975D02*
X031832Y008023D01*
X031838Y008071D01*
X031848Y008118D01*
X031861Y008164D01*
X031879Y008209D01*
X031899Y008253D01*
X031924Y008295D01*
X031952Y008334D01*
X031982Y008371D01*
X032016Y008405D01*
X032053Y008437D01*
X032091Y008466D01*
X032132Y008491D01*
X032175Y008513D01*
X032220Y008531D01*
X032266Y008545D01*
X032313Y008556D01*
X032361Y008563D01*
X032409Y008566D01*
X032457Y008565D01*
X032505Y008560D01*
X032553Y008551D01*
X032599Y008539D01*
X032644Y008522D01*
X032688Y008502D01*
X032730Y008479D01*
X032770Y008452D01*
X032808Y008422D01*
X032843Y008389D01*
X032875Y008353D01*
X032905Y008315D01*
X032931Y008274D01*
X032953Y008231D01*
X032973Y008187D01*
X032988Y008142D01*
X033000Y008095D01*
X033008Y008047D01*
X033012Y007999D01*
X033012Y007951D01*
X033008Y007903D01*
X033000Y007855D01*
X032988Y007808D01*
X032973Y007763D01*
X032953Y007719D01*
X032931Y007676D01*
X032905Y007635D01*
X032875Y007597D01*
X032843Y007561D01*
X032808Y007528D01*
X032770Y007498D01*
X032730Y007471D01*
X032688Y007448D01*
X032644Y007428D01*
X032599Y007411D01*
X032553Y007399D01*
X032505Y007390D01*
X032457Y007385D01*
X032409Y007384D01*
X032361Y007387D01*
X032313Y007394D01*
X032266Y007405D01*
X032220Y007419D01*
X032175Y007437D01*
X032132Y007459D01*
X032091Y007484D01*
X032053Y007513D01*
X032016Y007545D01*
X031982Y007579D01*
X031952Y007616D01*
X031924Y007655D01*
X031899Y007697D01*
X031879Y007741D01*
X031861Y007786D01*
X031848Y007832D01*
X031838Y007879D01*
X031832Y007927D01*
X031830Y007975D01*
X036555Y007975D02*
X036557Y008023D01*
X036563Y008071D01*
X036573Y008118D01*
X036586Y008164D01*
X036604Y008209D01*
X036624Y008253D01*
X036649Y008295D01*
X036677Y008334D01*
X036707Y008371D01*
X036741Y008405D01*
X036778Y008437D01*
X036816Y008466D01*
X036857Y008491D01*
X036900Y008513D01*
X036945Y008531D01*
X036991Y008545D01*
X037038Y008556D01*
X037086Y008563D01*
X037134Y008566D01*
X037182Y008565D01*
X037230Y008560D01*
X037278Y008551D01*
X037324Y008539D01*
X037369Y008522D01*
X037413Y008502D01*
X037455Y008479D01*
X037495Y008452D01*
X037533Y008422D01*
X037568Y008389D01*
X037600Y008353D01*
X037630Y008315D01*
X037656Y008274D01*
X037678Y008231D01*
X037698Y008187D01*
X037713Y008142D01*
X037725Y008095D01*
X037733Y008047D01*
X037737Y007999D01*
X037737Y007951D01*
X037733Y007903D01*
X037725Y007855D01*
X037713Y007808D01*
X037698Y007763D01*
X037678Y007719D01*
X037656Y007676D01*
X037630Y007635D01*
X037600Y007597D01*
X037568Y007561D01*
X037533Y007528D01*
X037495Y007498D01*
X037455Y007471D01*
X037413Y007448D01*
X037369Y007428D01*
X037324Y007411D01*
X037278Y007399D01*
X037230Y007390D01*
X037182Y007385D01*
X037134Y007384D01*
X037086Y007387D01*
X037038Y007394D01*
X036991Y007405D01*
X036945Y007419D01*
X036900Y007437D01*
X036857Y007459D01*
X036816Y007484D01*
X036778Y007513D01*
X036741Y007545D01*
X036707Y007579D01*
X036677Y007616D01*
X036649Y007655D01*
X036624Y007697D01*
X036604Y007741D01*
X036586Y007786D01*
X036573Y007832D01*
X036563Y007879D01*
X036557Y007927D01*
X036555Y007975D01*
D11*
X036752Y006006D03*
X037540Y006006D03*
X038327Y006006D03*
X038327Y005022D03*
X037540Y005022D03*
X036752Y005022D03*
X035965Y005022D03*
X035177Y005022D03*
X034390Y005022D03*
X033603Y005022D03*
X032815Y005022D03*
X032028Y005022D03*
X031240Y005022D03*
X031240Y006006D03*
X032028Y006006D03*
X032815Y006006D03*
X033603Y006006D03*
X034390Y006006D03*
X035177Y006006D03*
X035965Y006006D03*
X038465Y003585D03*
X037854Y003428D03*
X037599Y002857D03*
X038327Y002857D03*
X038977Y003211D03*
X038977Y002502D03*
X038465Y002128D03*
X037854Y002286D03*
X031890Y002502D03*
X031378Y002128D03*
X030768Y002286D03*
X030512Y002857D03*
X030768Y003428D03*
X031378Y003585D03*
X031890Y003211D03*
X031240Y002857D03*
X024803Y002502D03*
X024291Y002128D03*
X023681Y002286D03*
X023425Y002857D03*
X024154Y002857D03*
X024803Y003211D03*
X024291Y003585D03*
X023681Y003428D03*
X044685Y002857D03*
X045414Y002857D03*
X046063Y003211D03*
X045551Y003585D03*
X044941Y003428D03*
X046063Y002502D03*
X045551Y002128D03*
X044941Y002286D03*
D12*
X044626Y006065D03*
X044626Y006735D03*
X043445Y006735D03*
X043445Y006065D03*
X041870Y007640D03*
X040689Y007640D03*
X040689Y008309D03*
X041870Y008309D03*
X039508Y008309D03*
X038327Y008309D03*
X038327Y007640D03*
X039508Y007640D03*
X035571Y007640D03*
X034390Y007640D03*
X034390Y008309D03*
X035571Y008309D03*
X031240Y008309D03*
X031240Y007640D03*
X030059Y007640D03*
X028878Y007640D03*
X027697Y007640D03*
X027697Y008309D03*
X028878Y008309D03*
X030059Y008309D03*
X028091Y006735D03*
X026910Y006735D03*
X026910Y006065D03*
X028091Y006065D03*
X024547Y006065D03*
X023366Y006065D03*
X023366Y006735D03*
X024547Y006735D03*
X046595Y006735D03*
X046595Y006065D03*
D13*
X048563Y002857D03*
X041477Y002857D03*
X034390Y002857D03*
X027303Y002857D03*
X022185Y007581D03*
D14*
X021398Y007552D02*
X027260Y007552D01*
X027260Y007507D02*
X024877Y007507D01*
X024760Y007459D01*
X024670Y007369D01*
X024492Y007191D01*
X024303Y007191D01*
X024215Y007155D01*
X024147Y007087D01*
X024111Y006999D01*
X024111Y006470D01*
X024140Y006400D01*
X024111Y006330D01*
X024111Y005801D01*
X024136Y005739D01*
X024119Y005698D01*
X024119Y005527D01*
X024184Y005370D01*
X024305Y005250D01*
X024462Y005184D01*
X024633Y005184D01*
X024790Y005250D01*
X024910Y005370D01*
X024975Y005527D01*
X024975Y005698D01*
X024958Y005739D01*
X024984Y005801D01*
X024984Y006330D01*
X024955Y006400D01*
X024984Y006470D01*
X024984Y006778D01*
X025074Y006867D01*
X026473Y006867D01*
X026473Y006809D01*
X026335Y006671D01*
X026245Y006581D01*
X026196Y006464D01*
X026196Y005676D01*
X026196Y005549D01*
X026245Y005431D01*
X026924Y004751D01*
X026846Y004751D01*
X026014Y004751D01*
X025971Y004794D01*
X025814Y004860D01*
X025643Y004860D01*
X025486Y004794D01*
X025443Y004751D01*
X025271Y004751D01*
X023893Y004751D01*
X023686Y004958D01*
X023686Y005640D01*
X023699Y005645D01*
X023767Y005713D01*
X023803Y005801D01*
X023803Y006330D01*
X023767Y006418D01*
X023732Y006453D01*
X023743Y006494D01*
X023743Y006716D01*
X023385Y006716D01*
X023385Y006753D01*
X023743Y006753D01*
X023743Y006975D01*
X023731Y007021D01*
X023707Y007062D01*
X023674Y007095D01*
X023633Y007119D01*
X023587Y007131D01*
X023385Y007131D01*
X023385Y006753D01*
X023348Y006753D01*
X023348Y007131D01*
X023146Y007131D01*
X023100Y007119D01*
X023059Y007095D01*
X023025Y007062D01*
X023002Y007021D01*
X022989Y006975D01*
X022989Y006753D01*
X023348Y006753D01*
X023348Y006716D01*
X022989Y006716D01*
X022989Y006494D01*
X023001Y006453D01*
X022966Y006418D01*
X022929Y006330D01*
X022929Y005801D01*
X022966Y005713D01*
X023033Y005645D01*
X023046Y005640D01*
X023046Y004889D01*
X023046Y004761D01*
X023095Y004644D01*
X023489Y004250D01*
X023579Y004160D01*
X023696Y004111D01*
X025271Y004111D01*
X025443Y004111D01*
X025486Y004069D01*
X025643Y004003D01*
X025814Y004003D01*
X025971Y004069D01*
X026014Y004111D01*
X026694Y004111D01*
X026744Y003992D01*
X026864Y003872D01*
X027021Y003807D01*
X027192Y003807D01*
X027349Y003872D01*
X027469Y003992D01*
X027532Y004144D01*
X028558Y003118D01*
X028558Y002133D01*
X028558Y002054D01*
X027839Y002774D01*
X027839Y002963D01*
X027757Y003160D01*
X027606Y003310D01*
X027410Y003392D01*
X027197Y003392D01*
X027000Y003310D01*
X026850Y003160D01*
X026768Y002963D01*
X026768Y002750D01*
X026850Y002553D01*
X027000Y002403D01*
X027197Y002321D01*
X027386Y002321D01*
X029001Y000707D01*
X029091Y000617D01*
X029208Y000568D01*
X034060Y000568D01*
X034177Y000617D01*
X034267Y000707D01*
X034390Y000829D01*
X034512Y000707D01*
X034602Y000617D01*
X034720Y000568D01*
X041019Y000568D01*
X041146Y000568D01*
X041264Y000617D01*
X041476Y000829D01*
X041599Y000707D01*
X041689Y000617D01*
X041807Y000568D01*
X046925Y000568D01*
X047052Y000568D01*
X047170Y000617D01*
X048744Y002192D01*
X048834Y002282D01*
X048883Y002399D01*
X048883Y002420D01*
X048957Y002493D01*
X048957Y000510D01*
X048950Y000501D01*
X048941Y000494D01*
X021414Y000494D01*
X021404Y000501D01*
X021398Y000510D01*
X021398Y009534D01*
X021404Y009543D01*
X021414Y009550D01*
X030847Y009550D01*
X030063Y008766D01*
X029815Y008766D01*
X029726Y008729D01*
X029659Y008662D01*
X029193Y008662D01*
X029185Y008670D02*
X029144Y008694D01*
X029099Y008706D01*
X028897Y008706D01*
X028897Y008328D01*
X029255Y008328D01*
X029255Y008550D01*
X029243Y008595D01*
X029219Y008636D01*
X029185Y008670D01*
X029255Y008504D02*
X029622Y008504D01*
X029622Y008574D02*
X029622Y008045D01*
X029652Y007975D01*
X029622Y007904D01*
X029622Y007376D01*
X029642Y007329D01*
X029512Y007459D01*
X029483Y007488D01*
X029315Y007656D01*
X029315Y007904D01*
X029278Y007993D01*
X029244Y008027D01*
X029255Y008069D01*
X029255Y008291D01*
X028897Y008291D01*
X028897Y008328D01*
X028860Y008328D01*
X028860Y008706D01*
X028658Y008706D01*
X028612Y008694D01*
X028571Y008670D01*
X028537Y008636D01*
X028514Y008595D01*
X028501Y008550D01*
X028501Y008328D01*
X028859Y008328D01*
X028859Y008291D01*
X028501Y008291D01*
X028501Y008069D01*
X028513Y008027D01*
X028478Y007993D01*
X028464Y007960D01*
X028111Y007960D01*
X028105Y007975D01*
X028134Y008045D01*
X028134Y008334D01*
X028176Y008334D01*
X028333Y008399D01*
X028454Y008520D01*
X028519Y008677D01*
X028519Y008847D01*
X028454Y009005D01*
X028333Y009125D01*
X028176Y009190D01*
X028006Y009190D01*
X027848Y009125D01*
X027728Y009005D01*
X027663Y008847D01*
X027663Y008787D01*
X027642Y008766D01*
X027452Y008766D01*
X027364Y008729D01*
X027297Y008662D01*
X021398Y008662D01*
X021398Y008504D02*
X027260Y008504D01*
X027260Y008574D02*
X027260Y008045D01*
X027289Y007975D01*
X027260Y007904D01*
X027260Y007507D01*
X027260Y007711D02*
X021398Y007711D01*
X021398Y007869D02*
X027260Y007869D01*
X027267Y008028D02*
X021398Y008028D01*
X021398Y008186D02*
X027260Y008186D01*
X027260Y008345D02*
X021398Y008345D01*
X021398Y008821D02*
X027663Y008821D01*
X027717Y008979D02*
X021398Y008979D01*
X021398Y009138D02*
X027879Y009138D01*
X028303Y009138D02*
X030435Y009138D01*
X030594Y009296D02*
X021398Y009296D01*
X021398Y009455D02*
X030752Y009455D01*
X031299Y009550D02*
X030059Y008309D01*
X030496Y008294D02*
X030496Y008045D01*
X030467Y007975D01*
X030473Y007960D01*
X030827Y007960D01*
X030840Y007993D01*
X030875Y008027D01*
X030863Y008069D01*
X030863Y008291D01*
X031222Y008291D01*
X031222Y008328D01*
X031222Y008706D01*
X031020Y008706D01*
X030974Y008694D01*
X030933Y008670D01*
X030899Y008636D01*
X030876Y008595D01*
X030863Y008550D01*
X030863Y008328D01*
X031222Y008328D01*
X031259Y008328D01*
X031617Y008328D01*
X031617Y008550D01*
X031605Y008595D01*
X031581Y008636D01*
X031548Y008670D01*
X031507Y008694D01*
X031461Y008706D01*
X031259Y008706D01*
X031259Y008328D01*
X031259Y008291D01*
X031617Y008291D01*
X031617Y008203D01*
X031717Y008445D01*
X031951Y008679D01*
X032256Y008805D01*
X032587Y008805D01*
X032892Y008679D01*
X033125Y008445D01*
X033252Y008140D01*
X033252Y007810D01*
X033162Y007594D01*
X033283Y007714D01*
X033283Y008826D01*
X033331Y008943D01*
X033421Y009033D01*
X033617Y009230D01*
X031432Y009230D01*
X030496Y008294D01*
X030547Y008345D02*
X030863Y008345D01*
X030863Y008186D02*
X030496Y008186D01*
X030489Y008028D02*
X030875Y008028D01*
X031222Y008345D02*
X031259Y008345D01*
X031259Y008504D02*
X031222Y008504D01*
X031222Y008662D02*
X031259Y008662D01*
X031023Y008821D02*
X033283Y008821D01*
X033283Y008662D02*
X032909Y008662D01*
X033067Y008504D02*
X033283Y008504D01*
X033283Y008345D02*
X033167Y008345D01*
X033233Y008186D02*
X033283Y008186D01*
X033283Y008028D02*
X033252Y008028D01*
X033252Y007869D02*
X033283Y007869D01*
X033280Y007711D02*
X033211Y007711D01*
X033603Y007581D02*
X032421Y006400D01*
X032421Y006459D01*
X031240Y007640D01*
X030059Y007640D01*
X029622Y007711D02*
X029315Y007711D01*
X029315Y007869D02*
X029622Y007869D01*
X029629Y008028D02*
X029244Y008028D01*
X029255Y008186D02*
X029622Y008186D01*
X029622Y008345D02*
X029255Y008345D01*
X028897Y008345D02*
X028860Y008345D01*
X028860Y008504D02*
X028897Y008504D01*
X028897Y008662D02*
X028860Y008662D01*
X028563Y008662D02*
X028513Y008662D01*
X028519Y008821D02*
X030118Y008821D01*
X030276Y008979D02*
X028464Y008979D01*
X028091Y008762D02*
X027697Y008369D01*
X027697Y008309D01*
X028134Y008186D02*
X028501Y008186D01*
X028512Y008028D02*
X028127Y008028D01*
X028202Y008345D02*
X028501Y008345D01*
X028501Y008504D02*
X028438Y008504D01*
X027297Y008662D02*
X027260Y008574D01*
X027697Y007640D02*
X028878Y007640D01*
X029301Y007217D01*
X029331Y007187D01*
X029725Y006794D01*
X029862Y006794D01*
X029666Y006400D02*
X028878Y007187D01*
X024941Y007187D01*
X024547Y006794D01*
X024547Y006735D01*
X024111Y006760D02*
X023743Y006760D01*
X023743Y006918D02*
X024111Y006918D01*
X024143Y007077D02*
X023692Y007077D01*
X023385Y007077D02*
X023348Y007077D01*
X023348Y006918D02*
X023385Y006918D01*
X023385Y006760D02*
X023348Y006760D01*
X022989Y006760D02*
X021398Y006760D01*
X021398Y006918D02*
X022989Y006918D01*
X023040Y007077D02*
X021398Y007077D01*
X021398Y007235D02*
X024536Y007235D01*
X024695Y007394D02*
X021398Y007394D01*
X021398Y006601D02*
X022989Y006601D01*
X022991Y006443D02*
X021398Y006443D01*
X021398Y006284D02*
X022929Y006284D01*
X022929Y006125D02*
X021398Y006125D01*
X021398Y005967D02*
X022929Y005967D01*
X022929Y005808D02*
X021398Y005808D01*
X021398Y005650D02*
X023029Y005650D01*
X023046Y005491D02*
X021398Y005491D01*
X021398Y005333D02*
X023046Y005333D01*
X023046Y005174D02*
X021398Y005174D01*
X021398Y005016D02*
X023046Y005016D01*
X023046Y004857D02*
X021398Y004857D01*
X021398Y004699D02*
X023072Y004699D01*
X023199Y004540D02*
X021398Y004540D01*
X021398Y004381D02*
X023357Y004381D01*
X023516Y004223D02*
X021398Y004223D01*
X021398Y004064D02*
X025496Y004064D01*
X025961Y004064D02*
X026714Y004064D01*
X026830Y003906D02*
X024644Y003906D01*
X024695Y003855D02*
X024561Y003989D01*
X024386Y004061D01*
X024197Y004061D01*
X024022Y003989D01*
X023890Y003857D01*
X023776Y003904D01*
X023586Y003904D01*
X023411Y003831D01*
X023278Y003697D01*
X023205Y003522D01*
X023205Y003333D01*
X023223Y003288D01*
X023156Y003260D01*
X023022Y003126D01*
X022949Y002951D01*
X022949Y002762D01*
X023022Y002587D01*
X023156Y002453D01*
X023223Y002425D01*
X023205Y002381D01*
X023205Y002191D01*
X023278Y002016D01*
X023411Y001882D01*
X023586Y001810D01*
X023776Y001810D01*
X023890Y001857D01*
X024022Y001725D01*
X024197Y001652D01*
X024386Y001652D01*
X024561Y001725D01*
X024695Y001859D01*
X024768Y002034D01*
X024768Y002087D01*
X024771Y002086D01*
X024803Y002086D01*
X024803Y002502D01*
X024803Y002502D01*
X024803Y002086D01*
X024836Y002086D01*
X024901Y002096D01*
X024963Y002117D01*
X025021Y002146D01*
X025074Y002185D01*
X025121Y002231D01*
X025159Y002284D01*
X025189Y002343D01*
X025209Y002405D01*
X025219Y002470D01*
X025219Y002502D01*
X024804Y002502D01*
X024804Y002503D01*
X025219Y002503D01*
X025219Y002535D01*
X025209Y002600D01*
X025189Y002662D01*
X025159Y002720D01*
X025121Y002774D01*
X025080Y002814D01*
X025207Y002941D01*
X025279Y003116D01*
X025279Y003306D01*
X025207Y003481D01*
X025073Y003615D01*
X024898Y003687D01*
X024765Y003687D01*
X024695Y003855D01*
X024740Y003747D02*
X027929Y003747D01*
X028087Y003589D02*
X025099Y003589D01*
X025228Y003430D02*
X028246Y003430D01*
X028404Y003272D02*
X027645Y003272D01*
X027776Y003113D02*
X028558Y003113D01*
X028558Y002955D02*
X027839Y002955D01*
X027839Y002796D02*
X028558Y002796D01*
X028558Y002637D02*
X027975Y002637D01*
X028134Y002479D02*
X028558Y002479D01*
X028558Y002320D02*
X028292Y002320D01*
X028451Y002162D02*
X028558Y002162D01*
X028878Y002069D02*
X029666Y001282D01*
X030847Y001282D01*
X031378Y001813D01*
X031378Y002128D01*
X031698Y001775D02*
X031782Y001859D01*
X031854Y002034D01*
X031854Y002087D01*
X031857Y002086D01*
X031890Y002086D01*
X031923Y002086D01*
X031987Y002096D01*
X032050Y002117D01*
X032108Y002146D01*
X032161Y002185D01*
X032207Y002231D01*
X032246Y002284D01*
X032276Y002343D01*
X032296Y002405D01*
X032306Y002470D01*
X032306Y002502D01*
X031890Y002502D01*
X031890Y002086D01*
X031890Y002502D01*
X031890Y002502D01*
X031890Y002503D01*
X032306Y002503D01*
X032306Y002535D01*
X032296Y002600D01*
X032276Y002662D01*
X032246Y002720D01*
X032207Y002774D01*
X032167Y002814D01*
X032294Y002941D01*
X032366Y003116D01*
X032366Y003306D01*
X032294Y003481D01*
X032160Y003615D01*
X031985Y003687D01*
X031851Y003687D01*
X031782Y003855D01*
X031648Y003989D01*
X031473Y004061D01*
X031283Y004061D01*
X031108Y003989D01*
X030976Y003857D01*
X030863Y003904D01*
X030673Y003904D01*
X030505Y003834D01*
X031217Y004546D01*
X031335Y004546D01*
X031510Y004618D01*
X031634Y004742D01*
X031758Y004618D01*
X031933Y004546D01*
X032122Y004546D01*
X032297Y004618D01*
X032421Y004742D01*
X032545Y004618D01*
X032720Y004546D01*
X032889Y004546D01*
X032889Y004495D01*
X032889Y004368D01*
X032938Y004250D01*
X033331Y003856D01*
X033421Y003766D01*
X033539Y003718D01*
X034257Y003718D01*
X034645Y003330D01*
X034496Y003392D01*
X034283Y003392D01*
X034087Y003310D01*
X033936Y003160D01*
X033855Y002963D01*
X033855Y002750D01*
X033936Y002553D01*
X034070Y002420D01*
X034070Y001414D01*
X033864Y001208D01*
X031225Y001208D01*
X031559Y001542D01*
X031649Y001632D01*
X031698Y001750D01*
X031698Y001775D01*
X031672Y001686D02*
X034070Y001686D01*
X034070Y001528D02*
X031545Y001528D01*
X031386Y001369D02*
X034025Y001369D01*
X033866Y001211D02*
X031228Y001211D01*
X030798Y001686D02*
X029714Y001686D01*
X029798Y001602D02*
X029198Y002202D01*
X029198Y003314D01*
X029149Y003432D01*
X029059Y003522D01*
X026972Y005609D01*
X027154Y005609D01*
X027242Y005645D01*
X027310Y005713D01*
X027323Y005745D01*
X027677Y005745D01*
X027690Y005713D01*
X027758Y005645D01*
X027846Y005609D01*
X028095Y005609D01*
X028390Y005313D01*
X028480Y005223D01*
X028598Y005174D01*
X030788Y005174D01*
X027407Y005174D01*
X027565Y005016D02*
X030764Y005016D01*
X030764Y004998D02*
X029394Y003629D01*
X029346Y003511D01*
X029346Y003384D01*
X029346Y003142D01*
X029303Y003099D01*
X029237Y002942D01*
X029237Y002771D01*
X029303Y002614D01*
X029423Y002494D01*
X029580Y002429D01*
X029751Y002429D01*
X029908Y002494D01*
X030028Y002614D01*
X030063Y002697D01*
X030108Y002587D01*
X030242Y002453D01*
X030310Y002425D01*
X030292Y002381D01*
X030292Y002191D01*
X030364Y002016D01*
X030498Y001882D01*
X030673Y001810D01*
X030863Y001810D01*
X030964Y001851D01*
X030714Y001602D01*
X029798Y001602D01*
X029555Y001845D02*
X030588Y001845D01*
X030377Y002003D02*
X029397Y002003D01*
X029238Y002162D02*
X030304Y002162D01*
X030292Y002320D02*
X029198Y002320D01*
X029198Y002479D02*
X029459Y002479D01*
X029293Y002637D02*
X029198Y002637D01*
X029198Y002796D02*
X029237Y002796D01*
X029243Y002955D02*
X029198Y002955D01*
X029198Y003113D02*
X029316Y003113D01*
X029346Y003272D02*
X029198Y003272D01*
X029150Y003430D02*
X029346Y003430D01*
X029378Y003589D02*
X028992Y003589D01*
X028834Y003747D02*
X029513Y003747D01*
X029672Y003906D02*
X028675Y003906D01*
X028517Y004064D02*
X029830Y004064D01*
X029989Y004223D02*
X028358Y004223D01*
X028200Y004381D02*
X030147Y004381D01*
X030306Y004540D02*
X028041Y004540D01*
X027882Y004699D02*
X030464Y004699D01*
X030623Y004857D02*
X027724Y004857D01*
X027248Y005333D02*
X028371Y005333D01*
X028212Y005491D02*
X027090Y005491D01*
X027247Y005650D02*
X027753Y005650D01*
X028091Y006065D02*
X028662Y005494D01*
X031555Y005494D01*
X032028Y005022D01*
X032378Y004699D02*
X032465Y004699D01*
X032889Y004540D02*
X031211Y004540D01*
X031052Y004381D02*
X032889Y004381D01*
X032965Y004223D02*
X030894Y004223D01*
X030735Y004064D02*
X033123Y004064D01*
X033282Y003906D02*
X031731Y003906D01*
X031826Y003747D02*
X033468Y003747D01*
X033603Y004038D02*
X034390Y004038D01*
X036752Y001676D01*
X038012Y001676D01*
X038465Y002128D01*
X038941Y002087D02*
X038941Y002034D01*
X038868Y001859D01*
X038734Y001725D01*
X038559Y001652D01*
X038441Y001652D01*
X038193Y001404D01*
X038076Y001356D01*
X037948Y001356D01*
X036688Y001356D01*
X036571Y001404D01*
X036481Y001494D01*
X034864Y003111D01*
X034925Y002963D01*
X034925Y002750D01*
X034844Y002553D01*
X034710Y002420D01*
X034710Y001414D01*
X034916Y001208D01*
X040950Y001208D01*
X041157Y001414D01*
X041157Y002420D01*
X041023Y002553D01*
X040941Y002750D01*
X040941Y002963D01*
X041023Y003160D01*
X041173Y003310D01*
X041370Y003392D01*
X041583Y003392D01*
X041780Y003310D01*
X041930Y003160D01*
X042012Y002963D01*
X042012Y002750D01*
X041930Y002553D01*
X041796Y002420D01*
X041796Y001414D01*
X042003Y001208D01*
X046856Y001208D01*
X048155Y002508D01*
X048109Y002553D01*
X048055Y002684D01*
X047693Y002321D01*
X047603Y002231D01*
X047485Y002182D01*
X046417Y002182D01*
X046333Y002099D01*
X046158Y002026D01*
X046024Y002026D01*
X045955Y001859D01*
X045871Y001775D01*
X045871Y001750D01*
X045823Y001632D01*
X045733Y001542D01*
X045733Y001542D01*
X045685Y001494D01*
X045685Y001494D01*
X045595Y001404D01*
X045477Y001356D01*
X044296Y001356D01*
X044169Y001356D01*
X044051Y001404D01*
X043264Y002192D01*
X043264Y002192D01*
X043174Y002282D01*
X043125Y002399D01*
X043125Y005640D01*
X043112Y005645D01*
X043045Y005713D01*
X043008Y005801D01*
X043008Y005904D01*
X042355Y005251D01*
X042506Y005188D01*
X042627Y005068D01*
X042692Y004910D01*
X042692Y004740D01*
X042627Y004583D01*
X042506Y004462D01*
X042349Y004397D01*
X042288Y004397D01*
X041658Y003766D01*
X041540Y003718D01*
X041413Y003718D01*
X038925Y003718D01*
X038938Y003687D01*
X039071Y003687D01*
X039246Y003615D01*
X039380Y003481D01*
X039453Y003306D01*
X039453Y003116D01*
X039380Y002941D01*
X039253Y002814D01*
X039294Y002774D01*
X039332Y002720D01*
X039362Y002662D01*
X039382Y002600D01*
X039393Y002535D01*
X039393Y002503D01*
X038977Y002503D01*
X038977Y002502D01*
X039393Y002502D01*
X039393Y002470D01*
X039382Y002405D01*
X039362Y002343D01*
X039332Y002284D01*
X039294Y002231D01*
X039248Y002185D01*
X039195Y002146D01*
X039136Y002117D01*
X039074Y002096D01*
X039009Y002086D01*
X038977Y002086D01*
X038977Y002502D01*
X038976Y002502D01*
X038976Y002086D01*
X038944Y002086D01*
X038941Y002087D01*
X038976Y002162D02*
X038977Y002162D01*
X038976Y002320D02*
X038977Y002320D01*
X038976Y002479D02*
X038977Y002479D01*
X039216Y002162D02*
X041157Y002162D01*
X041157Y002320D02*
X039351Y002320D01*
X039393Y002479D02*
X041097Y002479D01*
X040988Y002637D02*
X039370Y002637D01*
X039271Y002796D02*
X040941Y002796D01*
X040941Y002955D02*
X039386Y002955D01*
X039451Y003113D02*
X041003Y003113D01*
X041135Y003272D02*
X039453Y003272D01*
X039401Y003430D02*
X043125Y003430D01*
X043125Y003272D02*
X041819Y003272D01*
X041950Y003113D02*
X043125Y003113D01*
X043125Y002955D02*
X042012Y002955D01*
X042012Y002796D02*
X043125Y002796D01*
X043125Y002637D02*
X041965Y002637D01*
X041856Y002479D02*
X043125Y002479D01*
X043158Y002320D02*
X041796Y002320D01*
X041796Y002162D02*
X043294Y002162D01*
X043452Y002003D02*
X041796Y002003D01*
X041796Y001845D02*
X043611Y001845D01*
X043769Y001686D02*
X041796Y001686D01*
X041796Y001528D02*
X043928Y001528D01*
X044136Y001369D02*
X041842Y001369D01*
X042000Y001211D02*
X046858Y001211D01*
X047017Y001369D02*
X045510Y001369D01*
X045718Y001528D02*
X047175Y001528D01*
X047334Y001686D02*
X045845Y001686D01*
X045941Y001845D02*
X047492Y001845D01*
X047651Y002003D02*
X046015Y002003D01*
X046396Y002162D02*
X047809Y002162D01*
X047692Y002320D02*
X047968Y002320D01*
X047851Y002479D02*
X048127Y002479D01*
X048075Y002637D02*
X048009Y002637D01*
X048563Y002463D02*
X048563Y002857D01*
X048563Y002463D02*
X046988Y000888D01*
X041870Y000888D01*
X041477Y001282D01*
X041477Y002857D01*
X041611Y003747D02*
X043125Y003747D01*
X043125Y003589D02*
X039272Y003589D01*
X037933Y004431D02*
X041083Y004431D01*
X041477Y004825D01*
X041870Y005219D02*
X043386Y006735D01*
X043445Y006735D01*
X044626Y006735D01*
X045063Y006760D02*
X046117Y006760D01*
X046158Y006719D02*
X046158Y006470D01*
X046187Y006400D01*
X046158Y006330D01*
X046158Y005801D01*
X046184Y005739D01*
X046167Y005698D01*
X046167Y005527D01*
X046232Y005370D01*
X046352Y005250D01*
X046509Y005184D01*
X046680Y005184D01*
X046837Y005250D01*
X046958Y005370D01*
X047023Y005527D01*
X047023Y005698D01*
X047006Y005739D01*
X047031Y005801D01*
X047031Y006330D01*
X047002Y006400D01*
X047031Y006470D01*
X047031Y006999D01*
X046995Y007087D01*
X046927Y007155D01*
X046839Y007191D01*
X046591Y007191D01*
X044631Y009151D01*
X044631Y009212D01*
X044623Y009230D01*
X046462Y009230D01*
X048243Y007449D01*
X048243Y003777D01*
X047289Y002822D01*
X046417Y002822D01*
X046382Y002857D01*
X046467Y002941D01*
X046539Y003116D01*
X046539Y003306D01*
X046467Y003481D01*
X046333Y003615D01*
X046158Y003687D01*
X045968Y003687D01*
X045957Y003683D01*
X045937Y003745D01*
X045907Y003803D01*
X045869Y003856D01*
X045822Y003902D01*
X045769Y003941D01*
X045711Y003971D01*
X045649Y003991D01*
X045584Y004001D01*
X045551Y004001D01*
X045519Y004001D01*
X045454Y003991D01*
X045392Y003971D01*
X045333Y003941D01*
X045280Y003902D01*
X045234Y003856D01*
X045195Y003803D01*
X045178Y003770D01*
X045159Y003784D01*
X045101Y003813D01*
X045039Y003834D01*
X044974Y003844D01*
X044941Y003844D01*
X044908Y003844D01*
X044844Y003834D01*
X044781Y003813D01*
X044723Y003784D01*
X044670Y003745D01*
X044624Y003699D01*
X044585Y003646D01*
X044555Y003587D01*
X044535Y003525D01*
X044525Y003460D01*
X044525Y003428D01*
X044941Y003428D01*
X044941Y003844D01*
X044941Y003428D01*
X044941Y003428D01*
X044941Y003427D01*
X044525Y003427D01*
X044525Y003395D01*
X044535Y003330D01*
X044541Y003312D01*
X044415Y003260D01*
X044281Y003126D01*
X044209Y002951D01*
X044209Y002762D01*
X044281Y002587D01*
X044415Y002453D01*
X044483Y002425D01*
X044465Y002381D01*
X044465Y002191D01*
X044537Y002016D01*
X044558Y001996D01*
X044365Y001996D01*
X043765Y002596D01*
X043765Y005640D01*
X043778Y005645D01*
X043845Y005713D01*
X043882Y005801D01*
X043882Y006330D01*
X043853Y006400D01*
X043859Y006415D01*
X044212Y006415D01*
X044226Y006382D01*
X044261Y006347D01*
X044249Y006306D01*
X044249Y006084D01*
X044607Y006084D01*
X044607Y006047D01*
X044249Y006047D01*
X044249Y005825D01*
X044262Y005779D01*
X044285Y005738D01*
X044319Y005705D01*
X044360Y005681D01*
X044406Y005669D01*
X044608Y005669D01*
X044608Y006047D01*
X044645Y006047D01*
X044645Y006084D01*
X045003Y006084D01*
X045003Y006306D01*
X044992Y006347D01*
X045026Y006382D01*
X045063Y006470D01*
X045063Y006999D01*
X045026Y007087D01*
X044959Y007155D01*
X044871Y007191D01*
X044382Y007191D01*
X044293Y007155D01*
X044226Y007087D01*
X044212Y007055D01*
X043859Y007055D01*
X043845Y007087D01*
X043778Y007155D01*
X043690Y007191D01*
X043200Y007191D01*
X043112Y007155D01*
X043045Y007087D01*
X043008Y006999D01*
X043008Y006809D01*
X041738Y005539D01*
X038460Y005539D01*
X038362Y005498D01*
X038232Y005498D01*
X038057Y005426D01*
X037933Y005302D01*
X037809Y005426D01*
X037634Y005498D01*
X037445Y005498D01*
X037270Y005426D01*
X037146Y005302D01*
X037022Y005426D01*
X036847Y005498D01*
X036657Y005498D01*
X036482Y005426D01*
X036358Y005302D01*
X036234Y005426D01*
X036059Y005498D01*
X035941Y005498D01*
X035891Y005548D01*
X035891Y005597D01*
X035932Y005590D01*
X035964Y005590D01*
X035964Y006006D01*
X035965Y006006D01*
X035965Y006006D01*
X036381Y006006D01*
X036752Y006006D01*
X036752Y006006D01*
X036752Y005590D01*
X036719Y005590D01*
X036655Y005600D01*
X036592Y005621D01*
X036534Y005650D01*
X036481Y005689D01*
X036435Y005735D01*
X036396Y005788D01*
X036366Y005846D01*
X036358Y005871D01*
X036350Y005846D01*
X036321Y005788D01*
X036282Y005735D01*
X036236Y005689D01*
X036183Y005650D01*
X036124Y005621D01*
X036062Y005600D01*
X035997Y005590D01*
X035965Y005590D01*
X035965Y006006D01*
X036381Y006006D01*
X036752Y006006D01*
X036752Y005590D01*
X036785Y005590D01*
X036850Y005600D01*
X036912Y005621D01*
X036970Y005650D01*
X037023Y005689D01*
X037070Y005735D01*
X037108Y005788D01*
X037112Y005795D01*
X037136Y005737D01*
X037270Y005603D01*
X037445Y005530D01*
X037634Y005530D01*
X037809Y005603D01*
X037933Y005727D01*
X038057Y005603D01*
X038232Y005530D01*
X038422Y005530D01*
X038597Y005603D01*
X038731Y005737D01*
X038803Y005912D01*
X038803Y006101D01*
X038731Y006276D01*
X038597Y006410D01*
X038422Y006482D01*
X038232Y006482D01*
X038057Y006410D01*
X037933Y006286D01*
X037809Y006410D01*
X037655Y006474D01*
X037870Y006474D01*
X037997Y006474D01*
X038114Y006522D01*
X038508Y006916D01*
X038598Y007006D01*
X038647Y007124D01*
X038647Y007215D01*
X038660Y007220D01*
X038727Y007288D01*
X038741Y007320D01*
X039094Y007320D01*
X039108Y007288D01*
X039175Y007220D01*
X039263Y007184D01*
X039753Y007184D01*
X039841Y007220D01*
X039908Y007288D01*
X039945Y007376D01*
X039945Y007565D01*
X040034Y007655D01*
X040252Y007655D01*
X040252Y007376D01*
X040278Y007314D01*
X040261Y007273D01*
X040261Y007102D01*
X040326Y006945D01*
X040447Y006824D01*
X040604Y006759D01*
X040774Y006759D01*
X040932Y006824D01*
X041052Y006945D01*
X041117Y007102D01*
X041117Y007273D01*
X041100Y007314D01*
X041103Y007320D01*
X041456Y007320D01*
X041470Y007288D01*
X041537Y007220D01*
X041626Y007184D01*
X042115Y007184D01*
X042203Y007220D01*
X042271Y007288D01*
X042307Y007376D01*
X042307Y007904D01*
X042271Y007993D01*
X042236Y008027D01*
X042247Y008069D01*
X042247Y008291D01*
X041889Y008291D01*
X041889Y008328D01*
X042247Y008328D01*
X042247Y008550D01*
X042235Y008595D01*
X042211Y008636D01*
X042178Y008670D01*
X042137Y008694D01*
X042091Y008706D01*
X041889Y008706D01*
X041889Y008328D01*
X041852Y008328D01*
X041852Y008706D01*
X041650Y008706D01*
X041604Y008694D01*
X041563Y008670D01*
X041529Y008636D01*
X041506Y008595D01*
X041493Y008550D01*
X041493Y008328D01*
X041852Y008328D01*
X041852Y008291D01*
X041493Y008291D01*
X041493Y008069D01*
X041505Y008027D01*
X041470Y007993D01*
X041456Y007960D01*
X041103Y007960D01*
X041097Y007975D01*
X041126Y008045D01*
X041126Y008574D01*
X041089Y008662D01*
X041555Y008662D01*
X041493Y008504D02*
X041126Y008504D01*
X041126Y008345D02*
X041493Y008345D01*
X041493Y008186D02*
X041126Y008186D01*
X041119Y008028D02*
X041504Y008028D01*
X041852Y008345D02*
X041889Y008345D01*
X041889Y008504D02*
X041852Y008504D01*
X041852Y008662D02*
X041889Y008662D01*
X042185Y008662D02*
X044215Y008662D01*
X044178Y008698D02*
X046158Y006719D01*
X046158Y006601D02*
X045063Y006601D01*
X045051Y006443D02*
X046169Y006443D01*
X046158Y006284D02*
X045003Y006284D01*
X045003Y006125D02*
X046158Y006125D01*
X046158Y005967D02*
X045003Y005967D01*
X045003Y006047D02*
X044645Y006047D01*
X044645Y005669D01*
X044847Y005669D01*
X044892Y005681D01*
X044934Y005705D01*
X044967Y005738D01*
X044991Y005779D01*
X045003Y005825D01*
X045003Y006047D01*
X044998Y005808D02*
X046158Y005808D01*
X046167Y005650D02*
X043782Y005650D01*
X043765Y005491D02*
X046181Y005491D01*
X046269Y005333D02*
X043765Y005333D01*
X043765Y005174D02*
X048243Y005174D01*
X048243Y005016D02*
X043765Y005016D01*
X043765Y004857D02*
X048243Y004857D01*
X048243Y004699D02*
X043765Y004699D01*
X043765Y004540D02*
X048243Y004540D01*
X048243Y004381D02*
X043765Y004381D01*
X043765Y004223D02*
X048243Y004223D01*
X048243Y004064D02*
X043765Y004064D01*
X043765Y003906D02*
X045285Y003906D01*
X045551Y003906D02*
X045551Y003906D01*
X045551Y004001D02*
X045551Y003585D01*
X045551Y003585D01*
X045551Y004001D01*
X045551Y003747D02*
X045551Y003747D01*
X045551Y003589D02*
X045551Y003589D01*
X045818Y003906D02*
X048243Y003906D01*
X048214Y003747D02*
X045936Y003747D01*
X046359Y003589D02*
X048055Y003589D01*
X047897Y003430D02*
X046488Y003430D01*
X046539Y003272D02*
X047738Y003272D01*
X047580Y003113D02*
X046538Y003113D01*
X046472Y002955D02*
X047421Y002955D01*
X047421Y002502D02*
X046063Y002502D01*
X045551Y002128D02*
X045551Y001813D01*
X045414Y001676D01*
X044232Y001676D01*
X043445Y002463D01*
X043445Y006065D01*
X043882Y006125D02*
X044249Y006125D01*
X044249Y005967D02*
X043882Y005967D01*
X043882Y005808D02*
X044254Y005808D01*
X044608Y005808D02*
X044645Y005808D01*
X044645Y005967D02*
X044608Y005967D01*
X044249Y006284D02*
X043882Y006284D01*
X043008Y005808D02*
X042912Y005808D01*
X042754Y005650D02*
X043108Y005650D01*
X043125Y005491D02*
X042595Y005491D01*
X042437Y005333D02*
X043125Y005333D01*
X043125Y005174D02*
X042520Y005174D01*
X042648Y005016D02*
X043125Y005016D01*
X043125Y004857D02*
X042692Y004857D01*
X042675Y004699D02*
X043125Y004699D01*
X043125Y004540D02*
X042584Y004540D01*
X042273Y004381D02*
X043125Y004381D01*
X043125Y004223D02*
X042114Y004223D01*
X041956Y004064D02*
X043125Y004064D01*
X043125Y003906D02*
X041797Y003906D01*
X041477Y004038D02*
X042264Y004825D01*
X041870Y005219D02*
X038524Y005219D01*
X038327Y005022D01*
X037964Y005333D02*
X037902Y005333D01*
X037651Y005491D02*
X038215Y005491D01*
X038010Y005650D02*
X037856Y005650D01*
X037428Y005491D02*
X036864Y005491D01*
X036969Y005650D02*
X037223Y005650D01*
X036752Y005650D02*
X036752Y005650D01*
X036752Y005808D02*
X036752Y005808D01*
X036752Y005967D02*
X036752Y005967D01*
X036752Y006006D02*
X036752Y006006D01*
X036752Y006007D02*
X036752Y006422D01*
X036719Y006422D01*
X036655Y006412D01*
X036592Y006392D01*
X036534Y006362D01*
X036481Y006324D01*
X036435Y006277D01*
X036396Y006224D01*
X036366Y006166D01*
X036358Y006141D01*
X036350Y006166D01*
X036321Y006224D01*
X036282Y006277D01*
X036236Y006324D01*
X036183Y006362D01*
X036124Y006392D01*
X036062Y006412D01*
X036039Y006416D01*
X036097Y006474D01*
X037424Y006474D01*
X037270Y006410D01*
X037136Y006276D01*
X037112Y006217D01*
X037108Y006224D01*
X037070Y006277D01*
X037023Y006324D01*
X036970Y006362D01*
X036912Y006392D01*
X036850Y006412D01*
X036785Y006422D01*
X036752Y006422D01*
X036752Y006007D01*
X036752Y006007D01*
X036752Y006125D02*
X036752Y006125D01*
X036752Y006284D02*
X036752Y006284D01*
X036441Y006284D02*
X036276Y006284D01*
X036066Y006443D02*
X037348Y006443D01*
X037144Y006284D02*
X037063Y006284D01*
X037731Y006443D02*
X038136Y006443D01*
X038193Y006601D02*
X042800Y006601D01*
X042958Y006760D02*
X040775Y006760D01*
X040603Y006760D02*
X038352Y006760D01*
X038510Y006918D02*
X040353Y006918D01*
X040272Y007077D02*
X038627Y007077D01*
X038675Y007235D02*
X039160Y007235D01*
X039508Y007640D02*
X039567Y007640D01*
X039902Y007975D01*
X040354Y007975D01*
X040689Y008309D01*
X040252Y008325D02*
X040252Y008574D01*
X040289Y008662D01*
X039823Y008662D01*
X039815Y008670D02*
X039774Y008694D01*
X039729Y008706D01*
X039526Y008706D01*
X039526Y008328D01*
X039490Y008328D01*
X039490Y008706D01*
X039287Y008706D01*
X039242Y008694D01*
X039201Y008670D01*
X039167Y008636D01*
X039143Y008595D01*
X039131Y008550D01*
X039131Y008328D01*
X039489Y008328D01*
X039489Y008291D01*
X039131Y008291D01*
X039131Y008069D01*
X039142Y008027D01*
X039108Y007993D01*
X039094Y007960D01*
X038741Y007960D01*
X038735Y007975D01*
X038764Y008045D01*
X038764Y008574D01*
X038738Y008636D01*
X038755Y008677D01*
X038755Y008836D01*
X043733Y008836D01*
X043805Y008806D01*
X043917Y008806D01*
X043960Y008763D01*
X044118Y008698D01*
X044178Y008698D01*
X044373Y008504D02*
X042247Y008504D01*
X042247Y008345D02*
X044532Y008345D01*
X044690Y008186D02*
X042247Y008186D01*
X042236Y008028D02*
X044849Y008028D01*
X045007Y007869D02*
X042307Y007869D01*
X042307Y007711D02*
X045166Y007711D01*
X045324Y007552D02*
X042307Y007552D01*
X042307Y007394D02*
X045483Y007394D01*
X045641Y007235D02*
X042218Y007235D01*
X041870Y007640D02*
X040689Y007640D01*
X040689Y007187D01*
X041025Y006918D02*
X043008Y006918D01*
X043040Y007077D02*
X041107Y007077D01*
X041117Y007235D02*
X041522Y007235D01*
X040261Y007235D02*
X039856Y007235D01*
X039945Y007394D02*
X040252Y007394D01*
X040252Y007552D02*
X039945Y007552D01*
X039508Y007640D02*
X038327Y007640D01*
X038327Y007187D01*
X037933Y006794D01*
X035965Y006794D01*
X035571Y006400D01*
X035571Y005416D01*
X035965Y005022D01*
X036327Y005333D02*
X036389Y005333D01*
X036641Y005491D02*
X036076Y005491D01*
X036182Y005650D02*
X036535Y005650D01*
X036386Y005808D02*
X036331Y005808D01*
X035965Y005808D02*
X035964Y005808D01*
X035964Y005650D02*
X035965Y005650D01*
X035964Y005967D02*
X035965Y005967D01*
X035259Y006482D02*
X035083Y006482D01*
X034908Y006410D01*
X034784Y006286D01*
X034660Y006410D01*
X034485Y006482D01*
X034316Y006482D01*
X034316Y007114D01*
X034386Y007184D01*
X034634Y007184D01*
X034723Y007220D01*
X034790Y007288D01*
X034804Y007320D01*
X035157Y007320D01*
X035171Y007288D01*
X035238Y007220D01*
X035326Y007184D01*
X035816Y007184D01*
X035904Y007220D01*
X035971Y007288D01*
X036008Y007376D01*
X036008Y007904D01*
X035971Y007993D01*
X035937Y008027D01*
X035948Y008069D01*
X035948Y008291D01*
X035590Y008291D01*
X035590Y008328D01*
X035948Y008328D01*
X035948Y008550D01*
X035936Y008595D01*
X035912Y008636D01*
X035878Y008670D01*
X035837Y008694D01*
X035792Y008706D01*
X035589Y008706D01*
X035589Y008328D01*
X035553Y008328D01*
X035553Y008706D01*
X035350Y008706D01*
X035305Y008694D01*
X035264Y008670D01*
X035230Y008636D01*
X035206Y008595D01*
X035194Y008550D01*
X035194Y008328D01*
X035552Y008328D01*
X035552Y008291D01*
X035194Y008291D01*
X035194Y008069D01*
X035205Y008027D01*
X035171Y007993D01*
X035157Y007960D01*
X034804Y007960D01*
X034798Y007975D01*
X034827Y008045D01*
X034827Y008574D01*
X034801Y008636D01*
X034818Y008677D01*
X034818Y008836D01*
X037899Y008836D01*
X037899Y008677D01*
X037916Y008636D01*
X037890Y008574D01*
X037890Y008348D01*
X037850Y008445D01*
X037616Y008679D01*
X037311Y008805D01*
X036981Y008805D01*
X036675Y008679D01*
X036442Y008445D01*
X036315Y008140D01*
X036315Y007810D01*
X036442Y007504D01*
X036675Y007271D01*
X036981Y007144D01*
X037311Y007144D01*
X037616Y007271D01*
X037850Y007504D01*
X037890Y007601D01*
X037890Y007376D01*
X037927Y007288D01*
X037951Y007264D01*
X037801Y007114D01*
X035901Y007114D01*
X035783Y007065D01*
X035693Y006975D01*
X035300Y006581D01*
X035259Y006482D01*
X035320Y006601D02*
X034316Y006601D01*
X034316Y006760D02*
X035478Y006760D01*
X035637Y006918D02*
X034316Y006918D01*
X034316Y007077D02*
X035812Y007077D01*
X035919Y007235D02*
X036761Y007235D01*
X036552Y007394D02*
X036008Y007394D01*
X036008Y007552D02*
X036422Y007552D01*
X036356Y007711D02*
X036008Y007711D01*
X036008Y007869D02*
X036315Y007869D01*
X036315Y008028D02*
X035937Y008028D01*
X035948Y008186D02*
X036335Y008186D01*
X036400Y008345D02*
X035948Y008345D01*
X035948Y008504D02*
X036500Y008504D01*
X036659Y008662D02*
X035886Y008662D01*
X035589Y008662D02*
X035553Y008662D01*
X035553Y008504D02*
X035589Y008504D01*
X035589Y008345D02*
X035553Y008345D01*
X035194Y008345D02*
X034827Y008345D01*
X034827Y008186D02*
X035194Y008186D01*
X035205Y008028D02*
X034820Y008028D01*
X034390Y008309D02*
X034390Y008762D01*
X034818Y008821D02*
X037899Y008821D01*
X037905Y008662D02*
X037633Y008662D01*
X037792Y008504D02*
X037890Y008504D01*
X038327Y008309D02*
X038327Y008762D01*
X038755Y008821D02*
X043770Y008821D01*
X043868Y009126D02*
X043839Y009156D01*
X044173Y009156D01*
X044203Y009126D01*
X043868Y009126D01*
X043839Y009156D02*
X033996Y009156D01*
X033603Y008762D01*
X033603Y007581D01*
X033996Y007246D02*
X033996Y005416D01*
X033603Y005022D01*
X032815Y005022D02*
X032421Y005416D01*
X032421Y006400D01*
X033209Y005613D02*
X033603Y006006D01*
X033209Y005613D02*
X033209Y004431D01*
X033603Y004038D01*
X034386Y003589D02*
X032186Y003589D01*
X032315Y003430D02*
X034545Y003430D01*
X034048Y003272D02*
X032366Y003272D01*
X032365Y003113D02*
X033917Y003113D01*
X033855Y002955D02*
X032299Y002955D01*
X032185Y002796D02*
X033855Y002796D01*
X033901Y002637D02*
X032284Y002637D01*
X032306Y002479D02*
X034011Y002479D01*
X034070Y002320D02*
X032264Y002320D01*
X032129Y002162D02*
X034070Y002162D01*
X034070Y002003D02*
X031842Y002003D01*
X031890Y002162D02*
X031890Y002162D01*
X031890Y002320D02*
X031890Y002320D01*
X031890Y002479D02*
X031890Y002479D01*
X031768Y001845D02*
X034070Y001845D01*
X034710Y001845D02*
X036130Y001845D01*
X035972Y002003D02*
X034710Y002003D01*
X034710Y002162D02*
X035813Y002162D01*
X035655Y002320D02*
X034710Y002320D01*
X034769Y002479D02*
X035496Y002479D01*
X035338Y002637D02*
X034878Y002637D01*
X034925Y002796D02*
X035179Y002796D01*
X035021Y002955D02*
X034925Y002955D01*
X034390Y002857D02*
X034390Y001282D01*
X034784Y000888D01*
X041083Y000888D01*
X041477Y001282D01*
X041111Y001369D02*
X038108Y001369D01*
X038317Y001528D02*
X041157Y001528D01*
X041157Y001686D02*
X038642Y001686D01*
X038855Y001845D02*
X041157Y001845D01*
X041157Y002003D02*
X038928Y002003D01*
X040953Y001211D02*
X034914Y001211D01*
X034755Y001369D02*
X036656Y001369D01*
X036447Y001528D02*
X034710Y001528D01*
X034710Y001686D02*
X036289Y001686D01*
X034700Y000576D02*
X034080Y000576D01*
X034267Y000707D02*
X034267Y000707D01*
X034296Y000735D02*
X034484Y000735D01*
X034512Y000707D02*
X034512Y000707D01*
X033996Y000888D02*
X034390Y001282D01*
X033996Y000888D02*
X029272Y000888D01*
X027303Y002857D01*
X026815Y002637D02*
X025197Y002637D01*
X025219Y002479D02*
X026924Y002479D01*
X026768Y002796D02*
X025098Y002796D01*
X025212Y002955D02*
X026768Y002955D01*
X026830Y003113D02*
X025278Y003113D01*
X025279Y003272D02*
X026961Y003272D01*
X027383Y003906D02*
X027770Y003906D01*
X027612Y004064D02*
X027499Y004064D01*
X027106Y004235D02*
X026910Y004431D01*
X025729Y004431D01*
X025335Y004431D01*
X023760Y004431D01*
X023366Y004825D01*
X023366Y006065D01*
X023803Y006125D02*
X024111Y006125D01*
X024111Y005967D02*
X023803Y005967D01*
X023803Y005808D02*
X024111Y005808D01*
X024119Y005650D02*
X023704Y005650D01*
X023686Y005491D02*
X024134Y005491D01*
X024222Y005333D02*
X023686Y005333D01*
X023686Y005174D02*
X026502Y005174D01*
X026660Y005016D02*
X023686Y005016D01*
X023787Y004857D02*
X025637Y004857D01*
X025820Y004857D02*
X026819Y004857D01*
X026343Y005333D02*
X024873Y005333D01*
X024960Y005491D02*
X026220Y005491D01*
X026196Y005650D02*
X024975Y005650D01*
X024984Y005808D02*
X026196Y005808D01*
X026196Y005967D02*
X024984Y005967D01*
X024984Y006125D02*
X026196Y006125D01*
X026196Y006284D02*
X024984Y006284D01*
X024973Y006443D02*
X026196Y006443D01*
X026264Y006601D02*
X024984Y006601D01*
X024984Y006760D02*
X026423Y006760D01*
X026516Y006400D02*
X026851Y006735D01*
X026910Y006735D01*
X027346Y006760D02*
X027714Y006760D01*
X027714Y006753D02*
X028072Y006753D01*
X028072Y006716D01*
X027714Y006716D01*
X027714Y006494D01*
X027725Y006453D01*
X027690Y006418D01*
X027677Y006385D01*
X027323Y006385D01*
X027317Y006400D01*
X027346Y006470D01*
X027346Y006867D01*
X027714Y006867D01*
X027714Y006753D01*
X027697Y006794D02*
X028032Y006794D01*
X028091Y006735D01*
X028109Y006753D02*
X028468Y006753D01*
X028468Y006867D01*
X028746Y006867D01*
X029394Y006219D01*
X029484Y006129D01*
X029602Y006080D01*
X030167Y006080D01*
X030210Y006037D01*
X030368Y005972D01*
X030538Y005972D01*
X030695Y006037D01*
X030767Y006109D01*
X030764Y006101D01*
X030764Y005912D01*
X030804Y005814D01*
X028794Y005814D01*
X028528Y006081D01*
X028528Y006330D01*
X028491Y006418D01*
X028456Y006453D01*
X028468Y006494D01*
X028468Y006716D01*
X028109Y006716D01*
X028109Y006753D01*
X028468Y006760D02*
X028853Y006760D01*
X029012Y006601D02*
X028468Y006601D01*
X028466Y006443D02*
X029170Y006443D01*
X029329Y006284D02*
X028528Y006284D01*
X028528Y006125D02*
X029492Y006125D01*
X029666Y006400D02*
X030453Y006400D01*
X030764Y005967D02*
X028642Y005967D01*
X028091Y006065D02*
X026910Y006065D01*
X026516Y006400D02*
X026516Y005613D01*
X028878Y003250D01*
X028878Y002069D01*
X028021Y001686D02*
X024469Y001686D01*
X024681Y001845D02*
X027863Y001845D01*
X027704Y002003D02*
X024755Y002003D01*
X024803Y002162D02*
X024803Y002162D01*
X024803Y002320D02*
X024803Y002320D01*
X024803Y002479D02*
X024803Y002479D01*
X025043Y002162D02*
X027546Y002162D01*
X027387Y002320D02*
X025178Y002320D01*
X023902Y001845D02*
X023861Y001845D01*
X024114Y001686D02*
X021398Y001686D01*
X021398Y001528D02*
X028180Y001528D01*
X028338Y001369D02*
X021398Y001369D01*
X021398Y001211D02*
X028497Y001211D01*
X028655Y001052D02*
X021398Y001052D01*
X021398Y000894D02*
X028814Y000894D01*
X028972Y000735D02*
X021398Y000735D01*
X021398Y000576D02*
X029188Y000576D01*
X030947Y001845D02*
X030957Y001845D01*
X030216Y002479D02*
X029872Y002479D01*
X030038Y002637D02*
X030087Y002637D01*
X029666Y002857D02*
X029666Y003447D01*
X031240Y005022D01*
X030764Y004998D02*
X030764Y005117D01*
X030788Y005174D01*
X031590Y004699D02*
X031678Y004699D01*
X031025Y003906D02*
X030577Y003906D01*
X034390Y005022D02*
X035374Y004038D01*
X041477Y004038D01*
X043765Y003747D02*
X044673Y003747D01*
X044556Y003589D02*
X043765Y003589D01*
X043765Y003430D02*
X044525Y003430D01*
X044443Y003272D02*
X043765Y003272D01*
X043765Y003113D02*
X044276Y003113D01*
X044210Y002955D02*
X043765Y002955D01*
X043765Y002796D02*
X044209Y002796D01*
X044261Y002637D02*
X043765Y002637D01*
X043882Y002479D02*
X044389Y002479D01*
X044465Y002320D02*
X044040Y002320D01*
X044199Y002162D02*
X044477Y002162D01*
X044550Y002003D02*
X044357Y002003D01*
X045414Y002857D02*
X044941Y003428D01*
X044941Y003430D02*
X044941Y003430D01*
X044941Y003589D02*
X044941Y003589D01*
X044941Y003747D02*
X044941Y003747D01*
X047421Y002502D02*
X048563Y003644D01*
X048563Y007581D01*
X046595Y009550D01*
X031299Y009550D01*
X031340Y009138D02*
X033526Y009138D01*
X033367Y008979D02*
X031182Y008979D01*
X030925Y008662D02*
X030864Y008662D01*
X030863Y008504D02*
X030706Y008504D01*
X031556Y008662D02*
X031934Y008662D01*
X031776Y008504D02*
X031617Y008504D01*
X031617Y008345D02*
X031676Y008345D01*
X033996Y007246D02*
X034390Y007640D01*
X035571Y007640D01*
X035223Y007235D02*
X034738Y007235D01*
X034581Y006443D02*
X034986Y006443D01*
X037115Y005333D02*
X037177Y005333D01*
X037540Y005022D02*
X037540Y004825D01*
X037933Y004431D01*
X038644Y005650D02*
X041849Y005650D01*
X042007Y005808D02*
X038760Y005808D01*
X038803Y005967D02*
X042166Y005967D01*
X042324Y006125D02*
X038793Y006125D01*
X038723Y006284D02*
X042483Y006284D01*
X042641Y006443D02*
X038518Y006443D01*
X037922Y007235D02*
X037531Y007235D01*
X037739Y007394D02*
X037890Y007394D01*
X037890Y007552D02*
X037870Y007552D01*
X038757Y008028D02*
X039142Y008028D01*
X039131Y008186D02*
X038764Y008186D01*
X038764Y008345D02*
X039131Y008345D01*
X039131Y008504D02*
X038764Y008504D01*
X038749Y008662D02*
X039193Y008662D01*
X039490Y008662D02*
X039526Y008662D01*
X039526Y008504D02*
X039490Y008504D01*
X039490Y008345D02*
X039526Y008345D01*
X039527Y008328D02*
X039885Y008328D01*
X039885Y008550D01*
X039873Y008595D01*
X039849Y008636D01*
X039815Y008670D01*
X039885Y008504D02*
X040252Y008504D01*
X040252Y008345D02*
X039885Y008345D01*
X039838Y008295D02*
X039829Y008291D01*
X039527Y008291D01*
X039527Y008328D01*
X039838Y008295D02*
X039965Y008295D01*
X040222Y008295D01*
X040252Y008325D01*
X040289Y008662D02*
X040356Y008729D01*
X040445Y008766D01*
X040934Y008766D01*
X041022Y008729D01*
X041089Y008662D01*
X044203Y009126D02*
X046595Y006735D01*
X047031Y006760D02*
X048243Y006760D01*
X048243Y006918D02*
X047031Y006918D01*
X046999Y007077D02*
X048243Y007077D01*
X048243Y007235D02*
X046547Y007235D01*
X046388Y007394D02*
X048243Y007394D01*
X048139Y007552D02*
X046229Y007552D01*
X046071Y007711D02*
X047981Y007711D01*
X047822Y007869D02*
X045912Y007869D01*
X045754Y008028D02*
X047664Y008028D01*
X047505Y008186D02*
X045595Y008186D01*
X045437Y008345D02*
X047347Y008345D01*
X047188Y008504D02*
X045278Y008504D01*
X045120Y008662D02*
X047030Y008662D01*
X046871Y008821D02*
X044961Y008821D01*
X044803Y008979D02*
X046712Y008979D01*
X046554Y009138D02*
X044644Y009138D01*
X045031Y007077D02*
X045800Y007077D01*
X045959Y006918D02*
X045063Y006918D01*
X044222Y007077D02*
X043850Y007077D01*
X046595Y006065D02*
X046595Y005613D01*
X046920Y005333D02*
X048243Y005333D01*
X048243Y005491D02*
X047008Y005491D01*
X047023Y005650D02*
X048243Y005650D01*
X048243Y005808D02*
X047031Y005808D01*
X047031Y005967D02*
X048243Y005967D01*
X048243Y006125D02*
X047031Y006125D01*
X047031Y006284D02*
X048243Y006284D01*
X048243Y006443D02*
X047020Y006443D01*
X047031Y006601D02*
X048243Y006601D01*
X048942Y002479D02*
X048957Y002479D01*
X048957Y002320D02*
X048850Y002320D01*
X048957Y002162D02*
X048715Y002162D01*
X048556Y002003D02*
X048957Y002003D01*
X048957Y001845D02*
X048397Y001845D01*
X048239Y001686D02*
X048957Y001686D01*
X048957Y001528D02*
X048080Y001528D01*
X047922Y001369D02*
X048957Y001369D01*
X048957Y001211D02*
X047763Y001211D01*
X047605Y001052D02*
X048957Y001052D01*
X048957Y000894D02*
X047446Y000894D01*
X047288Y000735D02*
X048957Y000735D01*
X048957Y000576D02*
X047072Y000576D01*
X041787Y000576D02*
X041166Y000576D01*
X041382Y000735D02*
X041571Y000735D01*
X029622Y007394D02*
X029577Y007394D01*
X029622Y007552D02*
X029418Y007552D01*
X029622Y008574D02*
X029659Y008662D01*
X027714Y006601D02*
X027346Y006601D01*
X027335Y006443D02*
X027715Y006443D01*
X024547Y006065D02*
X024547Y005613D01*
X024111Y006284D02*
X023803Y006284D01*
X023742Y006443D02*
X024122Y006443D01*
X024111Y006601D02*
X023743Y006601D01*
X023939Y003906D02*
X021398Y003906D01*
X021398Y003747D02*
X023328Y003747D01*
X023233Y003589D02*
X021398Y003589D01*
X021398Y003430D02*
X023205Y003430D01*
X023183Y003272D02*
X021398Y003272D01*
X021398Y003113D02*
X023016Y003113D01*
X022950Y002955D02*
X021398Y002955D01*
X021398Y002796D02*
X022949Y002796D01*
X023001Y002637D02*
X021398Y002637D01*
X021398Y002479D02*
X023130Y002479D01*
X023205Y002320D02*
X021398Y002320D01*
X021398Y002162D02*
X023217Y002162D01*
X023290Y002003D02*
X021398Y002003D01*
X021398Y001845D02*
X023502Y001845D01*
X034827Y008504D02*
X035194Y008504D01*
X035256Y008662D02*
X034812Y008662D01*
D15*
X034390Y008762D03*
X036358Y008762D03*
X038327Y008762D03*
X040689Y007187D03*
X044203Y009126D03*
X045414Y006794D03*
X046595Y005613D03*
X042264Y004825D03*
X041477Y004825D03*
X031634Y008762D03*
X028091Y008762D03*
X027697Y006794D03*
X029862Y006794D03*
X030453Y006400D03*
X027697Y005219D03*
X027106Y004235D03*
X025729Y004431D03*
X024547Y005613D03*
X029666Y002857D03*
M02*
