G75*
G70*
%OFA0B0*%
%FSLAX24Y24*%
%IPPOS*%
%LPD*%
%AMOC8*
5,1,8,0,0,1.08239X$1,22.5*
%
%ADD10C,0.0000*%
%ADD11C,0.0472*%
%ADD12R,0.0394X0.0433*%
%ADD13C,0.0591*%
%ADD14C,0.0160*%
%ADD15C,0.0376*%
D10*
X021004Y000888D02*
X021004Y009156D01*
X021006Y009210D01*
X021011Y009263D01*
X021020Y009316D01*
X021033Y009368D01*
X021049Y009420D01*
X021069Y009470D01*
X021092Y009518D01*
X021119Y009565D01*
X021148Y009610D01*
X021181Y009653D01*
X021216Y009693D01*
X021254Y009731D01*
X021294Y009766D01*
X021337Y009799D01*
X021382Y009828D01*
X021429Y009855D01*
X021477Y009878D01*
X021527Y009898D01*
X021579Y009914D01*
X021631Y009927D01*
X021684Y009936D01*
X021737Y009941D01*
X021791Y009943D01*
X048563Y009943D01*
X048617Y009941D01*
X048670Y009936D01*
X048723Y009927D01*
X048775Y009914D01*
X048827Y009898D01*
X048877Y009878D01*
X048925Y009855D01*
X048972Y009828D01*
X049017Y009799D01*
X049060Y009766D01*
X049100Y009731D01*
X049138Y009693D01*
X049173Y009653D01*
X049206Y009610D01*
X049235Y009565D01*
X049262Y009518D01*
X049285Y009470D01*
X049305Y009420D01*
X049321Y009368D01*
X049334Y009316D01*
X049343Y009263D01*
X049348Y009210D01*
X049350Y009156D01*
X049351Y009156D02*
X049351Y000888D01*
X049350Y000888D02*
X049348Y000834D01*
X049343Y000781D01*
X049334Y000728D01*
X049321Y000676D01*
X049305Y000624D01*
X049285Y000574D01*
X049262Y000526D01*
X049235Y000479D01*
X049206Y000434D01*
X049173Y000391D01*
X049138Y000351D01*
X049100Y000313D01*
X049060Y000278D01*
X049017Y000245D01*
X048972Y000216D01*
X048925Y000189D01*
X048877Y000166D01*
X048827Y000146D01*
X048775Y000130D01*
X048723Y000117D01*
X048670Y000108D01*
X048617Y000103D01*
X048563Y000101D01*
X021791Y000101D01*
X021737Y000103D01*
X021684Y000108D01*
X021631Y000117D01*
X021579Y000130D01*
X021527Y000146D01*
X021477Y000166D01*
X021429Y000189D01*
X021382Y000216D01*
X021337Y000245D01*
X021294Y000278D01*
X021254Y000313D01*
X021216Y000351D01*
X021181Y000391D01*
X021148Y000434D01*
X021119Y000479D01*
X021092Y000526D01*
X021069Y000574D01*
X021049Y000624D01*
X021033Y000676D01*
X021020Y000728D01*
X021011Y000781D01*
X021006Y000834D01*
X021004Y000888D01*
X031830Y007975D02*
X031832Y008023D01*
X031838Y008071D01*
X031848Y008118D01*
X031861Y008164D01*
X031879Y008209D01*
X031899Y008253D01*
X031924Y008295D01*
X031952Y008334D01*
X031982Y008371D01*
X032016Y008405D01*
X032053Y008437D01*
X032091Y008466D01*
X032132Y008491D01*
X032175Y008513D01*
X032220Y008531D01*
X032266Y008545D01*
X032313Y008556D01*
X032361Y008563D01*
X032409Y008566D01*
X032457Y008565D01*
X032505Y008560D01*
X032553Y008551D01*
X032599Y008539D01*
X032644Y008522D01*
X032688Y008502D01*
X032730Y008479D01*
X032770Y008452D01*
X032808Y008422D01*
X032843Y008389D01*
X032875Y008353D01*
X032905Y008315D01*
X032931Y008274D01*
X032953Y008231D01*
X032973Y008187D01*
X032988Y008142D01*
X033000Y008095D01*
X033008Y008047D01*
X033012Y007999D01*
X033012Y007951D01*
X033008Y007903D01*
X033000Y007855D01*
X032988Y007808D01*
X032973Y007763D01*
X032953Y007719D01*
X032931Y007676D01*
X032905Y007635D01*
X032875Y007597D01*
X032843Y007561D01*
X032808Y007528D01*
X032770Y007498D01*
X032730Y007471D01*
X032688Y007448D01*
X032644Y007428D01*
X032599Y007411D01*
X032553Y007399D01*
X032505Y007390D01*
X032457Y007385D01*
X032409Y007384D01*
X032361Y007387D01*
X032313Y007394D01*
X032266Y007405D01*
X032220Y007419D01*
X032175Y007437D01*
X032132Y007459D01*
X032091Y007484D01*
X032053Y007513D01*
X032016Y007545D01*
X031982Y007579D01*
X031952Y007616D01*
X031924Y007655D01*
X031899Y007697D01*
X031879Y007741D01*
X031861Y007786D01*
X031848Y007832D01*
X031838Y007879D01*
X031832Y007927D01*
X031830Y007975D01*
X036555Y007975D02*
X036557Y008023D01*
X036563Y008071D01*
X036573Y008118D01*
X036586Y008164D01*
X036604Y008209D01*
X036624Y008253D01*
X036649Y008295D01*
X036677Y008334D01*
X036707Y008371D01*
X036741Y008405D01*
X036778Y008437D01*
X036816Y008466D01*
X036857Y008491D01*
X036900Y008513D01*
X036945Y008531D01*
X036991Y008545D01*
X037038Y008556D01*
X037086Y008563D01*
X037134Y008566D01*
X037182Y008565D01*
X037230Y008560D01*
X037278Y008551D01*
X037324Y008539D01*
X037369Y008522D01*
X037413Y008502D01*
X037455Y008479D01*
X037495Y008452D01*
X037533Y008422D01*
X037568Y008389D01*
X037600Y008353D01*
X037630Y008315D01*
X037656Y008274D01*
X037678Y008231D01*
X037698Y008187D01*
X037713Y008142D01*
X037725Y008095D01*
X037733Y008047D01*
X037737Y007999D01*
X037737Y007951D01*
X037733Y007903D01*
X037725Y007855D01*
X037713Y007808D01*
X037698Y007763D01*
X037678Y007719D01*
X037656Y007676D01*
X037630Y007635D01*
X037600Y007597D01*
X037568Y007561D01*
X037533Y007528D01*
X037495Y007498D01*
X037455Y007471D01*
X037413Y007448D01*
X037369Y007428D01*
X037324Y007411D01*
X037278Y007399D01*
X037230Y007390D01*
X037182Y007385D01*
X037134Y007384D01*
X037086Y007387D01*
X037038Y007394D01*
X036991Y007405D01*
X036945Y007419D01*
X036900Y007437D01*
X036857Y007459D01*
X036816Y007484D01*
X036778Y007513D01*
X036741Y007545D01*
X036707Y007579D01*
X036677Y007616D01*
X036649Y007655D01*
X036624Y007697D01*
X036604Y007741D01*
X036586Y007786D01*
X036573Y007832D01*
X036563Y007879D01*
X036557Y007927D01*
X036555Y007975D01*
D11*
X036752Y006006D03*
X037540Y006006D03*
X038327Y006006D03*
X038327Y005022D03*
X037540Y005022D03*
X036752Y005022D03*
X035965Y005022D03*
X035177Y005022D03*
X034390Y005022D03*
X033603Y005022D03*
X032815Y005022D03*
X032028Y005022D03*
X031240Y005022D03*
X031240Y006006D03*
X032028Y006006D03*
X032815Y006006D03*
X033603Y006006D03*
X034390Y006006D03*
X035177Y006006D03*
X035965Y006006D03*
X038465Y003585D03*
X037854Y003428D03*
X037599Y002857D03*
X038327Y002857D03*
X038977Y003211D03*
X038977Y002502D03*
X038465Y002128D03*
X037854Y002286D03*
X031890Y002502D03*
X031378Y002128D03*
X030768Y002286D03*
X030512Y002857D03*
X030768Y003428D03*
X031378Y003585D03*
X031890Y003211D03*
X031240Y002857D03*
X024803Y002502D03*
X024291Y002128D03*
X023681Y002286D03*
X023425Y002857D03*
X024154Y002857D03*
X024803Y003211D03*
X024291Y003585D03*
X023681Y003428D03*
X044685Y002857D03*
X045414Y002857D03*
X046063Y003211D03*
X045551Y003585D03*
X044941Y003428D03*
X046063Y002502D03*
X045551Y002128D03*
X044941Y002286D03*
D12*
X044626Y006065D03*
X044626Y006735D03*
X043445Y006735D03*
X043445Y006065D03*
X041477Y006065D03*
X040295Y006065D03*
X040295Y006735D03*
X041477Y006735D03*
X039508Y007640D03*
X038327Y007640D03*
X038327Y008309D03*
X039508Y008309D03*
X035571Y008309D03*
X034390Y008309D03*
X034390Y007640D03*
X035571Y007640D03*
X031240Y007640D03*
X031240Y008309D03*
X030059Y008309D03*
X030059Y007640D03*
X028091Y006735D03*
X026910Y006735D03*
X026910Y006065D03*
X028091Y006065D03*
X024547Y006065D03*
X023366Y006065D03*
X023366Y006735D03*
X024547Y006735D03*
X046595Y006735D03*
X046595Y006065D03*
D13*
X048563Y002857D03*
X041477Y002857D03*
X034390Y002857D03*
X027303Y002857D03*
X022185Y007581D03*
D14*
X021398Y007552D02*
X029622Y007552D01*
X029622Y007394D02*
X028731Y007394D01*
X028756Y007369D02*
X028666Y007459D01*
X028548Y007507D01*
X026186Y007507D01*
X026059Y007507D01*
X025941Y007459D01*
X025537Y007055D01*
X024961Y007055D01*
X024948Y007087D01*
X024880Y007155D01*
X024792Y007191D01*
X024303Y007191D01*
X024215Y007155D01*
X024147Y007087D01*
X024134Y007055D01*
X023780Y007055D01*
X023767Y007087D01*
X023699Y007155D01*
X023611Y007191D01*
X023122Y007191D01*
X023033Y007155D01*
X022966Y007087D01*
X022929Y006999D01*
X022929Y006470D01*
X022959Y006400D01*
X022929Y006330D01*
X022929Y006081D01*
X022308Y005459D01*
X022259Y005342D01*
X022259Y005214D01*
X022259Y001612D01*
X022308Y001494D01*
X022398Y001404D01*
X022791Y001011D01*
X022909Y000962D01*
X023036Y000962D01*
X023824Y000962D01*
X023941Y001011D01*
X024031Y001101D01*
X024473Y001542D01*
X024563Y001632D01*
X024611Y001750D01*
X024611Y001775D01*
X024695Y001859D01*
X024768Y002034D01*
X024768Y002087D01*
X024771Y002086D01*
X024803Y002086D01*
X024803Y002502D01*
X024803Y002502D01*
X024803Y002086D01*
X024836Y002086D01*
X024901Y002096D01*
X024963Y002117D01*
X025021Y002146D01*
X025074Y002185D01*
X025121Y002231D01*
X025159Y002284D01*
X025189Y002343D01*
X025209Y002405D01*
X025219Y002470D01*
X025219Y002502D01*
X024804Y002502D01*
X024804Y002503D01*
X025219Y002503D01*
X025219Y002535D01*
X025209Y002600D01*
X025189Y002662D01*
X025159Y002720D01*
X025121Y002774D01*
X025080Y002814D01*
X025207Y002941D01*
X025279Y003116D01*
X025279Y003306D01*
X025207Y003481D01*
X025073Y003615D01*
X024898Y003687D01*
X024765Y003687D01*
X024695Y003855D01*
X024561Y003989D01*
X024386Y004061D01*
X024197Y004061D01*
X024022Y003989D01*
X023890Y003857D01*
X023776Y003904D01*
X023586Y003904D01*
X023411Y003831D01*
X023278Y003697D01*
X023205Y003522D01*
X023205Y003333D01*
X023223Y003288D01*
X023156Y003260D01*
X023022Y003126D01*
X022949Y002951D01*
X022949Y002762D01*
X023022Y002587D01*
X023156Y002453D01*
X023223Y002425D01*
X023205Y002381D01*
X023205Y002191D01*
X023278Y002016D01*
X023411Y001882D01*
X023586Y001810D01*
X023776Y001810D01*
X023877Y001851D01*
X023627Y001602D01*
X023105Y001602D01*
X022899Y001808D01*
X022899Y005145D01*
X023362Y005609D01*
X023611Y005609D01*
X023699Y005645D01*
X023767Y005713D01*
X023803Y005801D01*
X023803Y006330D01*
X023774Y006400D01*
X023780Y006415D01*
X024134Y006415D01*
X024147Y006382D01*
X024182Y006347D01*
X024171Y006306D01*
X024171Y006084D01*
X024529Y006084D01*
X024529Y006047D01*
X024171Y006047D01*
X024171Y005825D01*
X024183Y005779D01*
X024206Y005738D01*
X024240Y005705D01*
X024281Y005681D01*
X024327Y005669D01*
X024529Y005669D01*
X024529Y006047D01*
X024566Y006047D01*
X024566Y006084D01*
X024924Y006084D01*
X024924Y006306D01*
X024913Y006347D01*
X024948Y006382D01*
X024961Y006415D01*
X025733Y006415D01*
X025802Y006443D01*
X025802Y006336D01*
X025802Y005155D01*
X025851Y005038D01*
X025941Y004948D01*
X027558Y003330D01*
X027410Y003392D01*
X027197Y003392D01*
X027000Y003310D01*
X026850Y003160D01*
X026768Y002963D01*
X026768Y002750D01*
X026850Y002553D01*
X027000Y002403D01*
X027197Y002321D01*
X027386Y002321D01*
X029001Y000707D01*
X029091Y000617D01*
X029208Y000568D01*
X033933Y000568D01*
X034060Y000568D01*
X034177Y000617D01*
X034390Y000829D01*
X034512Y000707D01*
X034602Y000617D01*
X034720Y000568D01*
X041019Y000568D01*
X041146Y000568D01*
X041264Y000617D01*
X041476Y000829D01*
X041599Y000707D01*
X041689Y000617D01*
X041807Y000568D01*
X046925Y000568D01*
X047052Y000568D01*
X047170Y000617D01*
X048744Y002192D01*
X048834Y002282D01*
X048883Y002399D01*
X048883Y002420D01*
X048957Y002493D01*
X048957Y000510D01*
X048950Y000501D01*
X048941Y000494D01*
X021414Y000494D01*
X021404Y000501D01*
X021398Y000510D01*
X021398Y009534D01*
X021404Y009543D01*
X021414Y009550D01*
X030847Y009550D01*
X030063Y008766D01*
X029815Y008766D01*
X029726Y008729D01*
X029659Y008662D01*
X021398Y008662D01*
X021398Y008504D02*
X029622Y008504D01*
X029622Y008574D02*
X029622Y008045D01*
X029652Y007975D01*
X029622Y007904D01*
X029622Y007376D01*
X029659Y007288D01*
X029726Y007220D01*
X029815Y007184D01*
X030304Y007184D01*
X030392Y007220D01*
X030459Y007288D01*
X030473Y007320D01*
X030827Y007320D01*
X030840Y007288D01*
X030907Y007220D01*
X030996Y007184D01*
X031244Y007184D01*
X031945Y006482D01*
X031933Y006482D01*
X031758Y006410D01*
X031634Y006286D01*
X031510Y006410D01*
X031335Y006482D01*
X031146Y006482D01*
X030971Y006410D01*
X030837Y006276D01*
X030764Y006101D01*
X030764Y005912D01*
X030837Y005737D01*
X030971Y005603D01*
X031146Y005530D01*
X031335Y005530D01*
X031510Y005603D01*
X031634Y005727D01*
X031758Y005603D01*
X031933Y005530D01*
X032101Y005530D01*
X032101Y005498D01*
X031933Y005498D01*
X031758Y005426D01*
X031634Y005302D01*
X031510Y005426D01*
X031335Y005498D01*
X031146Y005498D01*
X030971Y005426D01*
X030887Y005342D01*
X030782Y005342D01*
X028756Y007369D01*
X028889Y007235D02*
X029711Y007235D01*
X030059Y007640D02*
X031240Y007640D01*
X032421Y006459D01*
X032421Y005416D01*
X032815Y005022D01*
X032465Y004699D02*
X032378Y004699D01*
X032421Y004742D02*
X032545Y004618D01*
X032720Y004546D01*
X032910Y004546D01*
X033085Y004618D01*
X033209Y004742D01*
X033333Y004618D01*
X033508Y004546D01*
X033697Y004546D01*
X033872Y004618D01*
X033996Y004742D01*
X034120Y004618D01*
X034295Y004546D01*
X034414Y004546D01*
X035103Y003856D01*
X035193Y003766D01*
X035310Y003718D01*
X037471Y003718D01*
X037451Y003697D01*
X037378Y003522D01*
X037378Y003333D01*
X037397Y003288D01*
X037329Y003260D01*
X037195Y003126D01*
X037122Y002951D01*
X037122Y002762D01*
X037195Y002587D01*
X037329Y002453D01*
X037397Y002425D01*
X037378Y002381D01*
X037378Y002191D01*
X037451Y002016D01*
X037585Y001882D01*
X037760Y001810D01*
X037949Y001810D01*
X038063Y001857D01*
X038195Y001725D01*
X038370Y001652D01*
X038559Y001652D01*
X038734Y001725D01*
X038868Y001859D01*
X038941Y002034D01*
X038941Y002087D01*
X038944Y002086D01*
X038976Y002086D01*
X038976Y002502D01*
X038977Y002502D01*
X038977Y002503D01*
X039393Y002503D01*
X039393Y002535D01*
X039382Y002600D01*
X039362Y002662D01*
X039332Y002720D01*
X039294Y002774D01*
X039253Y002814D01*
X039380Y002941D01*
X039453Y003116D01*
X039453Y003306D01*
X039380Y003481D01*
X039246Y003615D01*
X039071Y003687D01*
X038938Y003687D01*
X038925Y003718D01*
X041540Y003718D01*
X041658Y003766D01*
X041748Y003856D01*
X041748Y003857D01*
X042288Y004397D01*
X042349Y004397D01*
X042506Y004462D01*
X042627Y004583D01*
X042692Y004740D01*
X042692Y004910D01*
X042627Y005068D01*
X042506Y005188D01*
X042355Y005251D01*
X043008Y005904D01*
X043008Y005801D01*
X043045Y005713D01*
X043112Y005645D01*
X043125Y005640D01*
X043125Y002399D01*
X043174Y002282D01*
X043264Y002192D01*
X044051Y001404D01*
X044169Y001356D01*
X044296Y001356D01*
X045477Y001356D01*
X045595Y001404D01*
X045685Y001494D01*
X045733Y001542D01*
X045823Y001632D01*
X045871Y001750D01*
X045871Y001775D01*
X045955Y001859D01*
X046024Y002026D01*
X046158Y002026D01*
X046333Y002099D01*
X046417Y002182D01*
X047485Y002182D01*
X047603Y002231D01*
X047693Y002321D01*
X048055Y002684D01*
X048109Y002553D01*
X048155Y002508D01*
X046856Y001208D01*
X042003Y001208D01*
X041796Y001414D01*
X041796Y002420D01*
X041930Y002553D01*
X042012Y002750D01*
X042012Y002963D01*
X041930Y003160D01*
X041780Y003310D01*
X041583Y003392D01*
X041370Y003392D01*
X041173Y003310D01*
X041023Y003160D01*
X040941Y002963D01*
X040941Y002750D01*
X041023Y002553D01*
X041157Y002420D01*
X041157Y001414D01*
X040950Y001208D01*
X034916Y001208D01*
X034710Y001414D01*
X034710Y002420D01*
X034844Y002553D01*
X034925Y002750D01*
X034925Y002963D01*
X034844Y003160D01*
X034693Y003310D01*
X034496Y003392D01*
X034283Y003392D01*
X034087Y003310D01*
X033936Y003160D01*
X033855Y002963D01*
X033855Y002750D01*
X033936Y002553D01*
X034070Y002420D01*
X034070Y001414D01*
X033864Y001208D01*
X031225Y001208D01*
X031559Y001542D01*
X031559Y001542D01*
X031649Y001632D01*
X031698Y001750D01*
X031698Y001775D01*
X031782Y001859D01*
X031854Y002034D01*
X031854Y002087D01*
X031857Y002086D01*
X031890Y002086D01*
X031923Y002086D01*
X031987Y002096D01*
X032050Y002117D01*
X032108Y002146D01*
X032161Y002185D01*
X032207Y002231D01*
X032246Y002284D01*
X032276Y002343D01*
X032296Y002405D01*
X032306Y002470D01*
X032306Y002502D01*
X031890Y002502D01*
X031890Y002086D01*
X031890Y002502D01*
X031890Y002502D01*
X031890Y002503D01*
X032306Y002503D01*
X032306Y002535D01*
X032296Y002600D01*
X032276Y002662D01*
X032246Y002720D01*
X032207Y002774D01*
X032167Y002814D01*
X032294Y002941D01*
X032366Y003116D01*
X032366Y003306D01*
X032294Y003481D01*
X032160Y003615D01*
X031985Y003687D01*
X031851Y003687D01*
X031782Y003855D01*
X031648Y003989D01*
X031473Y004061D01*
X031283Y004061D01*
X031108Y003989D01*
X030976Y003857D01*
X030863Y003904D01*
X030673Y003904D01*
X030498Y003831D01*
X030364Y003697D01*
X030292Y003522D01*
X030292Y003333D01*
X030310Y003288D01*
X030242Y003260D01*
X030108Y003126D01*
X030036Y002951D01*
X030036Y002762D01*
X030108Y002587D01*
X030242Y002453D01*
X030310Y002425D01*
X030292Y002381D01*
X030292Y002191D01*
X030364Y002016D01*
X030498Y001882D01*
X030673Y001810D01*
X030863Y001810D01*
X030964Y001851D01*
X030714Y001602D01*
X030192Y001602D01*
X026442Y005351D01*
X026442Y006267D01*
X026473Y006298D01*
X026473Y005801D01*
X026509Y005713D01*
X026577Y005645D01*
X026665Y005609D01*
X027154Y005609D01*
X027242Y005645D01*
X027310Y005713D01*
X027323Y005745D01*
X027677Y005745D01*
X027690Y005713D01*
X027758Y005645D01*
X027846Y005609D01*
X028036Y005609D01*
X029484Y004160D01*
X029602Y004111D01*
X029729Y004111D01*
X031501Y004111D01*
X031618Y004160D01*
X031708Y004250D01*
X032004Y004546D01*
X032122Y004546D01*
X032297Y004618D01*
X032421Y004742D01*
X031998Y004540D02*
X034419Y004540D01*
X034578Y004381D02*
X031840Y004381D01*
X031681Y004223D02*
X034736Y004223D01*
X034895Y004064D02*
X027729Y004064D01*
X027888Y003906D02*
X031025Y003906D01*
X030414Y003747D02*
X028046Y003747D01*
X028205Y003589D02*
X030319Y003589D01*
X030292Y003430D02*
X028363Y003430D01*
X028522Y003272D02*
X030269Y003272D01*
X030103Y003113D02*
X028681Y003113D01*
X028839Y002955D02*
X030037Y002955D01*
X030036Y002796D02*
X028998Y002796D01*
X029156Y002637D02*
X030087Y002637D01*
X030216Y002479D02*
X029315Y002479D01*
X029473Y002320D02*
X030292Y002320D01*
X030304Y002162D02*
X029632Y002162D01*
X029790Y002003D02*
X030377Y002003D01*
X030588Y001845D02*
X029949Y001845D01*
X030107Y001686D02*
X030798Y001686D01*
X030947Y001845D02*
X030957Y001845D01*
X031378Y001813D02*
X031378Y002128D01*
X031378Y001813D02*
X030847Y001282D01*
X030059Y001282D01*
X026122Y005219D01*
X026122Y006400D01*
X026457Y006735D01*
X026910Y006735D01*
X027346Y006760D02*
X027714Y006760D01*
X027714Y006753D02*
X027714Y006867D01*
X027346Y006867D01*
X027346Y006470D01*
X027317Y006400D01*
X027323Y006385D01*
X027677Y006385D01*
X027690Y006418D01*
X027725Y006453D01*
X027714Y006494D01*
X027714Y006716D01*
X028072Y006716D01*
X028072Y006753D01*
X027714Y006753D01*
X027697Y006794D02*
X028032Y006794D01*
X028091Y006735D01*
X028109Y006753D02*
X028466Y006753D01*
X030468Y004751D01*
X029798Y004751D01*
X028528Y006022D01*
X028528Y006330D01*
X028491Y006418D01*
X028456Y006453D01*
X028468Y006494D01*
X028468Y006716D01*
X028109Y006716D01*
X028109Y006753D01*
X028468Y006601D02*
X028618Y006601D01*
X028466Y006443D02*
X028777Y006443D01*
X028935Y006284D02*
X028528Y006284D01*
X028528Y006125D02*
X029094Y006125D01*
X029252Y005967D02*
X028583Y005967D01*
X028741Y005808D02*
X029411Y005808D01*
X029569Y005650D02*
X028900Y005650D01*
X029058Y005491D02*
X029728Y005491D01*
X029886Y005333D02*
X029217Y005333D01*
X029375Y005174D02*
X030045Y005174D01*
X030204Y005016D02*
X029534Y005016D01*
X029692Y004857D02*
X030362Y004857D01*
X030650Y005022D02*
X028484Y007187D01*
X026122Y007187D01*
X025669Y006735D01*
X024547Y006735D01*
X023366Y006735D01*
X022929Y006760D02*
X021398Y006760D01*
X021398Y006918D02*
X022929Y006918D01*
X022962Y007077D02*
X021398Y007077D01*
X021398Y007235D02*
X025717Y007235D01*
X025559Y007077D02*
X024952Y007077D01*
X024143Y007077D02*
X023771Y007077D01*
X022929Y006601D02*
X021398Y006601D01*
X021398Y006443D02*
X022941Y006443D01*
X022929Y006284D02*
X021398Y006284D01*
X021398Y006125D02*
X022929Y006125D01*
X022815Y005967D02*
X021398Y005967D01*
X021398Y005808D02*
X022657Y005808D01*
X022498Y005650D02*
X021398Y005650D01*
X021398Y005491D02*
X022340Y005491D01*
X022259Y005333D02*
X021398Y005333D01*
X021398Y005174D02*
X022259Y005174D01*
X022259Y005016D02*
X021398Y005016D01*
X021398Y004857D02*
X022259Y004857D01*
X022259Y004699D02*
X021398Y004699D01*
X021398Y004540D02*
X022259Y004540D01*
X022259Y004381D02*
X021398Y004381D01*
X021398Y004223D02*
X022259Y004223D01*
X022259Y004064D02*
X021398Y004064D01*
X021398Y003906D02*
X022259Y003906D01*
X022259Y003747D02*
X021398Y003747D01*
X021398Y003589D02*
X022259Y003589D01*
X022259Y003430D02*
X021398Y003430D01*
X021398Y003272D02*
X022259Y003272D01*
X022259Y003113D02*
X021398Y003113D01*
X021398Y002955D02*
X022259Y002955D01*
X022259Y002796D02*
X021398Y002796D01*
X021398Y002637D02*
X022259Y002637D01*
X022259Y002479D02*
X021398Y002479D01*
X021398Y002320D02*
X022259Y002320D01*
X022259Y002162D02*
X021398Y002162D01*
X021398Y002003D02*
X022259Y002003D01*
X022259Y001845D02*
X021398Y001845D01*
X021398Y001686D02*
X022259Y001686D01*
X022294Y001528D02*
X021398Y001528D01*
X021398Y001369D02*
X022433Y001369D01*
X022591Y001211D02*
X021398Y001211D01*
X021398Y001052D02*
X022750Y001052D01*
X022973Y001282D02*
X022579Y001676D01*
X022579Y005278D01*
X023366Y006065D01*
X023803Y006125D02*
X024171Y006125D01*
X024171Y005967D02*
X023803Y005967D01*
X023803Y005808D02*
X024175Y005808D01*
X024529Y005808D02*
X024566Y005808D01*
X024566Y005669D02*
X024768Y005669D01*
X024814Y005681D01*
X024855Y005705D01*
X024888Y005738D01*
X024912Y005779D01*
X024924Y005825D01*
X024924Y006047D01*
X024566Y006047D01*
X024566Y005669D01*
X024566Y005967D02*
X024529Y005967D01*
X024924Y005967D02*
X025802Y005967D01*
X025802Y006125D02*
X024924Y006125D01*
X024924Y006284D02*
X025802Y006284D01*
X025800Y006443D02*
X025802Y006443D01*
X026459Y006284D02*
X026473Y006284D01*
X026473Y006125D02*
X026442Y006125D01*
X026442Y005967D02*
X026473Y005967D01*
X026473Y005808D02*
X026442Y005808D01*
X026442Y005650D02*
X026572Y005650D01*
X026442Y005491D02*
X028153Y005491D01*
X028312Y005333D02*
X026461Y005333D01*
X026619Y005174D02*
X028470Y005174D01*
X028629Y005016D02*
X026778Y005016D01*
X026937Y004857D02*
X028787Y004857D01*
X028946Y004699D02*
X027095Y004699D01*
X027254Y004540D02*
X029104Y004540D01*
X029263Y004381D02*
X027412Y004381D01*
X027571Y004223D02*
X029421Y004223D01*
X029666Y004431D02*
X028091Y006006D01*
X028091Y006065D01*
X026910Y006065D01*
X027247Y005650D02*
X027753Y005650D01*
X027715Y006443D02*
X027335Y006443D01*
X027346Y006601D02*
X027714Y006601D01*
X029048Y007077D02*
X031351Y007077D01*
X031510Y006918D02*
X029206Y006918D01*
X029365Y006760D02*
X031668Y006760D01*
X031827Y006601D02*
X029523Y006601D01*
X029682Y006443D02*
X031049Y006443D01*
X030845Y006284D02*
X029840Y006284D01*
X029999Y006125D02*
X030774Y006125D01*
X030764Y005967D02*
X030157Y005967D01*
X030316Y005808D02*
X030807Y005808D01*
X030923Y005650D02*
X030475Y005650D01*
X030633Y005491D02*
X031129Y005491D01*
X031352Y005491D02*
X031916Y005491D01*
X031711Y005650D02*
X031557Y005650D01*
X031603Y005333D02*
X031665Y005333D01*
X032028Y005022D02*
X031437Y004431D01*
X029666Y004431D01*
X030650Y005022D02*
X031240Y005022D01*
X031731Y003906D02*
X035054Y003906D01*
X035239Y003747D02*
X031826Y003747D01*
X032186Y003589D02*
X037406Y003589D01*
X037378Y003430D02*
X032315Y003430D01*
X032366Y003272D02*
X034048Y003272D01*
X033917Y003113D02*
X032365Y003113D01*
X032299Y002955D02*
X033855Y002955D01*
X033855Y002796D02*
X032185Y002796D01*
X032284Y002637D02*
X033901Y002637D01*
X034011Y002479D02*
X032306Y002479D01*
X032264Y002320D02*
X034070Y002320D01*
X034070Y002162D02*
X032129Y002162D01*
X031890Y002162D02*
X031890Y002162D01*
X031890Y002320D02*
X031890Y002320D01*
X031890Y002479D02*
X031890Y002479D01*
X031842Y002003D02*
X034070Y002003D01*
X034070Y001845D02*
X031768Y001845D01*
X031672Y001686D02*
X034070Y001686D01*
X034070Y001528D02*
X031545Y001528D01*
X031386Y001369D02*
X034025Y001369D01*
X033866Y001211D02*
X031228Y001211D01*
X029272Y000888D02*
X033996Y000888D01*
X034390Y001282D01*
X034390Y002857D01*
X034878Y002637D02*
X037174Y002637D01*
X037122Y002796D02*
X034925Y002796D01*
X034925Y002955D02*
X037124Y002955D01*
X037189Y003113D02*
X034863Y003113D01*
X034732Y003272D02*
X037356Y003272D01*
X037303Y002479D02*
X034769Y002479D01*
X034710Y002320D02*
X037378Y002320D01*
X037390Y002162D02*
X034710Y002162D01*
X034710Y002003D02*
X037464Y002003D01*
X037675Y001845D02*
X034710Y001845D01*
X034710Y001686D02*
X038288Y001686D01*
X038075Y001845D02*
X038034Y001845D01*
X038642Y001686D02*
X041157Y001686D01*
X041157Y001528D02*
X034710Y001528D01*
X034755Y001369D02*
X041111Y001369D01*
X040953Y001211D02*
X034914Y001211D01*
X034784Y000888D02*
X034390Y001282D01*
X034784Y000888D02*
X041083Y000888D01*
X041477Y001282D01*
X041477Y002857D01*
X041965Y002637D02*
X043125Y002637D01*
X043125Y002479D02*
X041856Y002479D01*
X041796Y002320D02*
X043158Y002320D01*
X043294Y002162D02*
X041796Y002162D01*
X041796Y002003D02*
X043452Y002003D01*
X043611Y001845D02*
X041796Y001845D01*
X041796Y001686D02*
X043769Y001686D01*
X043928Y001528D02*
X041796Y001528D01*
X041842Y001369D02*
X044136Y001369D01*
X044232Y001676D02*
X043445Y002463D01*
X043445Y006065D01*
X043882Y006125D02*
X044249Y006125D01*
X044249Y006084D02*
X044607Y006084D01*
X044607Y006047D01*
X044249Y006047D01*
X044249Y005825D01*
X044262Y005779D01*
X044285Y005738D01*
X044319Y005705D01*
X044360Y005681D01*
X044406Y005669D01*
X044608Y005669D01*
X044608Y006047D01*
X044645Y006047D01*
X044645Y006084D01*
X045003Y006084D01*
X045003Y006306D01*
X044992Y006347D01*
X045026Y006382D01*
X045063Y006470D01*
X045063Y006999D01*
X045026Y007087D01*
X044959Y007155D01*
X044871Y007191D01*
X044382Y007191D01*
X044293Y007155D01*
X044226Y007087D01*
X044212Y007055D01*
X043859Y007055D01*
X043845Y007087D01*
X043778Y007155D01*
X043690Y007191D01*
X043200Y007191D01*
X043112Y007155D01*
X043045Y007087D01*
X043008Y006999D01*
X043008Y006809D01*
X041738Y005539D01*
X039936Y005539D01*
X039936Y005588D01*
X039984Y005636D01*
X040051Y005609D01*
X040540Y005609D01*
X040628Y005645D01*
X040696Y005713D01*
X040732Y005801D01*
X040732Y006330D01*
X040703Y006400D01*
X040709Y006415D01*
X041063Y006415D01*
X041076Y006382D01*
X041111Y006347D01*
X041100Y006306D01*
X041100Y006084D01*
X041458Y006084D01*
X041458Y006047D01*
X041100Y006047D01*
X041100Y005825D01*
X041112Y005779D01*
X041136Y005738D01*
X041169Y005705D01*
X041210Y005681D01*
X041256Y005669D01*
X041458Y005669D01*
X041458Y006047D01*
X041495Y006047D01*
X041495Y006084D01*
X041853Y006084D01*
X041853Y006306D01*
X041842Y006347D01*
X041877Y006382D01*
X041913Y006470D01*
X041913Y006999D01*
X041877Y007087D01*
X041809Y007155D01*
X041721Y007191D01*
X041532Y007191D01*
X041511Y007212D01*
X041511Y007273D01*
X041446Y007430D01*
X041325Y007550D01*
X041168Y007615D01*
X040998Y007615D01*
X040840Y007550D01*
X040720Y007430D01*
X040655Y007273D01*
X040655Y007128D01*
X040628Y007155D01*
X040540Y007191D01*
X040051Y007191D01*
X039963Y007155D01*
X039895Y007087D01*
X039859Y006999D01*
X039859Y006470D01*
X039888Y006400D01*
X039859Y006330D01*
X039859Y006326D01*
X039838Y006326D01*
X039720Y006278D01*
X039630Y006188D01*
X039484Y006041D01*
X039423Y006041D01*
X039266Y005976D01*
X039145Y005855D01*
X039080Y005698D01*
X039080Y005539D01*
X038460Y005539D01*
X038362Y005498D01*
X038232Y005498D01*
X038057Y005426D01*
X037933Y005302D01*
X037809Y005426D01*
X037634Y005498D01*
X037445Y005498D01*
X037270Y005426D01*
X037146Y005302D01*
X037022Y005426D01*
X036847Y005498D01*
X036657Y005498D01*
X036482Y005426D01*
X036358Y005302D01*
X036234Y005426D01*
X036059Y005498D01*
X035941Y005498D01*
X035891Y005548D01*
X035891Y005597D01*
X035932Y005590D01*
X035964Y005590D01*
X035964Y006006D01*
X035965Y006006D01*
X035965Y006006D01*
X036381Y006006D01*
X036752Y006006D01*
X036752Y006006D01*
X036752Y005590D01*
X036719Y005590D01*
X036655Y005600D01*
X036592Y005621D01*
X036534Y005650D01*
X036481Y005689D01*
X036435Y005735D01*
X036396Y005788D01*
X036366Y005846D01*
X036358Y005871D01*
X036350Y005846D01*
X036321Y005788D01*
X036282Y005735D01*
X036236Y005689D01*
X036183Y005650D01*
X036124Y005621D01*
X036062Y005600D01*
X035997Y005590D01*
X035965Y005590D01*
X035965Y006006D01*
X036381Y006006D01*
X036752Y006006D01*
X036752Y005590D01*
X036785Y005590D01*
X036850Y005600D01*
X036912Y005621D01*
X036970Y005650D01*
X037023Y005689D01*
X037070Y005735D01*
X037108Y005788D01*
X037112Y005795D01*
X037136Y005737D01*
X037270Y005603D01*
X037445Y005530D01*
X037634Y005530D01*
X037809Y005603D01*
X037933Y005727D01*
X038057Y005603D01*
X038232Y005530D01*
X038422Y005530D01*
X038597Y005603D01*
X038731Y005737D01*
X038803Y005912D01*
X038803Y006101D01*
X038731Y006276D01*
X038597Y006410D01*
X038422Y006482D01*
X038232Y006482D01*
X038057Y006410D01*
X037933Y006286D01*
X037809Y006410D01*
X037655Y006474D01*
X037870Y006474D01*
X037997Y006474D01*
X038114Y006522D01*
X038508Y006916D01*
X038598Y007006D01*
X038647Y007124D01*
X038647Y007215D01*
X038660Y007220D01*
X038727Y007288D01*
X038741Y007320D01*
X039094Y007320D01*
X039108Y007288D01*
X039175Y007220D01*
X039263Y007184D01*
X039753Y007184D01*
X039841Y007220D01*
X039908Y007288D01*
X039945Y007376D01*
X039945Y007904D01*
X039908Y007993D01*
X039874Y008027D01*
X039885Y008069D01*
X039885Y008291D01*
X039527Y008291D01*
X039527Y008328D01*
X039885Y008328D01*
X039885Y008550D01*
X039873Y008595D01*
X039849Y008636D01*
X039815Y008670D01*
X039774Y008694D01*
X039729Y008706D01*
X039526Y008706D01*
X039526Y008328D01*
X039490Y008328D01*
X039490Y008706D01*
X039287Y008706D01*
X039242Y008694D01*
X039201Y008670D01*
X039167Y008636D01*
X039143Y008595D01*
X039131Y008550D01*
X039131Y008328D01*
X039489Y008328D01*
X039489Y008291D01*
X039131Y008291D01*
X039131Y008069D01*
X039142Y008027D01*
X039108Y007993D01*
X039094Y007960D01*
X038741Y007960D01*
X038735Y007975D01*
X038764Y008045D01*
X038764Y008574D01*
X038738Y008636D01*
X038755Y008677D01*
X038755Y008847D01*
X038690Y009005D01*
X038569Y009125D01*
X038412Y009190D01*
X038242Y009190D01*
X038084Y009125D01*
X037964Y009005D01*
X037899Y008847D01*
X037899Y008677D01*
X037916Y008636D01*
X037890Y008574D01*
X037890Y008348D01*
X037850Y008445D01*
X037616Y008679D01*
X037311Y008805D01*
X036981Y008805D01*
X036675Y008679D01*
X036442Y008445D01*
X036315Y008140D01*
X036315Y007810D01*
X036442Y007504D01*
X036675Y007271D01*
X036981Y007144D01*
X037311Y007144D01*
X037616Y007271D01*
X037850Y007504D01*
X037890Y007601D01*
X037890Y007376D01*
X037927Y007288D01*
X037951Y007264D01*
X037801Y007114D01*
X035901Y007114D01*
X035783Y007065D01*
X035693Y006975D01*
X035300Y006581D01*
X035259Y006482D01*
X035083Y006482D01*
X034908Y006410D01*
X034784Y006286D01*
X034660Y006410D01*
X034485Y006482D01*
X034316Y006482D01*
X034316Y007055D01*
X034445Y007184D01*
X034634Y007184D01*
X034723Y007220D01*
X034790Y007288D01*
X034804Y007320D01*
X035157Y007320D01*
X035171Y007288D01*
X035238Y007220D01*
X035326Y007184D01*
X035816Y007184D01*
X035904Y007220D01*
X035971Y007288D01*
X036008Y007376D01*
X036008Y007904D01*
X035971Y007993D01*
X035937Y008027D01*
X035948Y008069D01*
X035948Y008291D01*
X035590Y008291D01*
X035590Y008328D01*
X035948Y008328D01*
X035948Y008550D01*
X035936Y008595D01*
X035912Y008636D01*
X035878Y008670D01*
X035837Y008694D01*
X035792Y008706D01*
X035589Y008706D01*
X035589Y008328D01*
X035553Y008328D01*
X035553Y008706D01*
X035350Y008706D01*
X035305Y008694D01*
X035264Y008670D01*
X035230Y008636D01*
X035206Y008595D01*
X035194Y008550D01*
X035194Y008328D01*
X035552Y008328D01*
X035552Y008291D01*
X035194Y008291D01*
X035194Y008069D01*
X035205Y008027D01*
X035171Y007993D01*
X035157Y007960D01*
X034804Y007960D01*
X034798Y007975D01*
X034827Y008045D01*
X034827Y008574D01*
X034801Y008636D01*
X034818Y008677D01*
X034818Y008847D01*
X034753Y009005D01*
X034632Y009125D01*
X034475Y009190D01*
X034305Y009190D01*
X034147Y009125D01*
X034027Y009005D01*
X033962Y008847D01*
X033962Y008677D01*
X033979Y008636D01*
X033953Y008574D01*
X033953Y008045D01*
X033982Y007975D01*
X033953Y007904D01*
X033953Y007597D01*
X033725Y007369D01*
X033676Y007251D01*
X033676Y007124D01*
X033676Y006482D01*
X033508Y006482D01*
X033333Y006410D01*
X033209Y006286D01*
X033085Y006410D01*
X032910Y006482D01*
X032741Y006482D01*
X032741Y006523D01*
X032693Y006640D01*
X032141Y007192D01*
X032256Y007144D01*
X032587Y007144D01*
X032892Y007271D01*
X033125Y007504D01*
X033252Y007810D01*
X033252Y008140D01*
X033125Y008445D01*
X032892Y008679D01*
X032587Y008805D01*
X032256Y008805D01*
X031951Y008679D01*
X031717Y008445D01*
X031617Y008203D01*
X031617Y008291D01*
X031259Y008291D01*
X031259Y008328D01*
X031617Y008328D01*
X031617Y008550D01*
X031605Y008595D01*
X031581Y008636D01*
X031548Y008670D01*
X031507Y008694D01*
X031461Y008706D01*
X031259Y008706D01*
X031259Y008328D01*
X031222Y008328D01*
X031222Y008706D01*
X031020Y008706D01*
X030974Y008694D01*
X030933Y008670D01*
X030899Y008636D01*
X030876Y008595D01*
X030863Y008550D01*
X030863Y008328D01*
X031222Y008328D01*
X031222Y008291D01*
X030863Y008291D01*
X030863Y008069D01*
X030875Y008027D01*
X030840Y007993D01*
X030827Y007960D01*
X030473Y007960D01*
X030467Y007975D01*
X030496Y008045D01*
X030496Y008294D01*
X031432Y009230D01*
X046462Y009230D01*
X048111Y007581D01*
X047643Y007114D01*
X046968Y007114D01*
X046927Y007155D01*
X046839Y007191D01*
X046350Y007191D01*
X046262Y007155D01*
X046194Y007087D01*
X046158Y006999D01*
X046158Y006470D01*
X046187Y006400D01*
X046158Y006330D01*
X046158Y005801D01*
X046184Y005739D01*
X046167Y005698D01*
X046167Y005527D01*
X046232Y005370D01*
X046352Y005250D01*
X046509Y005184D01*
X046680Y005184D01*
X046837Y005250D01*
X046958Y005370D01*
X047023Y005527D01*
X047023Y005698D01*
X047006Y005739D01*
X047031Y005801D01*
X047031Y006330D01*
X047002Y006400D01*
X047031Y006470D01*
X047031Y006474D01*
X047839Y006474D01*
X047957Y006522D01*
X048047Y006612D01*
X048243Y006809D01*
X048243Y003777D01*
X047289Y002822D01*
X046417Y002822D01*
X046382Y002857D01*
X046467Y002941D01*
X046539Y003116D01*
X046539Y003306D01*
X046467Y003481D01*
X046333Y003615D01*
X046158Y003687D01*
X045968Y003687D01*
X045957Y003683D01*
X045937Y003745D01*
X045907Y003803D01*
X045869Y003856D01*
X045822Y003902D01*
X045769Y003941D01*
X045711Y003971D01*
X045649Y003991D01*
X045584Y004001D01*
X045551Y004001D01*
X045519Y004001D01*
X045454Y003991D01*
X045392Y003971D01*
X045333Y003941D01*
X045280Y003902D01*
X045234Y003856D01*
X045195Y003803D01*
X045178Y003770D01*
X045159Y003784D01*
X045101Y003813D01*
X045039Y003834D01*
X044974Y003844D01*
X044941Y003844D01*
X044908Y003844D01*
X044844Y003834D01*
X044781Y003813D01*
X044723Y003784D01*
X044670Y003745D01*
X044624Y003699D01*
X044585Y003646D01*
X044555Y003587D01*
X044535Y003525D01*
X044525Y003460D01*
X044525Y003428D01*
X044941Y003428D01*
X044941Y003844D01*
X044941Y003428D01*
X044941Y003428D01*
X044941Y003427D01*
X044525Y003427D01*
X044525Y003395D01*
X044535Y003330D01*
X044541Y003312D01*
X044415Y003260D01*
X044281Y003126D01*
X044209Y002951D01*
X044209Y002762D01*
X044281Y002587D01*
X044415Y002453D01*
X044483Y002425D01*
X044465Y002381D01*
X044465Y002191D01*
X044537Y002016D01*
X044558Y001996D01*
X044365Y001996D01*
X043765Y002596D01*
X043765Y005640D01*
X043778Y005645D01*
X043845Y005713D01*
X043882Y005801D01*
X043882Y006330D01*
X043853Y006400D01*
X043859Y006415D01*
X044212Y006415D01*
X044226Y006382D01*
X044261Y006347D01*
X044249Y006306D01*
X044249Y006084D01*
X044249Y005967D02*
X043882Y005967D01*
X043882Y005808D02*
X044254Y005808D01*
X044608Y005808D02*
X044645Y005808D01*
X044645Y005669D02*
X044847Y005669D01*
X044892Y005681D01*
X044934Y005705D01*
X044967Y005738D01*
X044991Y005779D01*
X045003Y005825D01*
X045003Y006047D01*
X044645Y006047D01*
X044645Y005669D01*
X044645Y005967D02*
X044608Y005967D01*
X045003Y005967D02*
X046158Y005967D01*
X046158Y006125D02*
X045003Y006125D01*
X045003Y006284D02*
X046158Y006284D01*
X046169Y006443D02*
X045051Y006443D01*
X045063Y006601D02*
X046158Y006601D01*
X046158Y006760D02*
X045063Y006760D01*
X045063Y006918D02*
X046158Y006918D01*
X046190Y007077D02*
X045031Y007077D01*
X044626Y006735D02*
X043445Y006735D01*
X043386Y006735D01*
X041870Y005219D01*
X038524Y005219D01*
X038327Y005022D01*
X037964Y005333D02*
X037902Y005333D01*
X037651Y005491D02*
X038215Y005491D01*
X038010Y005650D02*
X037856Y005650D01*
X037428Y005491D02*
X036864Y005491D01*
X036969Y005650D02*
X037223Y005650D01*
X036752Y005650D02*
X036752Y005650D01*
X036752Y005808D02*
X036752Y005808D01*
X036752Y005967D02*
X036752Y005967D01*
X036752Y006006D02*
X036752Y006006D01*
X036752Y006007D02*
X036752Y006422D01*
X036719Y006422D01*
X036655Y006412D01*
X036592Y006392D01*
X036534Y006362D01*
X036481Y006324D01*
X036435Y006277D01*
X036396Y006224D01*
X036366Y006166D01*
X036358Y006141D01*
X036350Y006166D01*
X036321Y006224D01*
X036282Y006277D01*
X036236Y006324D01*
X036183Y006362D01*
X036124Y006392D01*
X036062Y006412D01*
X036039Y006416D01*
X036097Y006474D01*
X037424Y006474D01*
X037270Y006410D01*
X037136Y006276D01*
X037112Y006217D01*
X037108Y006224D01*
X037070Y006277D01*
X037023Y006324D01*
X036970Y006362D01*
X036912Y006392D01*
X036850Y006412D01*
X036785Y006422D01*
X036752Y006422D01*
X036752Y006007D01*
X036752Y006007D01*
X036752Y006125D02*
X036752Y006125D01*
X036752Y006284D02*
X036752Y006284D01*
X036441Y006284D02*
X036276Y006284D01*
X036066Y006443D02*
X037348Y006443D01*
X037144Y006284D02*
X037063Y006284D01*
X037731Y006443D02*
X038136Y006443D01*
X038193Y006601D02*
X039859Y006601D01*
X039859Y006760D02*
X038352Y006760D01*
X038510Y006918D02*
X039859Y006918D01*
X039891Y007077D02*
X038627Y007077D01*
X038675Y007235D02*
X039160Y007235D01*
X039508Y007640D02*
X038327Y007640D01*
X038327Y007187D01*
X037933Y006794D01*
X035965Y006794D01*
X035571Y006400D01*
X035571Y005416D01*
X035965Y005022D01*
X036327Y005333D02*
X036389Y005333D01*
X036641Y005491D02*
X036076Y005491D01*
X036182Y005650D02*
X036535Y005650D01*
X036386Y005808D02*
X036331Y005808D01*
X035965Y005808D02*
X035964Y005808D01*
X035964Y005650D02*
X035965Y005650D01*
X035964Y005967D02*
X035965Y005967D01*
X035320Y006601D02*
X034316Y006601D01*
X034316Y006760D02*
X035478Y006760D01*
X035637Y006918D02*
X034316Y006918D01*
X034338Y007077D02*
X035812Y007077D01*
X035693Y006975D02*
X035693Y006975D01*
X035919Y007235D02*
X036761Y007235D01*
X036552Y007394D02*
X036008Y007394D01*
X036008Y007552D02*
X036422Y007552D01*
X036356Y007711D02*
X036008Y007711D01*
X036008Y007869D02*
X036315Y007869D01*
X036315Y008028D02*
X035937Y008028D01*
X035948Y008186D02*
X036335Y008186D01*
X036400Y008345D02*
X035948Y008345D01*
X035948Y008504D02*
X036500Y008504D01*
X036659Y008662D02*
X035886Y008662D01*
X035589Y008662D02*
X035553Y008662D01*
X035553Y008504D02*
X035589Y008504D01*
X035589Y008345D02*
X035553Y008345D01*
X035194Y008345D02*
X034827Y008345D01*
X034827Y008186D02*
X035194Y008186D01*
X035205Y008028D02*
X034820Y008028D01*
X034390Y008309D02*
X034390Y008762D01*
X034602Y009138D02*
X038115Y009138D01*
X037953Y008979D02*
X034763Y008979D01*
X034818Y008821D02*
X037899Y008821D01*
X037905Y008662D02*
X037633Y008662D01*
X037792Y008504D02*
X037890Y008504D01*
X038327Y008309D02*
X038327Y008762D01*
X038539Y009138D02*
X046554Y009138D01*
X046712Y008979D02*
X038700Y008979D01*
X038755Y008821D02*
X046871Y008821D01*
X047030Y008662D02*
X039823Y008662D01*
X039885Y008504D02*
X047188Y008504D01*
X047347Y008345D02*
X039885Y008345D01*
X039885Y008186D02*
X047505Y008186D01*
X047664Y008028D02*
X039874Y008028D01*
X039945Y007869D02*
X047822Y007869D01*
X047981Y007711D02*
X039945Y007711D01*
X039945Y007552D02*
X040845Y007552D01*
X040705Y007394D02*
X039945Y007394D01*
X039856Y007235D02*
X040655Y007235D01*
X041083Y007187D02*
X041477Y006794D01*
X041477Y006735D01*
X040295Y006735D01*
X039870Y006443D02*
X038518Y006443D01*
X038723Y006284D02*
X039736Y006284D01*
X039568Y006125D02*
X038793Y006125D01*
X038803Y005967D02*
X039257Y005967D01*
X039126Y005808D02*
X038760Y005808D01*
X038644Y005650D02*
X039080Y005650D01*
X039508Y005613D02*
X039902Y006006D01*
X040236Y006006D01*
X040295Y006065D01*
X040732Y006125D02*
X041100Y006125D01*
X041100Y005967D02*
X040732Y005967D01*
X040732Y005808D02*
X041104Y005808D01*
X041458Y005808D02*
X041495Y005808D01*
X041495Y005669D02*
X041697Y005669D01*
X041743Y005681D01*
X041784Y005705D01*
X041817Y005738D01*
X041841Y005779D01*
X041853Y005825D01*
X041853Y006047D01*
X041495Y006047D01*
X041495Y005669D01*
X041495Y005967D02*
X041458Y005967D01*
X041853Y005967D02*
X042166Y005967D01*
X042324Y006125D02*
X041853Y006125D01*
X041853Y006284D02*
X042483Y006284D01*
X042641Y006443D02*
X041902Y006443D01*
X041913Y006601D02*
X042800Y006601D01*
X042958Y006760D02*
X041913Y006760D01*
X041913Y006918D02*
X043008Y006918D01*
X043040Y007077D02*
X041881Y007077D01*
X041511Y007235D02*
X047765Y007235D01*
X047923Y007394D02*
X041461Y007394D01*
X041320Y007552D02*
X048082Y007552D01*
X048563Y007581D02*
X047776Y006794D01*
X046654Y006794D01*
X046595Y006735D01*
X047020Y006443D02*
X048243Y006443D01*
X048243Y006601D02*
X048036Y006601D01*
X048194Y006760D02*
X048243Y006760D01*
X048243Y006284D02*
X047031Y006284D01*
X047031Y006125D02*
X048243Y006125D01*
X048243Y005967D02*
X047031Y005967D01*
X047031Y005808D02*
X048243Y005808D01*
X048243Y005650D02*
X047023Y005650D01*
X047008Y005491D02*
X048243Y005491D01*
X048243Y005333D02*
X046920Y005333D01*
X046595Y005613D02*
X046595Y006065D01*
X046158Y005808D02*
X044998Y005808D01*
X044249Y006284D02*
X043882Y006284D01*
X043782Y005650D02*
X046167Y005650D01*
X046181Y005491D02*
X043765Y005491D01*
X043765Y005333D02*
X046269Y005333D01*
X048243Y005174D02*
X043765Y005174D01*
X043765Y005016D02*
X048243Y005016D01*
X048243Y004857D02*
X043765Y004857D01*
X043765Y004699D02*
X048243Y004699D01*
X048243Y004540D02*
X043765Y004540D01*
X043765Y004381D02*
X048243Y004381D01*
X048243Y004223D02*
X043765Y004223D01*
X043765Y004064D02*
X048243Y004064D01*
X048243Y003906D02*
X045818Y003906D01*
X045936Y003747D02*
X048214Y003747D01*
X048055Y003589D02*
X046359Y003589D01*
X046488Y003430D02*
X047897Y003430D01*
X047738Y003272D02*
X046539Y003272D01*
X046538Y003113D02*
X047580Y003113D01*
X047421Y002955D02*
X046472Y002955D01*
X046063Y002502D02*
X047421Y002502D01*
X048563Y003644D01*
X048563Y007581D01*
X046595Y009550D01*
X031299Y009550D01*
X030059Y008309D01*
X029622Y008345D02*
X021398Y008345D01*
X021398Y008186D02*
X029622Y008186D01*
X029629Y008028D02*
X021398Y008028D01*
X021398Y007869D02*
X029622Y007869D01*
X029622Y007711D02*
X021398Y007711D01*
X021398Y007394D02*
X025876Y007394D01*
X024171Y006284D02*
X023803Y006284D01*
X023704Y005650D02*
X025802Y005650D01*
X025802Y005808D02*
X024920Y005808D01*
X025802Y005491D02*
X023245Y005491D01*
X023086Y005333D02*
X025802Y005333D01*
X025802Y005174D02*
X022928Y005174D01*
X022899Y005016D02*
X025873Y005016D01*
X026031Y004857D02*
X022899Y004857D01*
X022899Y004699D02*
X026190Y004699D01*
X026349Y004540D02*
X022899Y004540D01*
X022899Y004381D02*
X026507Y004381D01*
X026666Y004223D02*
X022899Y004223D01*
X022899Y004064D02*
X026824Y004064D01*
X026983Y003906D02*
X024644Y003906D01*
X024740Y003747D02*
X027141Y003747D01*
X027300Y003589D02*
X025099Y003589D01*
X025228Y003430D02*
X027458Y003430D01*
X026961Y003272D02*
X025279Y003272D01*
X025278Y003113D02*
X026830Y003113D01*
X026768Y002955D02*
X025212Y002955D01*
X025098Y002796D02*
X026768Y002796D01*
X026815Y002637D02*
X025197Y002637D01*
X025219Y002479D02*
X026924Y002479D01*
X027387Y002320D02*
X025178Y002320D01*
X025043Y002162D02*
X027546Y002162D01*
X027704Y002003D02*
X024755Y002003D01*
X024803Y002162D02*
X024803Y002162D01*
X024803Y002320D02*
X024803Y002320D01*
X024803Y002479D02*
X024803Y002479D01*
X024291Y002128D02*
X024291Y001813D01*
X023760Y001282D01*
X022973Y001282D01*
X023021Y001686D02*
X023712Y001686D01*
X023861Y001845D02*
X023870Y001845D01*
X023502Y001845D02*
X022899Y001845D01*
X022899Y002003D02*
X023290Y002003D01*
X023217Y002162D02*
X022899Y002162D01*
X022899Y002320D02*
X023205Y002320D01*
X023130Y002479D02*
X022899Y002479D01*
X022899Y002637D02*
X023001Y002637D01*
X022949Y002796D02*
X022899Y002796D01*
X022899Y002955D02*
X022950Y002955D01*
X022899Y003113D02*
X023016Y003113D01*
X022899Y003272D02*
X023183Y003272D01*
X023205Y003430D02*
X022899Y003430D01*
X022899Y003589D02*
X023233Y003589D01*
X023328Y003747D02*
X022899Y003747D01*
X022899Y003906D02*
X023939Y003906D01*
X027303Y002857D02*
X029272Y000888D01*
X029188Y000576D02*
X021398Y000576D01*
X021398Y000735D02*
X028972Y000735D01*
X028814Y000894D02*
X021398Y000894D01*
X023983Y001052D02*
X028655Y001052D01*
X028497Y001211D02*
X024141Y001211D01*
X024300Y001369D02*
X028338Y001369D01*
X028180Y001528D02*
X024458Y001528D01*
X024473Y001542D02*
X024473Y001542D01*
X024585Y001686D02*
X028021Y001686D01*
X027863Y001845D02*
X024681Y001845D01*
X031432Y006443D02*
X031836Y006443D01*
X032573Y006760D02*
X033676Y006760D01*
X033676Y006918D02*
X032415Y006918D01*
X032256Y007077D02*
X033676Y007077D01*
X033676Y007235D02*
X032806Y007235D01*
X033015Y007394D02*
X033750Y007394D01*
X033909Y007552D02*
X033145Y007552D01*
X033211Y007711D02*
X033953Y007711D01*
X033953Y007869D02*
X033252Y007869D01*
X033252Y008028D02*
X033960Y008028D01*
X033953Y008186D02*
X033233Y008186D01*
X033167Y008345D02*
X033953Y008345D01*
X033953Y008504D02*
X033067Y008504D01*
X032909Y008662D02*
X033968Y008662D01*
X033962Y008821D02*
X031023Y008821D01*
X030925Y008662D02*
X030864Y008662D01*
X030863Y008504D02*
X030706Y008504D01*
X030863Y008345D02*
X030547Y008345D01*
X030496Y008186D02*
X030863Y008186D01*
X030875Y008028D02*
X030489Y008028D01*
X031222Y008345D02*
X031259Y008345D01*
X031259Y008504D02*
X031222Y008504D01*
X031222Y008662D02*
X031259Y008662D01*
X031556Y008662D02*
X031934Y008662D01*
X031776Y008504D02*
X031617Y008504D01*
X031617Y008345D02*
X031676Y008345D01*
X031181Y008979D02*
X034016Y008979D01*
X034178Y009138D02*
X031340Y009138D01*
X030752Y009455D02*
X021398Y009455D01*
X021398Y009296D02*
X030594Y009296D01*
X030435Y009138D02*
X021398Y009138D01*
X021398Y008979D02*
X030276Y008979D01*
X030118Y008821D02*
X021398Y008821D01*
X029622Y008574D02*
X029659Y008662D01*
X030407Y007235D02*
X030892Y007235D01*
X032709Y006601D02*
X033676Y006601D01*
X033411Y006443D02*
X033006Y006443D01*
X033209Y006400D02*
X033209Y004431D01*
X033165Y004699D02*
X033253Y004699D01*
X033603Y005022D02*
X033996Y005416D01*
X033996Y007187D01*
X034390Y007581D01*
X034390Y007640D01*
X035571Y007640D01*
X035223Y007235D02*
X034738Y007235D01*
X034581Y006443D02*
X034986Y006443D01*
X037115Y005333D02*
X037177Y005333D01*
X037540Y005022D02*
X037540Y004825D01*
X037933Y004431D01*
X041083Y004431D01*
X041477Y004825D01*
X041477Y004038D02*
X042264Y004825D01*
X042584Y004540D02*
X043125Y004540D01*
X043125Y004381D02*
X042273Y004381D01*
X042114Y004223D02*
X043125Y004223D01*
X043125Y004064D02*
X041956Y004064D01*
X041797Y003906D02*
X043125Y003906D01*
X043125Y003747D02*
X041611Y003747D01*
X041477Y004038D02*
X035374Y004038D01*
X034390Y005022D01*
X034040Y004699D02*
X033952Y004699D01*
X037531Y007235D02*
X037922Y007235D01*
X037890Y007394D02*
X037739Y007394D01*
X037870Y007552D02*
X037890Y007552D01*
X038757Y008028D02*
X039142Y008028D01*
X039131Y008186D02*
X038764Y008186D01*
X038764Y008345D02*
X039131Y008345D01*
X039131Y008504D02*
X038764Y008504D01*
X038749Y008662D02*
X039193Y008662D01*
X039490Y008662D02*
X039526Y008662D01*
X039526Y008504D02*
X039490Y008504D01*
X039490Y008345D02*
X039526Y008345D01*
X040732Y006284D02*
X041100Y006284D01*
X040633Y005650D02*
X041849Y005650D01*
X041849Y005808D02*
X042007Y005808D01*
X042437Y005333D02*
X043125Y005333D01*
X043125Y005491D02*
X042595Y005491D01*
X042754Y005650D02*
X043108Y005650D01*
X043008Y005808D02*
X042912Y005808D01*
X043125Y005174D02*
X042520Y005174D01*
X042648Y005016D02*
X043125Y005016D01*
X043125Y004857D02*
X042692Y004857D01*
X042675Y004699D02*
X043125Y004699D01*
X043765Y003906D02*
X045285Y003906D01*
X045551Y003906D02*
X045551Y003906D01*
X045551Y004001D02*
X045551Y003585D01*
X045551Y003585D01*
X045551Y004001D01*
X045551Y003747D02*
X045551Y003747D01*
X045551Y003589D02*
X045551Y003589D01*
X044941Y003589D02*
X044941Y003589D01*
X044941Y003747D02*
X044941Y003747D01*
X044673Y003747D02*
X043765Y003747D01*
X043765Y003589D02*
X044556Y003589D01*
X044525Y003430D02*
X043765Y003430D01*
X043765Y003272D02*
X044443Y003272D01*
X044276Y003113D02*
X043765Y003113D01*
X043765Y002955D02*
X044210Y002955D01*
X044209Y002796D02*
X043765Y002796D01*
X043765Y002637D02*
X044261Y002637D01*
X044389Y002479D02*
X043882Y002479D01*
X044040Y002320D02*
X044465Y002320D01*
X044477Y002162D02*
X044199Y002162D01*
X044357Y002003D02*
X044550Y002003D01*
X044232Y001676D02*
X045414Y001676D01*
X045551Y001813D01*
X045551Y002128D01*
X046015Y002003D02*
X047651Y002003D01*
X047492Y001845D02*
X045941Y001845D01*
X045845Y001686D02*
X047334Y001686D01*
X047175Y001528D02*
X045718Y001528D01*
X045510Y001369D02*
X047017Y001369D01*
X046858Y001211D02*
X042000Y001211D01*
X041870Y000888D02*
X041477Y001282D01*
X041870Y000888D02*
X046988Y000888D01*
X048563Y002463D01*
X048563Y002857D01*
X048075Y002637D02*
X048009Y002637D01*
X048127Y002479D02*
X047851Y002479D01*
X047968Y002320D02*
X047692Y002320D01*
X047693Y002321D02*
X047693Y002321D01*
X047809Y002162D02*
X046396Y002162D01*
X045414Y002857D02*
X044941Y003428D01*
X044941Y003430D02*
X044941Y003430D01*
X043125Y003430D02*
X039401Y003430D01*
X039453Y003272D02*
X041135Y003272D01*
X041003Y003113D02*
X039451Y003113D01*
X039386Y002955D02*
X040941Y002955D01*
X040941Y002796D02*
X039271Y002796D01*
X039370Y002637D02*
X040988Y002637D01*
X041097Y002479D02*
X039393Y002479D01*
X039393Y002470D02*
X039393Y002502D01*
X038977Y002502D01*
X038977Y002086D01*
X039009Y002086D01*
X039074Y002096D01*
X039136Y002117D01*
X039195Y002146D01*
X039248Y002185D01*
X039294Y002231D01*
X039332Y002284D01*
X039362Y002343D01*
X039382Y002405D01*
X039393Y002470D01*
X039351Y002320D02*
X041157Y002320D01*
X041157Y002162D02*
X039216Y002162D01*
X038977Y002162D02*
X038976Y002162D01*
X038976Y002320D02*
X038977Y002320D01*
X038976Y002479D02*
X038977Y002479D01*
X038928Y002003D02*
X041157Y002003D01*
X041157Y001845D02*
X038855Y001845D01*
X041166Y000576D02*
X041787Y000576D01*
X041571Y000735D02*
X041382Y000735D01*
X042012Y002796D02*
X043125Y002796D01*
X043125Y002955D02*
X042012Y002955D01*
X041950Y003113D02*
X043125Y003113D01*
X043125Y003272D02*
X041819Y003272D01*
X043125Y003589D02*
X039272Y003589D01*
X034700Y000576D02*
X034080Y000576D01*
X034296Y000735D02*
X034484Y000735D01*
X043850Y007077D02*
X044222Y007077D01*
X048942Y002479D02*
X048957Y002479D01*
X048957Y002320D02*
X048850Y002320D01*
X048957Y002162D02*
X048715Y002162D01*
X048556Y002003D02*
X048957Y002003D01*
X048957Y001845D02*
X048397Y001845D01*
X048239Y001686D02*
X048957Y001686D01*
X048957Y001528D02*
X048080Y001528D01*
X047922Y001369D02*
X048957Y001369D01*
X048957Y001211D02*
X047763Y001211D01*
X047605Y001052D02*
X048957Y001052D01*
X048957Y000894D02*
X047446Y000894D01*
X047288Y000735D02*
X048957Y000735D01*
X048957Y000576D02*
X047072Y000576D01*
X035194Y008504D02*
X034827Y008504D01*
X034812Y008662D02*
X035256Y008662D01*
D15*
X034390Y008762D03*
X038327Y008762D03*
X041083Y007187D03*
X039508Y005613D03*
X041477Y004825D03*
X042264Y004825D03*
X046595Y005613D03*
X027697Y006794D03*
M02*
